<mxfile host="app.diagrams.net" modified="2021-07-13T09:01:36.380Z" agent="5.0 (Windows NT 10.0; Win64; x64) AppleWebKit/537.36 (KHTML, like Gecko) Chrome/91.0.4472.124 Safari/537.36" etag="goBoF_5CDVm0z_rEQtMf" version="14.8.6" type="github" pages="8">
  <diagram id="UoIRd9o9D2KC9SxLvceZ" name="Use Cases">
    <mxGraphModel dx="1822" dy="1162" grid="1" gridSize="10" guides="1" tooltips="1" connect="1" arrows="1" fold="1" page="0" pageScale="1" pageWidth="827" pageHeight="1169" math="0" shadow="0">
      <root>
        <mxCell id="bUrMdA7n5FHhqxEgLlhN-0" />
        <mxCell id="bUrMdA7n5FHhqxEgLlhN-1" parent="bUrMdA7n5FHhqxEgLlhN-0" />
        <mxCell id="bUrMdA7n5FHhqxEgLlhN-2" value="" style="rounded=0;whiteSpace=wrap;html=1;fillColor=#CCCCCC;" parent="bUrMdA7n5FHhqxEgLlhN-1" vertex="1">
          <mxGeometry x="-10" y="-60" width="700" height="1150" as="geometry" />
        </mxCell>
        <mxCell id="iC4LV4RyRgzttkUwgt-G-27" style="edgeStyle=none;rounded=0;orthogonalLoop=1;jettySize=auto;html=1;exitX=1;exitY=0.3333333333333333;exitDx=0;exitDy=0;exitPerimeter=0;entryX=0;entryY=0.5;entryDx=0;entryDy=0;endArrow=none;endFill=0;strokeColor=#000000;" parent="bUrMdA7n5FHhqxEgLlhN-1" source="bUrMdA7n5FHhqxEgLlhN-3" target="-5ZHkERPT8IS8Fj27GrN-4" edge="1">
          <mxGeometry relative="1" as="geometry" />
        </mxCell>
        <mxCell id="iC4LV4RyRgzttkUwgt-G-28" style="edgeStyle=none;rounded=0;orthogonalLoop=1;jettySize=auto;html=1;exitX=1;exitY=0.3333333333333333;exitDx=0;exitDy=0;exitPerimeter=0;entryX=0;entryY=0.5;entryDx=0;entryDy=0;endArrow=none;endFill=0;strokeColor=#000000;" parent="bUrMdA7n5FHhqxEgLlhN-1" source="bUrMdA7n5FHhqxEgLlhN-3" target="-5ZHkERPT8IS8Fj27GrN-5" edge="1">
          <mxGeometry relative="1" as="geometry" />
        </mxCell>
        <mxCell id="bUrMdA7n5FHhqxEgLlhN-3" value="Anonyme" style="shape=umlActor;verticalLabelPosition=bottom;verticalAlign=top;html=1;outlineConnect=0;fillColor=#FF9933;" parent="bUrMdA7n5FHhqxEgLlhN-1" vertex="1">
          <mxGeometry x="-130" y="62" width="30" height="60" as="geometry" />
        </mxCell>
        <mxCell id="iC4LV4RyRgzttkUwgt-G-20" style="edgeStyle=none;rounded=0;orthogonalLoop=1;jettySize=auto;html=1;exitX=1;exitY=0.3333333333333333;exitDx=0;exitDy=0;exitPerimeter=0;entryX=0;entryY=0.5;entryDx=0;entryDy=0;endArrow=none;endFill=0;strokeColor=#000000;" parent="bUrMdA7n5FHhqxEgLlhN-1" source="-5ZHkERPT8IS8Fj27GrN-0" target="iC4LV4RyRgzttkUwgt-G-3" edge="1">
          <mxGeometry relative="1" as="geometry" />
        </mxCell>
        <mxCell id="iC4LV4RyRgzttkUwgt-G-21" style="edgeStyle=none;rounded=0;orthogonalLoop=1;jettySize=auto;html=1;exitX=1;exitY=0.3333333333333333;exitDx=0;exitDy=0;exitPerimeter=0;entryX=0;entryY=0.5;entryDx=0;entryDy=0;endArrow=none;endFill=0;strokeColor=#000000;" parent="bUrMdA7n5FHhqxEgLlhN-1" source="-5ZHkERPT8IS8Fj27GrN-0" target="iC4LV4RyRgzttkUwgt-G-0" edge="1">
          <mxGeometry relative="1" as="geometry" />
        </mxCell>
        <mxCell id="iC4LV4RyRgzttkUwgt-G-22" style="edgeStyle=none;rounded=0;orthogonalLoop=1;jettySize=auto;html=1;exitX=1;exitY=0.3333333333333333;exitDx=0;exitDy=0;exitPerimeter=0;entryX=0;entryY=0.5;entryDx=0;entryDy=0;endArrow=none;endFill=0;strokeColor=#000000;" parent="bUrMdA7n5FHhqxEgLlhN-1" source="-5ZHkERPT8IS8Fj27GrN-0" target="-5ZHkERPT8IS8Fj27GrN-11" edge="1">
          <mxGeometry relative="1" as="geometry" />
        </mxCell>
        <mxCell id="iC4LV4RyRgzttkUwgt-G-23" style="edgeStyle=none;rounded=0;orthogonalLoop=1;jettySize=auto;html=1;exitX=1;exitY=0.3333333333333333;exitDx=0;exitDy=0;exitPerimeter=0;entryX=0;entryY=0.5;entryDx=0;entryDy=0;endArrow=none;endFill=0;strokeColor=#000000;" parent="bUrMdA7n5FHhqxEgLlhN-1" source="-5ZHkERPT8IS8Fj27GrN-0" target="-5ZHkERPT8IS8Fj27GrN-9" edge="1">
          <mxGeometry relative="1" as="geometry" />
        </mxCell>
        <mxCell id="iC4LV4RyRgzttkUwgt-G-24" style="edgeStyle=none;rounded=0;orthogonalLoop=1;jettySize=auto;html=1;exitX=1;exitY=0.3333333333333333;exitDx=0;exitDy=0;exitPerimeter=0;entryX=0;entryY=0.5;entryDx=0;entryDy=0;endArrow=none;endFill=0;strokeColor=#000000;" parent="bUrMdA7n5FHhqxEgLlhN-1" source="-5ZHkERPT8IS8Fj27GrN-0" target="-5ZHkERPT8IS8Fj27GrN-8" edge="1">
          <mxGeometry relative="1" as="geometry" />
        </mxCell>
        <mxCell id="iC4LV4RyRgzttkUwgt-G-25" style="edgeStyle=none;rounded=0;orthogonalLoop=1;jettySize=auto;html=1;exitX=1;exitY=0.3333333333333333;exitDx=0;exitDy=0;exitPerimeter=0;entryX=0;entryY=0.5;entryDx=0;entryDy=0;endArrow=none;endFill=0;strokeColor=#000000;" parent="bUrMdA7n5FHhqxEgLlhN-1" source="-5ZHkERPT8IS8Fj27GrN-0" target="-5ZHkERPT8IS8Fj27GrN-7" edge="1">
          <mxGeometry relative="1" as="geometry" />
        </mxCell>
        <mxCell id="iC4LV4RyRgzttkUwgt-G-26" style="edgeStyle=none;rounded=0;orthogonalLoop=1;jettySize=auto;html=1;exitX=1;exitY=0.3333333333333333;exitDx=0;exitDy=0;exitPerimeter=0;entryX=0;entryY=0.5;entryDx=0;entryDy=0;endArrow=none;endFill=0;strokeColor=#000000;" parent="bUrMdA7n5FHhqxEgLlhN-1" source="-5ZHkERPT8IS8Fj27GrN-0" target="-5ZHkERPT8IS8Fj27GrN-6" edge="1">
          <mxGeometry relative="1" as="geometry" />
        </mxCell>
        <mxCell id="-5ZHkERPT8IS8Fj27GrN-0" value="EnregistrÃ©" style="shape=umlActor;verticalLabelPosition=bottom;verticalAlign=top;html=1;outlineConnect=0;fillColor=#00CC00;" parent="bUrMdA7n5FHhqxEgLlhN-1" vertex="1">
          <mxGeometry x="-130" y="340" width="30" height="60" as="geometry" />
        </mxCell>
        <mxCell id="iC4LV4RyRgzttkUwgt-G-18" style="edgeStyle=none;rounded=0;orthogonalLoop=1;jettySize=auto;html=1;exitX=1;exitY=0.3333333333333333;exitDx=0;exitDy=0;exitPerimeter=0;entryX=0;entryY=0.5;entryDx=0;entryDy=0;endArrow=none;endFill=0;strokeColor=#000000;" parent="bUrMdA7n5FHhqxEgLlhN-1" source="-5ZHkERPT8IS8Fj27GrN-1" target="iC4LV4RyRgzttkUwgt-G-2" edge="1">
          <mxGeometry relative="1" as="geometry" />
        </mxCell>
        <mxCell id="iC4LV4RyRgzttkUwgt-G-19" style="edgeStyle=none;rounded=0;orthogonalLoop=1;jettySize=auto;html=1;exitX=1;exitY=0.3333333333333333;exitDx=0;exitDy=0;exitPerimeter=0;entryX=0;entryY=0.5;entryDx=0;entryDy=0;endArrow=none;endFill=0;strokeColor=#000000;" parent="bUrMdA7n5FHhqxEgLlhN-1" source="-5ZHkERPT8IS8Fj27GrN-1" target="iC4LV4RyRgzttkUwgt-G-4" edge="1">
          <mxGeometry relative="1" as="geometry" />
        </mxCell>
        <mxCell id="-5ZHkERPT8IS8Fj27GrN-1" value="Praticien" style="shape=umlActor;verticalLabelPosition=bottom;verticalAlign=top;html=1;outlineConnect=0;fillColor=#3399FF;" parent="bUrMdA7n5FHhqxEgLlhN-1" vertex="1">
          <mxGeometry x="-130" y="620" width="30" height="60" as="geometry" />
        </mxCell>
        <mxCell id="iC4LV4RyRgzttkUwgt-G-12" style="rounded=0;orthogonalLoop=1;jettySize=auto;html=1;exitX=1;exitY=0.3333333333333333;exitDx=0;exitDy=0;exitPerimeter=0;entryX=0;entryY=0.5;entryDx=0;entryDy=0;endArrow=none;endFill=0;" parent="bUrMdA7n5FHhqxEgLlhN-1" source="-5ZHkERPT8IS8Fj27GrN-2" target="iC4LV4RyRgzttkUwgt-G-9" edge="1">
          <mxGeometry relative="1" as="geometry" />
        </mxCell>
        <mxCell id="iC4LV4RyRgzttkUwgt-G-13" style="edgeStyle=none;rounded=0;orthogonalLoop=1;jettySize=auto;html=1;exitX=1;exitY=0.3333333333333333;exitDx=0;exitDy=0;exitPerimeter=0;entryX=0;entryY=0.5;entryDx=0;entryDy=0;endArrow=none;endFill=0;strokeColor=#000000;" parent="bUrMdA7n5FHhqxEgLlhN-1" source="-5ZHkERPT8IS8Fj27GrN-2" target="iC4LV4RyRgzttkUwgt-G-5" edge="1">
          <mxGeometry relative="1" as="geometry" />
        </mxCell>
        <mxCell id="iC4LV4RyRgzttkUwgt-G-14" style="edgeStyle=none;rounded=0;orthogonalLoop=1;jettySize=auto;html=1;exitX=1;exitY=0.3333333333333333;exitDx=0;exitDy=0;exitPerimeter=0;entryX=0;entryY=0.5;entryDx=0;entryDy=0;endArrow=none;endFill=0;strokeColor=#000000;" parent="bUrMdA7n5FHhqxEgLlhN-1" source="-5ZHkERPT8IS8Fj27GrN-2" target="iC4LV4RyRgzttkUwgt-G-6" edge="1">
          <mxGeometry relative="1" as="geometry" />
        </mxCell>
        <mxCell id="iC4LV4RyRgzttkUwgt-G-15" style="edgeStyle=none;rounded=0;orthogonalLoop=1;jettySize=auto;html=1;exitX=1;exitY=0.3333333333333333;exitDx=0;exitDy=0;exitPerimeter=0;entryX=0;entryY=0.5;entryDx=0;entryDy=0;endArrow=none;endFill=0;strokeColor=#000000;" parent="bUrMdA7n5FHhqxEgLlhN-1" source="-5ZHkERPT8IS8Fj27GrN-2" target="iC4LV4RyRgzttkUwgt-G-8" edge="1">
          <mxGeometry relative="1" as="geometry" />
        </mxCell>
        <mxCell id="iC4LV4RyRgzttkUwgt-G-16" style="edgeStyle=none;rounded=0;orthogonalLoop=1;jettySize=auto;html=1;exitX=1;exitY=0.3333333333333333;exitDx=0;exitDy=0;exitPerimeter=0;entryX=0;entryY=0.5;entryDx=0;entryDy=0;endArrow=none;endFill=0;strokeColor=#000000;" parent="bUrMdA7n5FHhqxEgLlhN-1" source="-5ZHkERPT8IS8Fj27GrN-2" target="iC4LV4RyRgzttkUwgt-G-7" edge="1">
          <mxGeometry relative="1" as="geometry" />
        </mxCell>
        <mxCell id="iC4LV4RyRgzttkUwgt-G-17" style="edgeStyle=none;rounded=0;orthogonalLoop=1;jettySize=auto;html=1;exitX=1;exitY=0.3333333333333333;exitDx=0;exitDy=0;exitPerimeter=0;entryX=0;entryY=0.5;entryDx=0;entryDy=0;endArrow=none;endFill=0;strokeColor=#000000;" parent="bUrMdA7n5FHhqxEgLlhN-1" source="-5ZHkERPT8IS8Fj27GrN-2" target="iC4LV4RyRgzttkUwgt-G-11" edge="1">
          <mxGeometry relative="1" as="geometry" />
        </mxCell>
        <mxCell id="iC4LV4RyRgzttkUwgt-G-47" style="edgeStyle=none;rounded=0;orthogonalLoop=1;jettySize=auto;html=1;endArrow=block;endFill=0;strokeColor=#000000;jumpSize=6;strokeWidth=2;" parent="bUrMdA7n5FHhqxEgLlhN-1" edge="1">
          <mxGeometry relative="1" as="geometry">
            <mxPoint x="-115" y="860" as="sourcePoint" />
            <mxPoint x="-115" y="700" as="targetPoint" />
          </mxGeometry>
        </mxCell>
        <mxCell id="-5ZHkERPT8IS8Fj27GrN-2" value="Admin" style="shape=umlActor;verticalLabelPosition=bottom;verticalAlign=top;html=1;outlineConnect=0;fillColor=#FF9999;" parent="bUrMdA7n5FHhqxEgLlhN-1" vertex="1">
          <mxGeometry x="-130" y="870" width="30" height="60" as="geometry" />
        </mxCell>
        <mxCell id="-5ZHkERPT8IS8Fj27GrN-4" value="S&#39;informer sur l&#39;app" style="ellipse;whiteSpace=wrap;html=1;fillColor=#FF9933;" parent="bUrMdA7n5FHhqxEgLlhN-1" vertex="1">
          <mxGeometry x="68" y="32" width="180" height="40" as="geometry" />
        </mxCell>
        <mxCell id="-5ZHkERPT8IS8Fj27GrN-5" value="S&#39;enregistrer" style="ellipse;whiteSpace=wrap;html=1;fillColor=#FF9933;" parent="bUrMdA7n5FHhqxEgLlhN-1" vertex="1">
          <mxGeometry x="68" y="82" width="180" height="40" as="geometry" />
        </mxCell>
        <mxCell id="iC4LV4RyRgzttkUwgt-G-31" value="&amp;lt;&amp;lt;include&amp;gt;&amp;gt;" style="edgeStyle=none;rounded=0;orthogonalLoop=1;jettySize=auto;html=1;exitX=1;exitY=0.5;exitDx=0;exitDy=0;entryX=0;entryY=0.5;entryDx=0;entryDy=0;dashed=1;endArrow=classic;endFill=1;strokeColor=#000000;" parent="bUrMdA7n5FHhqxEgLlhN-1" source="-5ZHkERPT8IS8Fj27GrN-6" target="iC4LV4RyRgzttkUwgt-G-10" edge="1">
          <mxGeometry relative="1" as="geometry" />
        </mxCell>
        <mxCell id="-5ZHkERPT8IS8Fj27GrN-6" value="Se deconnecter" style="ellipse;whiteSpace=wrap;html=1;fillColor=#00CC00;" parent="bUrMdA7n5FHhqxEgLlhN-1" vertex="1">
          <mxGeometry x="68" y="170" width="180" height="40" as="geometry" />
        </mxCell>
        <mxCell id="iC4LV4RyRgzttkUwgt-G-32" value="&amp;lt;&amp;lt;include&amp;gt;&amp;gt;" style="edgeStyle=none;rounded=0;orthogonalLoop=1;jettySize=auto;html=1;exitX=1;exitY=0.5;exitDx=0;exitDy=0;dashed=1;endArrow=classic;endFill=1;strokeColor=#000000;" parent="bUrMdA7n5FHhqxEgLlhN-1" source="-5ZHkERPT8IS8Fj27GrN-7" edge="1">
          <mxGeometry relative="1" as="geometry">
            <mxPoint x="470" y="390" as="targetPoint" />
          </mxGeometry>
        </mxCell>
        <mxCell id="-5ZHkERPT8IS8Fj27GrN-7" value="Utiliser le messagerie" style="ellipse;whiteSpace=wrap;html=1;fillColor=#00CC00;" parent="bUrMdA7n5FHhqxEgLlhN-1" vertex="1">
          <mxGeometry x="68" y="270" width="180" height="40" as="geometry" />
        </mxCell>
        <mxCell id="iC4LV4RyRgzttkUwgt-G-33" value="&amp;lt;&amp;lt;include&amp;gt;&amp;gt;" style="edgeStyle=none;rounded=0;orthogonalLoop=1;jettySize=auto;html=1;exitX=1;exitY=0.5;exitDx=0;exitDy=0;dashed=1;endArrow=classic;endFill=1;strokeColor=#000000;" parent="bUrMdA7n5FHhqxEgLlhN-1" source="-5ZHkERPT8IS8Fj27GrN-8" edge="1">
          <mxGeometry relative="1" as="geometry">
            <mxPoint x="470" y="390" as="targetPoint" />
          </mxGeometry>
        </mxCell>
        <mxCell id="-5ZHkERPT8IS8Fj27GrN-8" value="Utiliser le chatbot" style="ellipse;whiteSpace=wrap;html=1;fillColor=#00CC00;" parent="bUrMdA7n5FHhqxEgLlhN-1" vertex="1">
          <mxGeometry x="68" y="320" width="180" height="40" as="geometry" />
        </mxCell>
        <mxCell id="iC4LV4RyRgzttkUwgt-G-29" value="&amp;lt;&amp;lt;extend&amp;gt;&amp;gt;" style="edgeStyle=none;rounded=0;orthogonalLoop=1;jettySize=auto;html=1;exitX=0.5;exitY=1;exitDx=0;exitDy=0;endArrow=classic;endFill=1;strokeColor=#000000;entryX=0.5;entryY=0;entryDx=0;entryDy=0;dashed=1;" parent="bUrMdA7n5FHhqxEgLlhN-1" source="-5ZHkERPT8IS8Fj27GrN-9" target="iC4LV4RyRgzttkUwgt-G-7" edge="1">
          <mxGeometry x="0.0357" relative="1" as="geometry">
            <mxPoint as="offset" />
          </mxGeometry>
        </mxCell>
        <mxCell id="iC4LV4RyRgzttkUwgt-G-34" value="&amp;lt;&amp;lt;include&amp;gt;&amp;gt;" style="edgeStyle=none;rounded=0;orthogonalLoop=1;jettySize=auto;html=1;exitX=1;exitY=0.5;exitDx=0;exitDy=0;entryX=0;entryY=0.5;entryDx=0;entryDy=0;dashed=1;endArrow=classic;endFill=1;strokeColor=#000000;" parent="bUrMdA7n5FHhqxEgLlhN-1" source="-5ZHkERPT8IS8Fj27GrN-9" target="iC4LV4RyRgzttkUwgt-G-10" edge="1">
          <mxGeometry relative="1" as="geometry" />
        </mxCell>
        <mxCell id="-5ZHkERPT8IS8Fj27GrN-9" value="Participer a des webinars" style="ellipse;whiteSpace=wrap;html=1;fillColor=#00CC00;" parent="bUrMdA7n5FHhqxEgLlhN-1" vertex="1">
          <mxGeometry x="180" y="370" width="180" height="40" as="geometry" />
        </mxCell>
        <mxCell id="iC4LV4RyRgzttkUwgt-G-35" value="&amp;lt;&amp;lt;include&amp;gt;&amp;gt;" style="edgeStyle=none;rounded=0;orthogonalLoop=1;jettySize=auto;html=1;exitX=1;exitY=0.5;exitDx=0;exitDy=0;dashed=1;endArrow=classic;endFill=1;strokeColor=#000000;" parent="bUrMdA7n5FHhqxEgLlhN-1" source="-5ZHkERPT8IS8Fj27GrN-11" edge="1">
          <mxGeometry relative="1" as="geometry">
            <mxPoint x="470" y="390" as="targetPoint" />
          </mxGeometry>
        </mxCell>
        <mxCell id="-5ZHkERPT8IS8Fj27GrN-11" value="Prendre des RDV" style="ellipse;whiteSpace=wrap;html=1;fillColor=#00CC00;" parent="bUrMdA7n5FHhqxEgLlhN-1" vertex="1">
          <mxGeometry x="68" y="420" width="180" height="40" as="geometry" />
        </mxCell>
        <mxCell id="iC4LV4RyRgzttkUwgt-G-36" value="&amp;lt;&amp;lt;include&amp;gt;&amp;gt;" style="edgeStyle=none;rounded=0;orthogonalLoop=1;jettySize=auto;html=1;exitX=1;exitY=0.5;exitDx=0;exitDy=0;dashed=1;endArrow=classic;endFill=1;strokeColor=#000000;" parent="bUrMdA7n5FHhqxEgLlhN-1" source="iC4LV4RyRgzttkUwgt-G-0" edge="1">
          <mxGeometry relative="1" as="geometry">
            <mxPoint x="470" y="390" as="targetPoint" />
          </mxGeometry>
        </mxCell>
        <mxCell id="iC4LV4RyRgzttkUwgt-G-0" value="Gerer son agenda" style="ellipse;whiteSpace=wrap;html=1;fillColor=#00CC00;" parent="bUrMdA7n5FHhqxEgLlhN-1" vertex="1">
          <mxGeometry x="68" y="470" width="180" height="40" as="geometry" />
        </mxCell>
        <mxCell id="iC4LV4RyRgzttkUwgt-G-38" value="&amp;lt;&amp;lt;include&amp;gt;&amp;gt;" style="edgeStyle=none;rounded=0;orthogonalLoop=1;jettySize=auto;html=1;exitX=1;exitY=0.5;exitDx=0;exitDy=0;dashed=1;endArrow=classic;endFill=1;strokeColor=#000000;" parent="bUrMdA7n5FHhqxEgLlhN-1" source="iC4LV4RyRgzttkUwgt-G-2" edge="1">
          <mxGeometry relative="1" as="geometry">
            <mxPoint x="470" y="390" as="targetPoint" />
          </mxGeometry>
        </mxCell>
        <mxCell id="iC4LV4RyRgzttkUwgt-G-2" value="Gerer ses disponibilitÃ©s" style="ellipse;whiteSpace=wrap;html=1;fillColor=#3399FF;" parent="bUrMdA7n5FHhqxEgLlhN-1" vertex="1">
          <mxGeometry x="68" y="610" width="180" height="40" as="geometry" />
        </mxCell>
        <mxCell id="iC4LV4RyRgzttkUwgt-G-37" value="&amp;lt;&amp;lt;include&amp;gt;&amp;gt;" style="edgeStyle=none;rounded=0;orthogonalLoop=1;jettySize=auto;html=1;exitX=1;exitY=0.5;exitDx=0;exitDy=0;entryX=0;entryY=0.5;entryDx=0;entryDy=0;dashed=1;endArrow=classic;endFill=1;strokeColor=#000000;" parent="bUrMdA7n5FHhqxEgLlhN-1" source="iC4LV4RyRgzttkUwgt-G-3" target="iC4LV4RyRgzttkUwgt-G-10" edge="1">
          <mxGeometry relative="1" as="geometry" />
        </mxCell>
        <mxCell id="iC4LV4RyRgzttkUwgt-G-3" value="Lire les comptes rendus" style="ellipse;whiteSpace=wrap;html=1;fillColor=#00CC00;" parent="bUrMdA7n5FHhqxEgLlhN-1" vertex="1">
          <mxGeometry x="68" y="520" width="180" height="40" as="geometry" />
        </mxCell>
        <mxCell id="iC4LV4RyRgzttkUwgt-G-39" value="&amp;lt;&amp;lt;include&amp;gt;&amp;gt;" style="edgeStyle=none;rounded=0;orthogonalLoop=1;jettySize=auto;html=1;exitX=1;exitY=0.5;exitDx=0;exitDy=0;dashed=1;endArrow=classic;endFill=1;strokeColor=#000000;" parent="bUrMdA7n5FHhqxEgLlhN-1" source="iC4LV4RyRgzttkUwgt-G-4" edge="1">
          <mxGeometry relative="1" as="geometry">
            <mxPoint x="470" y="390" as="targetPoint" />
          </mxGeometry>
        </mxCell>
        <mxCell id="iC4LV4RyRgzttkUwgt-G-4" value="Creer des comptes rendus" style="ellipse;whiteSpace=wrap;html=1;fillColor=#3399FF;" parent="bUrMdA7n5FHhqxEgLlhN-1" vertex="1">
          <mxGeometry x="68" y="660" width="180" height="40" as="geometry" />
        </mxCell>
        <mxCell id="iC4LV4RyRgzttkUwgt-G-41" value="&amp;lt;&amp;lt;include&amp;gt;&amp;gt;" style="edgeStyle=none;rounded=0;orthogonalLoop=1;jettySize=auto;html=1;exitX=1;exitY=0.5;exitDx=0;exitDy=0;dashed=1;endArrow=classic;endFill=1;strokeColor=#000000;" parent="bUrMdA7n5FHhqxEgLlhN-1" source="iC4LV4RyRgzttkUwgt-G-5" edge="1">
          <mxGeometry relative="1" as="geometry">
            <mxPoint x="470" y="390" as="targetPoint" />
          </mxGeometry>
        </mxCell>
        <mxCell id="iC4LV4RyRgzttkUwgt-G-5" value="Moderer les utilisateurs" style="ellipse;whiteSpace=wrap;html=1;fillColor=#FF9999;" parent="bUrMdA7n5FHhqxEgLlhN-1" vertex="1">
          <mxGeometry x="68" y="820" width="180" height="40" as="geometry" />
        </mxCell>
        <mxCell id="iC4LV4RyRgzttkUwgt-G-42" value="&amp;lt;&amp;lt;include&amp;gt;&amp;gt;" style="edgeStyle=none;rounded=0;orthogonalLoop=1;jettySize=auto;html=1;exitX=1;exitY=0.5;exitDx=0;exitDy=0;dashed=1;endArrow=classic;endFill=1;strokeColor=#000000;" parent="bUrMdA7n5FHhqxEgLlhN-1" source="iC4LV4RyRgzttkUwgt-G-6" edge="1">
          <mxGeometry relative="1" as="geometry">
            <mxPoint x="470" y="390" as="targetPoint" />
          </mxGeometry>
        </mxCell>
        <mxCell id="iC4LV4RyRgzttkUwgt-G-6" value="Creer des contenus" style="ellipse;whiteSpace=wrap;html=1;fillColor=#FF9999;" parent="bUrMdA7n5FHhqxEgLlhN-1" vertex="1">
          <mxGeometry x="68" y="870" width="180" height="40" as="geometry" />
        </mxCell>
        <mxCell id="iC4LV4RyRgzttkUwgt-G-44" value="&amp;lt;&amp;lt;include&amp;gt;&amp;gt;" style="edgeStyle=none;rounded=0;orthogonalLoop=1;jettySize=auto;html=1;exitX=1;exitY=0.5;exitDx=0;exitDy=0;dashed=1;endArrow=classic;endFill=1;strokeColor=#000000;" parent="bUrMdA7n5FHhqxEgLlhN-1" source="iC4LV4RyRgzttkUwgt-G-7" edge="1">
          <mxGeometry relative="1" as="geometry">
            <mxPoint x="470" y="390" as="targetPoint" />
          </mxGeometry>
        </mxCell>
        <mxCell id="iC4LV4RyRgzttkUwgt-G-7" value="Creer des webinars" style="ellipse;whiteSpace=wrap;html=1;fillColor=#FF9999;" parent="bUrMdA7n5FHhqxEgLlhN-1" vertex="1">
          <mxGeometry x="180" y="970" width="180" height="40" as="geometry" />
        </mxCell>
        <mxCell id="iC4LV4RyRgzttkUwgt-G-43" value="&amp;lt;&amp;lt;include&amp;gt;&amp;gt;" style="edgeStyle=none;rounded=0;orthogonalLoop=1;jettySize=auto;html=1;exitX=1;exitY=0.5;exitDx=0;exitDy=0;dashed=1;endArrow=classic;endFill=1;strokeColor=#000000;" parent="bUrMdA7n5FHhqxEgLlhN-1" source="iC4LV4RyRgzttkUwgt-G-8" edge="1">
          <mxGeometry relative="1" as="geometry">
            <mxPoint x="470" y="390" as="targetPoint" />
          </mxGeometry>
        </mxCell>
        <mxCell id="iC4LV4RyRgzttkUwgt-G-8" value="Moderer des contenus" style="ellipse;whiteSpace=wrap;html=1;fillColor=#FF9999;" parent="bUrMdA7n5FHhqxEgLlhN-1" vertex="1">
          <mxGeometry x="68" y="920" width="180" height="40" as="geometry" />
        </mxCell>
        <mxCell id="iC4LV4RyRgzttkUwgt-G-40" value="&amp;lt;&amp;lt;include&amp;gt;&amp;gt;" style="edgeStyle=none;rounded=0;orthogonalLoop=1;jettySize=auto;html=1;exitX=1;exitY=0.5;exitDx=0;exitDy=0;dashed=1;endArrow=classic;endFill=1;strokeColor=#000000;" parent="bUrMdA7n5FHhqxEgLlhN-1" source="iC4LV4RyRgzttkUwgt-G-9" edge="1">
          <mxGeometry relative="1" as="geometry">
            <mxPoint x="470" y="390" as="targetPoint" />
          </mxGeometry>
        </mxCell>
        <mxCell id="iC4LV4RyRgzttkUwgt-G-9" value="Creer des utilisateurs" style="ellipse;whiteSpace=wrap;html=1;fillColor=#FF9999;" parent="bUrMdA7n5FHhqxEgLlhN-1" vertex="1">
          <mxGeometry x="68" y="770" width="180" height="40" as="geometry" />
        </mxCell>
        <mxCell id="iC4LV4RyRgzttkUwgt-G-10" value="Se connecter" style="ellipse;whiteSpace=wrap;html=1;fillColor=#00CC00;" parent="bUrMdA7n5FHhqxEgLlhN-1" vertex="1">
          <mxGeometry x="470" y="370" width="180" height="40" as="geometry" />
        </mxCell>
        <mxCell id="iC4LV4RyRgzttkUwgt-G-46" value="&amp;lt;&amp;lt;include&amp;gt;&amp;gt;" style="edgeStyle=none;rounded=0;orthogonalLoop=1;jettySize=auto;html=1;exitX=1;exitY=0.5;exitDx=0;exitDy=0;entryX=0;entryY=0.5;entryDx=0;entryDy=0;dashed=1;endArrow=classic;endFill=1;strokeColor=#000000;" parent="bUrMdA7n5FHhqxEgLlhN-1" source="iC4LV4RyRgzttkUwgt-G-11" target="iC4LV4RyRgzttkUwgt-G-10" edge="1">
          <mxGeometry relative="1" as="geometry" />
        </mxCell>
        <mxCell id="iC4LV4RyRgzttkUwgt-G-11" value="Moderer des webinars" style="ellipse;whiteSpace=wrap;html=1;fillColor=#FF9999;" parent="bUrMdA7n5FHhqxEgLlhN-1" vertex="1">
          <mxGeometry x="240" y="1020" width="180" height="40" as="geometry" />
        </mxCell>
        <mxCell id="iC4LV4RyRgzttkUwgt-G-48" style="edgeStyle=none;rounded=0;orthogonalLoop=1;jettySize=auto;html=1;endArrow=block;endFill=0;strokeColor=#000000;jumpSize=6;strokeWidth=2;" parent="bUrMdA7n5FHhqxEgLlhN-1" edge="1">
          <mxGeometry relative="1" as="geometry">
            <mxPoint x="-115.59" y="600" as="sourcePoint" />
            <mxPoint x="-115.59" y="440" as="targetPoint" />
          </mxGeometry>
        </mxCell>
        <mxCell id="iC4LV4RyRgzttkUwgt-G-49" style="edgeStyle=none;rounded=0;orthogonalLoop=1;jettySize=auto;html=1;endArrow=block;endFill=0;strokeColor=#000000;jumpSize=6;strokeWidth=2;" parent="bUrMdA7n5FHhqxEgLlhN-1" edge="1">
          <mxGeometry relative="1" as="geometry">
            <mxPoint x="-116" y="330" as="sourcePoint" />
            <mxPoint x="-116" y="150" as="targetPoint" />
          </mxGeometry>
        </mxCell>
        <mxCell id="iC4LV4RyRgzttkUwgt-G-50" value="ALMO POC" style="text;html=1;strokeColor=none;fillColor=none;align=center;verticalAlign=middle;whiteSpace=wrap;rounded=0;fontSize=25;fontStyle=1" parent="bUrMdA7n5FHhqxEgLlhN-1" vertex="1">
          <mxGeometry x="225" y="-30" width="210" height="20" as="geometry" />
        </mxCell>
        <mxCell id="CiIjxCVcEMO0pBsdQCXv-0" value="Lire des contenus" style="ellipse;whiteSpace=wrap;html=1;fillColor=#00CC00;" parent="bUrMdA7n5FHhqxEgLlhN-1" vertex="1">
          <mxGeometry x="68" y="220" width="180" height="40" as="geometry" />
        </mxCell>
        <mxCell id="CiIjxCVcEMO0pBsdQCXv-2" style="edgeStyle=none;rounded=0;orthogonalLoop=1;jettySize=auto;html=1;exitX=1;exitY=0.3333333333333333;exitDx=0;exitDy=0;exitPerimeter=0;entryX=0;entryY=0.5;entryDx=0;entryDy=0;endArrow=none;endFill=0;strokeColor=#000000;" parent="bUrMdA7n5FHhqxEgLlhN-1" source="-5ZHkERPT8IS8Fj27GrN-0" target="CiIjxCVcEMO0pBsdQCXv-0" edge="1">
          <mxGeometry relative="1" as="geometry">
            <mxPoint x="-90" y="370" as="sourcePoint" />
            <mxPoint x="77.99999999999977" y="200" as="targetPoint" />
          </mxGeometry>
        </mxCell>
        <mxCell id="CiIjxCVcEMO0pBsdQCXv-3" value="&amp;lt;&amp;lt;include&amp;gt;&amp;gt;" style="edgeStyle=none;rounded=0;orthogonalLoop=1;jettySize=auto;html=1;exitX=1;exitY=0.5;exitDx=0;exitDy=0;dashed=1;endArrow=classic;endFill=1;strokeColor=#000000;" parent="bUrMdA7n5FHhqxEgLlhN-1" edge="1">
          <mxGeometry relative="1" as="geometry">
            <mxPoint x="470" y="390" as="targetPoint" />
            <mxPoint x="247.99999999999977" y="240" as="sourcePoint" />
          </mxGeometry>
        </mxCell>
        <mxCell id="fjMtDQH511qDba4dKUeY-0" value="TEST PRAS" style="text;html=1;strokeColor=none;fillColor=none;align=center;verticalAlign=middle;whiteSpace=wrap;rounded=0;" vertex="1" parent="bUrMdA7n5FHhqxEgLlhN-1">
          <mxGeometry x="770" y="92" width="40" height="20" as="geometry" />
        </mxCell>
      </root>
    </mxGraphModel>
  </diagram>
  <diagram id="b0wGkbM_DOANzdkt1uoe" name="User Stories Patient">
    <mxGraphModel dx="2073" dy="967" grid="1" gridSize="10" guides="1" tooltips="1" connect="1" arrows="1" fold="1" page="0" pageScale="1" pageWidth="827" pageHeight="1169" math="0" shadow="0">
      <root>
        <mxCell id="XHs3W7YH9HhNojSXZ5Bb-0" />
        <mxCell id="XHs3W7YH9HhNojSXZ5Bb-1" parent="XHs3W7YH9HhNojSXZ5Bb-0" />
        <mxCell id="ETa5UFbbtS68yGUkU3Vs-0" value="" style="endArrow=classic;html=1;strokeWidth=3;" parent="XHs3W7YH9HhNojSXZ5Bb-1" edge="1">
          <mxGeometry width="50" height="50" relative="1" as="geometry">
            <mxPoint x="-40" y="200" as="sourcePoint" />
            <mxPoint x="-40" y="960" as="targetPoint" />
          </mxGeometry>
        </mxCell>
        <mxCell id="ETa5UFbbtS68yGUkU3Vs-1" value="" style="endArrow=classic;html=1;strokeWidth=3;" parent="XHs3W7YH9HhNojSXZ5Bb-1" edge="1">
          <mxGeometry width="50" height="50" relative="1" as="geometry">
            <mxPoint x="-40" y="200" as="sourcePoint" />
            <mxPoint x="1600" y="200" as="targetPoint" />
          </mxGeometry>
        </mxCell>
        <mxCell id="ETa5UFbbtS68yGUkU3Vs-2" value="" style="endArrow=none;dashed=1;html=1;fillColor=#f8cecc;strokeColor=#b85450;strokeWidth=3;" parent="XHs3W7YH9HhNojSXZ5Bb-1" edge="1">
          <mxGeometry width="50" height="50" relative="1" as="geometry">
            <mxPoint x="-40" y="320" as="sourcePoint" />
            <mxPoint x="1600" y="320" as="targetPoint" />
          </mxGeometry>
        </mxCell>
        <mxCell id="ETa5UFbbtS68yGUkU3Vs-3" value="" style="endArrow=none;dashed=1;html=1;fillColor=#f8cecc;strokeColor=#b85450;strokeWidth=3;" parent="XHs3W7YH9HhNojSXZ5Bb-1" edge="1">
          <mxGeometry width="50" height="50" relative="1" as="geometry">
            <mxPoint x="-40" y="440" as="sourcePoint" />
            <mxPoint x="1600" y="440" as="targetPoint" />
          </mxGeometry>
        </mxCell>
        <mxCell id="ETa5UFbbtS68yGUkU3Vs-4" value="S&#39;informer sur l&#39;app" style="rounded=0;whiteSpace=wrap;html=1;fillColor=#dae8fc;strokeColor=#6c8ebf;fontStyle=1;fontSize=16;" parent="XHs3W7YH9HhNojSXZ5Bb-1" vertex="1">
          <mxGeometry y="230" width="120" height="60" as="geometry" />
        </mxCell>
        <mxCell id="ETa5UFbbtS68yGUkU3Vs-5" value="S&#39;informer sur ses besoins" style="rounded=0;whiteSpace=wrap;html=1;fillColor=#dae8fc;strokeColor=#6c8ebf;fontStyle=1;fontSize=16;" parent="XHs3W7YH9HhNojSXZ5Bb-1" vertex="1">
          <mxGeometry x="350" y="230" width="120" height="60" as="geometry" />
        </mxCell>
        <mxCell id="ETa5UFbbtS68yGUkU3Vs-6" value="Discuter avec un coach" style="rounded=0;whiteSpace=wrap;html=1;fillColor=#dae8fc;strokeColor=#6c8ebf;fontStyle=1;fontSize=16;" parent="XHs3W7YH9HhNojSXZ5Bb-1" vertex="1">
          <mxGeometry x="960" y="230" width="120" height="60" as="geometry" />
        </mxCell>
        <mxCell id="ETa5UFbbtS68yGUkU3Vs-8" value="Lire la documentation sur l&#39;app" style="rounded=0;whiteSpace=wrap;html=1;fillColor=#f8cecc;strokeColor=#b85450;fontStyle=1;fontSize=16;" parent="XHs3W7YH9HhNojSXZ5Bb-1" vertex="1">
          <mxGeometry y="340" width="120" height="60" as="geometry" />
        </mxCell>
        <mxCell id="ETa5UFbbtS68yGUkU3Vs-9" value="Poser des questions au chatbot" style="rounded=0;whiteSpace=wrap;html=1;fillColor=#f8cecc;strokeColor=#b85450;fontStyle=1;fontSize=16;" parent="XHs3W7YH9HhNojSXZ5Bb-1" vertex="1">
          <mxGeometry x="660" y="340" width="120" height="60" as="geometry" />
        </mxCell>
        <mxCell id="ETa5UFbbtS68yGUkU3Vs-10" value="Lire des articles" style="rounded=0;whiteSpace=wrap;html=1;fillColor=#f8cecc;strokeColor=#b85450;fontStyle=1;fontSize=16;" parent="XHs3W7YH9HhNojSXZ5Bb-1" vertex="1">
          <mxGeometry x="350" y="340" width="120" height="60" as="geometry" />
        </mxCell>
        <mxCell id="ETa5UFbbtS68yGUkU3Vs-11" value="Lire des documents" style="rounded=0;whiteSpace=wrap;html=1;fillColor=#f8cecc;strokeColor=#b85450;fontStyle=1;fontSize=16;" parent="XHs3W7YH9HhNojSXZ5Bb-1" vertex="1">
          <mxGeometry x="510" y="340" width="120" height="60" as="geometry" />
        </mxCell>
        <mxCell id="ETa5UFbbtS68yGUkU3Vs-12" value="Poser des questions au coach" style="rounded=0;whiteSpace=wrap;html=1;fillColor=#f8cecc;strokeColor=#b85450;fontStyle=1;fontSize=16;" parent="XHs3W7YH9HhNojSXZ5Bb-1" vertex="1">
          <mxGeometry x="960" y="340" width="120" height="60" as="geometry" />
        </mxCell>
        <mxCell id="ETa5UFbbtS68yGUkU3Vs-13" value="Epingler dans ses favoris" style="rounded=0;whiteSpace=wrap;html=1;fillColor=#fff2cc;strokeColor=#d6b656;fontStyle=1;fontSize=12;" parent="XHs3W7YH9HhNojSXZ5Bb-1" vertex="1">
          <mxGeometry y="810" width="120" height="60" as="geometry" />
        </mxCell>
        <mxCell id="ETa5UFbbtS68yGUkU3Vs-14" value="Avoir des reponses" style="rounded=0;whiteSpace=wrap;html=1;fillColor=#fff2cc;strokeColor=#d6b656;fontStyle=1;fontSize=12;" parent="XHs3W7YH9HhNojSXZ5Bb-1" vertex="1">
          <mxGeometry x="660" y="460" width="120" height="60" as="geometry" />
        </mxCell>
        <mxCell id="ETa5UFbbtS68yGUkU3Vs-18" value="Avoir des reponses" style="rounded=0;whiteSpace=wrap;html=1;fillColor=#fff2cc;strokeColor=#d6b656;fontStyle=1;fontSize=12;" parent="XHs3W7YH9HhNojSXZ5Bb-1" vertex="1">
          <mxGeometry x="960" y="460" width="120" height="60" as="geometry" />
        </mxCell>
        <mxCell id="ETa5UFbbtS68yGUkU3Vs-21" value="" style="endArrow=none;dashed=1;html=1;fillColor=#f8cecc;strokeColor=#b85450;strokeWidth=3;" parent="XHs3W7YH9HhNojSXZ5Bb-1" edge="1">
          <mxGeometry width="50" height="50" relative="1" as="geometry">
            <mxPoint x="-40" y="780" as="sourcePoint" />
            <mxPoint x="1600" y="780" as="targetPoint" />
          </mxGeometry>
        </mxCell>
        <mxCell id="ETa5UFbbtS68yGUkU3Vs-30" value="Prendre des RDV avec des praticiens" style="rounded=0;whiteSpace=wrap;html=1;fillColor=#f8cecc;strokeColor=#b85450;fontStyle=1;fontSize=16;" parent="XHs3W7YH9HhNojSXZ5Bb-1" vertex="1">
          <mxGeometry x="1120" y="340" width="120" height="60" as="geometry" />
        </mxCell>
        <mxCell id="ETa5UFbbtS68yGUkU3Vs-31" value="Acceder Ã  la liste des disponilibitÃ©s" style="rounded=0;whiteSpace=wrap;html=1;fillColor=#fff2cc;strokeColor=#d6b656;fontStyle=1;fontSize=12;" parent="XHs3W7YH9HhNojSXZ5Bb-1" vertex="1">
          <mxGeometry x="1120" y="460" width="120" height="60" as="geometry" />
        </mxCell>
        <mxCell id="ETa5UFbbtS68yGUkU3Vs-32" value="Reserver dans son agenda" style="rounded=0;whiteSpace=wrap;html=1;fillColor=#fff2cc;strokeColor=#d6b656;fontStyle=1;fontSize=12;" parent="XHs3W7YH9HhNojSXZ5Bb-1" vertex="1">
          <mxGeometry x="1120" y="540" width="120" height="60" as="geometry" />
        </mxCell>
        <mxCell id="ETa5UFbbtS68yGUkU3Vs-36" value="Temps" style="text;html=1;strokeColor=none;fillColor=none;align=center;verticalAlign=middle;whiteSpace=wrap;rounded=0;fontSize=19;fontStyle=1" parent="XHs3W7YH9HhNojSXZ5Bb-1" vertex="1">
          <mxGeometry x="1540" y="170" width="40" height="20" as="geometry" />
        </mxCell>
        <mxCell id="ETa5UFbbtS68yGUkU3Vs-37" value="PrioritÃ©" style="text;html=1;strokeColor=none;fillColor=none;align=center;verticalAlign=middle;whiteSpace=wrap;rounded=0;fontSize=19;fontStyle=1" parent="XHs3W7YH9HhNojSXZ5Bb-1" vertex="1">
          <mxGeometry x="-130" y="930" width="80" height="20" as="geometry" />
        </mxCell>
        <mxCell id="ETa5UFbbtS68yGUkU3Vs-38" value="Epics" style="text;html=1;strokeColor=none;fillColor=none;align=center;verticalAlign=middle;whiteSpace=wrap;rounded=0;fontSize=19;fontStyle=1" parent="XHs3W7YH9HhNojSXZ5Bb-1" vertex="1">
          <mxGeometry x="1540" y="250" width="60" height="20" as="geometry" />
        </mxCell>
        <mxCell id="ETa5UFbbtS68yGUkU3Vs-39" value="Features" style="text;html=1;strokeColor=none;fillColor=none;align=center;verticalAlign=middle;whiteSpace=wrap;rounded=0;fontSize=19;fontStyle=1" parent="XHs3W7YH9HhNojSXZ5Bb-1" vertex="1">
          <mxGeometry x="1540" y="360" width="90" height="20" as="geometry" />
        </mxCell>
        <mxCell id="ETa5UFbbtS68yGUkU3Vs-40" value="POC" style="text;html=1;strokeColor=none;fillColor=none;align=center;verticalAlign=middle;whiteSpace=wrap;rounded=0;fontSize=19;fontStyle=1" parent="XHs3W7YH9HhNojSXZ5Bb-1" vertex="1">
          <mxGeometry x="1540" y="570" width="70" height="20" as="geometry" />
        </mxCell>
        <mxCell id="ETa5UFbbtS68yGUkU3Vs-41" value="V2" style="text;html=1;strokeColor=none;fillColor=none;align=center;verticalAlign=middle;whiteSpace=wrap;rounded=0;fontSize=19;fontStyle=1" parent="XHs3W7YH9HhNojSXZ5Bb-1" vertex="1">
          <mxGeometry x="1550" y="880" width="50" height="20" as="geometry" />
        </mxCell>
        <mxCell id="WopCS6d1sRFFqhZrPHPm-0" value="Avoir du support" style="rounded=0;whiteSpace=wrap;html=1;fillColor=#dae8fc;strokeColor=#6c8ebf;fontStyle=1;fontSize=16;" parent="XHs3W7YH9HhNojSXZ5Bb-1" vertex="1">
          <mxGeometry x="1280" y="230" width="120" height="60" as="geometry" />
        </mxCell>
        <mxCell id="WopCS6d1sRFFqhZrPHPm-1" value="Contacter le support" style="rounded=0;whiteSpace=wrap;html=1;fillColor=#f8cecc;strokeColor=#b85450;fontStyle=1;fontSize=16;" parent="XHs3W7YH9HhNojSXZ5Bb-1" vertex="1">
          <mxGeometry x="1280" y="340" width="120" height="60" as="geometry" />
        </mxCell>
        <mxCell id="WopCS6d1sRFFqhZrPHPm-2" value="Avoir des reponses" style="rounded=0;whiteSpace=wrap;html=1;fillColor=#fff2cc;strokeColor=#d6b656;fontStyle=1;fontSize=12;" parent="XHs3W7YH9HhNojSXZ5Bb-1" vertex="1">
          <mxGeometry x="1280" y="460" width="120" height="60" as="geometry" />
        </mxCell>
        <mxCell id="2V1C90ZuUKVJEEh1cNxE-0" value="Creer son compte" style="rounded=0;whiteSpace=wrap;html=1;fillColor=#dae8fc;strokeColor=#6c8ebf;fontStyle=1;fontSize=16;" vertex="1" parent="XHs3W7YH9HhNojSXZ5Bb-1">
          <mxGeometry x="180" y="230" width="120" height="60" as="geometry" />
        </mxCell>
        <mxCell id="2V1C90ZuUKVJEEh1cNxE-1" value="Acceder Ã  son dashboard" style="rounded=0;whiteSpace=wrap;html=1;fillColor=#f8cecc;strokeColor=#b85450;fontStyle=1;fontSize=16;" vertex="1" parent="XHs3W7YH9HhNojSXZ5Bb-1">
          <mxGeometry x="180" y="340" width="120" height="60" as="geometry" />
        </mxCell>
        <mxCell id="2V1C90ZuUKVJEEh1cNxE-2" value="Choisir son hopital affiliÃ©" style="rounded=0;whiteSpace=wrap;html=1;fillColor=#fff2cc;strokeColor=#d6b656;fontStyle=1;fontSize=12;" vertex="1" parent="XHs3W7YH9HhNojSXZ5Bb-1">
          <mxGeometry x="180" y="460" width="120" height="60" as="geometry" />
        </mxCell>
        <mxCell id="2V1C90ZuUKVJEEh1cNxE-3" value="Choisir son medecin" style="rounded=0;whiteSpace=wrap;html=1;fillColor=#fff2cc;strokeColor=#d6b656;fontStyle=1;fontSize=12;" vertex="1" parent="XHs3W7YH9HhNojSXZ5Bb-1">
          <mxGeometry x="180" y="550" width="120" height="60" as="geometry" />
        </mxCell>
        <mxCell id="2V1C90ZuUKVJEEh1cNxE-4" value="Avoir des propositions de webinars" style="rounded=0;whiteSpace=wrap;html=1;fillColor=#f8cecc;strokeColor=#b85450;fontStyle=1;fontSize=16;" vertex="1" parent="XHs3W7YH9HhNojSXZ5Bb-1">
          <mxGeometry x="810" y="340" width="120" height="60" as="geometry" />
        </mxCell>
        <mxCell id="2V1C90ZuUKVJEEh1cNxE-5" value="Poser des questions / place reserver automatiquement" style="rounded=0;whiteSpace=wrap;html=1;fillColor=#fff2cc;strokeColor=#d6b656;fontStyle=1;fontSize=12;" vertex="1" parent="XHs3W7YH9HhNojSXZ5Bb-1">
          <mxGeometry x="810" y="460" width="120" height="60" as="geometry" />
        </mxCell>
        <mxCell id="2V1C90ZuUKVJEEh1cNxE-6" value="Rerserver une place sans poser de questions" style="rounded=0;whiteSpace=wrap;html=1;fillColor=#fff2cc;strokeColor=#d6b656;fontStyle=1;fontSize=12;" vertex="1" parent="XHs3W7YH9HhNojSXZ5Bb-1">
          <mxGeometry x="810" y="540" width="120" height="60" as="geometry" />
        </mxCell>
        <mxCell id="2V1C90ZuUKVJEEh1cNxE-7" value="Assister aux webinars" style="rounded=0;whiteSpace=wrap;html=1;fillColor=#fff2cc;strokeColor=#d6b656;fontStyle=1;fontSize=12;" vertex="1" parent="XHs3W7YH9HhNojSXZ5Bb-1">
          <mxGeometry x="810" y="620" width="120" height="60" as="geometry" />
        </mxCell>
        <mxCell id="2V1C90ZuUKVJEEh1cNxE-8" value="Revoir des webinars" style="rounded=0;whiteSpace=wrap;html=1;fillColor=#fff2cc;strokeColor=#d6b656;fontStyle=1;fontSize=12;" vertex="1" parent="XHs3W7YH9HhNojSXZ5Bb-1">
          <mxGeometry x="810" y="700" width="120" height="60" as="geometry" />
        </mxCell>
        <mxCell id="2V1C90ZuUKVJEEh1cNxE-9" value="Gerer de son agenda" style="rounded=0;whiteSpace=wrap;html=1;fillColor=#fff2cc;strokeColor=#d6b656;fontStyle=1;fontSize=12;" vertex="1" parent="XHs3W7YH9HhNojSXZ5Bb-1">
          <mxGeometry x="180" y="630" width="120" height="60" as="geometry" />
        </mxCell>
        <mxCell id="2V1C90ZuUKVJEEh1cNxE-10" value="Avoir le lien Meet" style="rounded=0;whiteSpace=wrap;html=1;fillColor=#fff2cc;strokeColor=#d6b656;fontStyle=1;fontSize=12;" vertex="1" parent="XHs3W7YH9HhNojSXZ5Bb-1">
          <mxGeometry x="1120" y="620" width="120" height="60" as="geometry" />
        </mxCell>
        <mxCell id="2V1C90ZuUKVJEEh1cNxE-11" value="Avoir un compte rendu de la consulation" style="rounded=0;whiteSpace=wrap;html=1;fillColor=#fff2cc;strokeColor=#d6b656;fontStyle=1;fontSize=12;" vertex="1" parent="XHs3W7YH9HhNojSXZ5Bb-1">
          <mxGeometry x="1120" y="700" width="120" height="60" as="geometry" />
        </mxCell>
        <mxCell id="2V1C90ZuUKVJEEh1cNxE-12" value="Voir ses comptes rendus" style="rounded=0;whiteSpace=wrap;html=1;fillColor=#fff2cc;strokeColor=#d6b656;fontStyle=1;fontSize=12;" vertex="1" parent="XHs3W7YH9HhNojSXZ5Bb-1">
          <mxGeometry x="180" y="700" width="120" height="60" as="geometry" />
        </mxCell>
        <mxCell id="bKcdnKU9H9bUhaqDc4Xw-2" value="Epingler dans ses favoris" style="rounded=0;whiteSpace=wrap;html=1;fillColor=#fff2cc;strokeColor=#d6b656;fontStyle=1;fontSize=12;" vertex="1" parent="XHs3W7YH9HhNojSXZ5Bb-1">
          <mxGeometry x="350" y="810" width="120" height="60" as="geometry" />
        </mxCell>
        <mxCell id="bKcdnKU9H9bUhaqDc4Xw-3" value="Epingler dans ses favoris" style="rounded=0;whiteSpace=wrap;html=1;fillColor=#fff2cc;strokeColor=#d6b656;fontStyle=1;fontSize=12;" vertex="1" parent="XHs3W7YH9HhNojSXZ5Bb-1">
          <mxGeometry x="510" y="810" width="120" height="60" as="geometry" />
        </mxCell>
        <mxCell id="bKcdnKU9H9bUhaqDc4Xw-4" value="Epingler dans ses favoris" style="rounded=0;whiteSpace=wrap;html=1;fillColor=#fff2cc;strokeColor=#d6b656;fontStyle=1;fontSize=12;" vertex="1" parent="XHs3W7YH9HhNojSXZ5Bb-1">
          <mxGeometry x="660" y="810" width="120" height="60" as="geometry" />
        </mxCell>
        <mxCell id="bKcdnKU9H9bUhaqDc4Xw-5" value="Epingler dans ses favoris" style="rounded=0;whiteSpace=wrap;html=1;fillColor=#fff2cc;strokeColor=#d6b656;fontStyle=1;fontSize=12;" vertex="1" parent="XHs3W7YH9HhNojSXZ5Bb-1">
          <mxGeometry x="810" y="810" width="120" height="60" as="geometry" />
        </mxCell>
      </root>
    </mxGraphModel>
  </diagram>
  <diagram id="djKUm9APK9gjLKXhQgin" name="User Stories Practitioner">
    <mxGraphModel dx="2073" dy="967" grid="1" gridSize="10" guides="1" tooltips="1" connect="1" arrows="1" fold="1" page="0" pageScale="1" pageWidth="827" pageHeight="1169" math="0" shadow="0">
      <root>
        <mxCell id="YHR2w4tiDZPrrYPtHx2d-0" />
        <mxCell id="YHR2w4tiDZPrrYPtHx2d-1" parent="YHR2w4tiDZPrrYPtHx2d-0" />
        <mxCell id="oDBM9ih88gaviFgWlMIV-0" value="" style="endArrow=classic;html=1;strokeWidth=3;" parent="YHR2w4tiDZPrrYPtHx2d-1" edge="1">
          <mxGeometry width="50" height="50" relative="1" as="geometry">
            <mxPoint x="-40" y="200" as="sourcePoint" />
            <mxPoint x="-40" y="960" as="targetPoint" />
          </mxGeometry>
        </mxCell>
        <mxCell id="oDBM9ih88gaviFgWlMIV-1" value="" style="endArrow=classic;html=1;strokeWidth=3;" parent="YHR2w4tiDZPrrYPtHx2d-1" edge="1">
          <mxGeometry width="50" height="50" relative="1" as="geometry">
            <mxPoint x="-40" y="200" as="sourcePoint" />
            <mxPoint x="720" y="200" as="targetPoint" />
          </mxGeometry>
        </mxCell>
        <mxCell id="oDBM9ih88gaviFgWlMIV-2" value="" style="endArrow=none;dashed=1;html=1;fillColor=#f8cecc;strokeColor=#b85450;strokeWidth=3;" parent="YHR2w4tiDZPrrYPtHx2d-1" edge="1">
          <mxGeometry width="50" height="50" relative="1" as="geometry">
            <mxPoint x="-40" y="320" as="sourcePoint" />
            <mxPoint x="720" y="320" as="targetPoint" />
          </mxGeometry>
        </mxCell>
        <mxCell id="oDBM9ih88gaviFgWlMIV-3" value="" style="endArrow=none;dashed=1;html=1;fillColor=#f8cecc;strokeColor=#b85450;strokeWidth=3;" parent="YHR2w4tiDZPrrYPtHx2d-1" edge="1">
          <mxGeometry width="50" height="50" relative="1" as="geometry">
            <mxPoint x="-40" y="440" as="sourcePoint" />
            <mxPoint x="720" y="440" as="targetPoint" />
          </mxGeometry>
        </mxCell>
        <mxCell id="oDBM9ih88gaviFgWlMIV-6" value="Discuter avec un patient" style="rounded=0;whiteSpace=wrap;html=1;fillColor=#dae8fc;strokeColor=#6c8ebf;fontStyle=1;fontSize=16;" parent="YHR2w4tiDZPrrYPtHx2d-1" vertex="1">
          <mxGeometry x="190" y="225" width="120" height="60" as="geometry" />
        </mxCell>
        <mxCell id="oDBM9ih88gaviFgWlMIV-12" value="Discuter avec le patient" style="rounded=0;whiteSpace=wrap;html=1;fillColor=#f8cecc;strokeColor=#b85450;fontStyle=1;fontSize=16;" parent="YHR2w4tiDZPrrYPtHx2d-1" vertex="1">
          <mxGeometry x="190" y="335" width="120" height="60" as="geometry" />
        </mxCell>
        <mxCell id="oDBM9ih88gaviFgWlMIV-18" value="Avoir des reponses" style="rounded=0;whiteSpace=wrap;html=1;fillColor=#fff2cc;strokeColor=#d6b656;fontStyle=1;fontSize=12;" parent="YHR2w4tiDZPrrYPtHx2d-1" vertex="1">
          <mxGeometry x="190" y="460" width="120" height="60" as="geometry" />
        </mxCell>
        <mxCell id="oDBM9ih88gaviFgWlMIV-21" value="" style="endArrow=none;dashed=1;html=1;fillColor=#f8cecc;strokeColor=#b85450;strokeWidth=3;" parent="YHR2w4tiDZPrrYPtHx2d-1" edge="1">
          <mxGeometry width="50" height="50" relative="1" as="geometry">
            <mxPoint x="-40" y="860" as="sourcePoint" />
            <mxPoint x="720" y="860" as="targetPoint" />
          </mxGeometry>
        </mxCell>
        <mxCell id="oDBM9ih88gaviFgWlMIV-36" value="Temps" style="text;html=1;strokeColor=none;fillColor=none;align=center;verticalAlign=middle;whiteSpace=wrap;rounded=0;fontSize=19;fontStyle=1" parent="YHR2w4tiDZPrrYPtHx2d-1" vertex="1">
          <mxGeometry x="600" y="170" width="80" height="20" as="geometry" />
        </mxCell>
        <mxCell id="oDBM9ih88gaviFgWlMIV-37" value="PrioritÃ©" style="text;html=1;strokeColor=none;fillColor=none;align=center;verticalAlign=middle;whiteSpace=wrap;rounded=0;fontSize=19;fontStyle=1" parent="YHR2w4tiDZPrrYPtHx2d-1" vertex="1">
          <mxGeometry x="-100" y="940" width="40" height="20" as="geometry" />
        </mxCell>
        <mxCell id="oDBM9ih88gaviFgWlMIV-38" value="Epics" style="text;html=1;strokeColor=none;fillColor=none;align=center;verticalAlign=middle;whiteSpace=wrap;rounded=0;fontSize=19;fontStyle=1" parent="YHR2w4tiDZPrrYPtHx2d-1" vertex="1">
          <mxGeometry x="590" y="245" width="80" height="20" as="geometry" />
        </mxCell>
        <mxCell id="oDBM9ih88gaviFgWlMIV-39" value="Features" style="text;html=1;strokeColor=none;fillColor=none;align=center;verticalAlign=middle;whiteSpace=wrap;rounded=0;fontSize=19;fontStyle=1" parent="YHR2w4tiDZPrrYPtHx2d-1" vertex="1">
          <mxGeometry x="590" y="355" width="90" height="20" as="geometry" />
        </mxCell>
        <mxCell id="oDBM9ih88gaviFgWlMIV-40" value="POC" style="text;html=1;strokeColor=none;fillColor=none;align=center;verticalAlign=middle;whiteSpace=wrap;rounded=0;fontSize=19;fontStyle=1" parent="YHR2w4tiDZPrrYPtHx2d-1" vertex="1">
          <mxGeometry x="600" y="610" width="40" height="20" as="geometry" />
        </mxCell>
        <mxCell id="oDBM9ih88gaviFgWlMIV-41" value="V2" style="text;html=1;strokeColor=none;fillColor=none;align=center;verticalAlign=middle;whiteSpace=wrap;rounded=0;fontSize=19;fontStyle=1" parent="YHR2w4tiDZPrrYPtHx2d-1" vertex="1">
          <mxGeometry x="600" y="900" width="40" height="20" as="geometry" />
        </mxCell>
        <mxCell id="oDBM9ih88gaviFgWlMIV-44" value="Voir ses patients" style="rounded=0;whiteSpace=wrap;html=1;fillColor=#fff2cc;strokeColor=#d6b656;fontStyle=1;fontSize=12;" parent="YHR2w4tiDZPrrYPtHx2d-1" vertex="1">
          <mxGeometry y="550" width="120" height="60" as="geometry" />
        </mxCell>
        <mxCell id="oDBM9ih88gaviFgWlMIV-46" value="Gerer son profil" style="rounded=0;whiteSpace=wrap;html=1;fillColor=#fff2cc;strokeColor=#d6b656;fontStyle=1;fontSize=12;" parent="YHR2w4tiDZPrrYPtHx2d-1" vertex="1">
          <mxGeometry y="460" width="120" height="60" as="geometry" />
        </mxCell>
        <mxCell id="oDBM9ih88gaviFgWlMIV-47" value="Avoir du support" style="rounded=0;whiteSpace=wrap;html=1;fillColor=#dae8fc;strokeColor=#6c8ebf;fontStyle=1;fontSize=16;" parent="YHR2w4tiDZPrrYPtHx2d-1" vertex="1">
          <mxGeometry x="370" y="225" width="120" height="60" as="geometry" />
        </mxCell>
        <mxCell id="oDBM9ih88gaviFgWlMIV-48" value="Contacter le support" style="rounded=0;whiteSpace=wrap;html=1;fillColor=#f8cecc;strokeColor=#b85450;fontStyle=1;fontSize=16;" parent="YHR2w4tiDZPrrYPtHx2d-1" vertex="1">
          <mxGeometry x="370" y="335" width="120" height="60" as="geometry" />
        </mxCell>
        <mxCell id="oDBM9ih88gaviFgWlMIV-49" value="Avoir des reponses" style="rounded=0;whiteSpace=wrap;html=1;fillColor=#fff2cc;strokeColor=#d6b656;fontStyle=1;fontSize=12;" parent="YHR2w4tiDZPrrYPtHx2d-1" vertex="1">
          <mxGeometry x="370" y="460" width="120" height="60" as="geometry" />
        </mxCell>
        <mxCell id="dRXse7YOfuCqlk7QE_R0-0" value="Creer son compte" style="rounded=0;whiteSpace=wrap;html=1;fillColor=#dae8fc;strokeColor=#6c8ebf;fontStyle=1;fontSize=16;" vertex="1" parent="YHR2w4tiDZPrrYPtHx2d-1">
          <mxGeometry y="225" width="120" height="60" as="geometry" />
        </mxCell>
        <mxCell id="dRXse7YOfuCqlk7QE_R0-1" value="Acceder Ã  son dashboard" style="rounded=0;whiteSpace=wrap;html=1;fillColor=#f8cecc;strokeColor=#b85450;fontStyle=1;fontSize=16;" vertex="1" parent="YHR2w4tiDZPrrYPtHx2d-1">
          <mxGeometry y="335" width="120" height="60" as="geometry" />
        </mxCell>
        <mxCell id="dRXse7YOfuCqlk7QE_R0-6" value="Rediger des comptes rendus&lt;br&gt;/ partie patient / partie medicale" style="rounded=0;whiteSpace=wrap;html=1;fillColor=#fff2cc;strokeColor=#d6b656;fontStyle=1;fontSize=12;" vertex="1" parent="YHR2w4tiDZPrrYPtHx2d-1">
          <mxGeometry x="190" y="550" width="120" height="60" as="geometry" />
        </mxCell>
        <mxCell id="dRXse7YOfuCqlk7QE_R0-7" value="Voir ses comptes rendus / partie patien / partie medicale" style="rounded=0;whiteSpace=wrap;html=1;fillColor=#fff2cc;strokeColor=#d6b656;fontStyle=1;fontSize=12;" vertex="1" parent="YHR2w4tiDZPrrYPtHx2d-1">
          <mxGeometry y="640" width="120" height="60" as="geometry" />
        </mxCell>
        <mxCell id="F0QaXlT60hGuklDNusjX-0" value="Gerer son agenda" style="rounded=0;whiteSpace=wrap;html=1;fillColor=#fff2cc;strokeColor=#d6b656;fontStyle=1;fontSize=12;" vertex="1" parent="YHR2w4tiDZPrrYPtHx2d-1">
          <mxGeometry y="730" width="120" height="60" as="geometry" />
        </mxCell>
        <mxCell id="F0QaXlT60hGuklDNusjX-1" value="Faire des push" style="rounded=0;whiteSpace=wrap;html=1;fillColor=#fff2cc;strokeColor=#d6b656;fontStyle=1;fontSize=12;" vertex="1" parent="YHR2w4tiDZPrrYPtHx2d-1">
          <mxGeometry x="190" y="880" width="120" height="60" as="geometry" />
        </mxCell>
      </root>
    </mxGraphModel>
  </diagram>
  <diagram id="2UaqkclKCFLRwtqZzfam" name="User Stories Admin">
    <mxGraphModel dx="1822" dy="822" grid="1" gridSize="10" guides="1" tooltips="1" connect="1" arrows="1" fold="1" page="0" pageScale="1" pageWidth="827" pageHeight="1169" math="0" shadow="0">
      <root>
        <mxCell id="ihaPw5gM9msXBHZyHiLd-0" />
        <mxCell id="ihaPw5gM9msXBHZyHiLd-1" parent="ihaPw5gM9msXBHZyHiLd-0" />
        <mxCell id="pn-_5Asz3mUdF0E0O94A-0" value="" style="endArrow=classic;html=1;strokeWidth=3;" parent="ihaPw5gM9msXBHZyHiLd-1" edge="1">
          <mxGeometry width="50" height="50" relative="1" as="geometry">
            <mxPoint x="-40" y="200" as="sourcePoint" />
            <mxPoint x="-40" y="960" as="targetPoint" />
          </mxGeometry>
        </mxCell>
        <mxCell id="pn-_5Asz3mUdF0E0O94A-1" value="" style="endArrow=classic;html=1;strokeWidth=3;" parent="ihaPw5gM9msXBHZyHiLd-1" edge="1">
          <mxGeometry width="50" height="50" relative="1" as="geometry">
            <mxPoint x="-40" y="200" as="sourcePoint" />
            <mxPoint x="1120" y="200" as="targetPoint" />
          </mxGeometry>
        </mxCell>
        <mxCell id="pn-_5Asz3mUdF0E0O94A-2" value="" style="endArrow=none;dashed=1;html=1;fillColor=#f8cecc;strokeColor=#b85450;strokeWidth=3;" parent="ihaPw5gM9msXBHZyHiLd-1" edge="1">
          <mxGeometry width="50" height="50" relative="1" as="geometry">
            <mxPoint x="-40" y="320" as="sourcePoint" />
            <mxPoint x="1120" y="320" as="targetPoint" />
          </mxGeometry>
        </mxCell>
        <mxCell id="pn-_5Asz3mUdF0E0O94A-3" value="" style="endArrow=none;dashed=1;html=1;fillColor=#f8cecc;strokeColor=#b85450;strokeWidth=3;" parent="ihaPw5gM9msXBHZyHiLd-1" edge="1">
          <mxGeometry width="50" height="50" relative="1" as="geometry">
            <mxPoint x="-40" y="440" as="sourcePoint" />
            <mxPoint x="1120" y="440" as="targetPoint" />
          </mxGeometry>
        </mxCell>
        <mxCell id="pn-_5Asz3mUdF0E0O94A-4" value="Moderer les utilisateurs" style="rounded=0;whiteSpace=wrap;html=1;fillColor=#dae8fc;strokeColor=#6c8ebf;fontStyle=1;fontSize=16;" parent="ihaPw5gM9msXBHZyHiLd-1" vertex="1">
          <mxGeometry x="160" y="230" width="120" height="60" as="geometry" />
        </mxCell>
        <mxCell id="pn-_5Asz3mUdF0E0O94A-7" value="Moderer les patients" style="rounded=0;whiteSpace=wrap;html=1;fillColor=#f8cecc;strokeColor=#b85450;fontStyle=1;fontSize=16;" parent="ihaPw5gM9msXBHZyHiLd-1" vertex="1">
          <mxGeometry x="160" y="340" width="120" height="60" as="geometry" />
        </mxCell>
        <mxCell id="pn-_5Asz3mUdF0E0O94A-10" value="Ajouter des droits" style="rounded=0;whiteSpace=wrap;html=1;fillColor=#fff2cc;strokeColor=#d6b656;fontStyle=1;fontSize=12;" parent="ihaPw5gM9msXBHZyHiLd-1" vertex="1">
          <mxGeometry x="160" y="460" width="120" height="60" as="geometry" />
        </mxCell>
        <mxCell id="pn-_5Asz3mUdF0E0O94A-12" value="" style="endArrow=none;dashed=1;html=1;fillColor=#f8cecc;strokeColor=#b85450;strokeWidth=3;" parent="ihaPw5gM9msXBHZyHiLd-1" edge="1">
          <mxGeometry width="50" height="50" relative="1" as="geometry">
            <mxPoint x="-40" y="750" as="sourcePoint" />
            <mxPoint x="1120" y="750" as="targetPoint" />
          </mxGeometry>
        </mxCell>
        <mxCell id="pn-_5Asz3mUdF0E0O94A-18" value="Temps" style="text;html=1;strokeColor=none;fillColor=none;align=center;verticalAlign=middle;whiteSpace=wrap;rounded=0;fontSize=19;fontStyle=1" parent="ihaPw5gM9msXBHZyHiLd-1" vertex="1">
          <mxGeometry x="940" y="170" width="40" height="20" as="geometry" />
        </mxCell>
        <mxCell id="pn-_5Asz3mUdF0E0O94A-19" value="PrioritÃ©" style="text;html=1;strokeColor=none;fillColor=none;align=center;verticalAlign=middle;whiteSpace=wrap;rounded=0;fontSize=19;fontStyle=1" parent="ihaPw5gM9msXBHZyHiLd-1" vertex="1">
          <mxGeometry x="-100" y="940" width="40" height="20" as="geometry" />
        </mxCell>
        <mxCell id="pn-_5Asz3mUdF0E0O94A-20" value="Epics" style="text;html=1;strokeColor=none;fillColor=none;align=center;verticalAlign=middle;whiteSpace=wrap;rounded=0;fontSize=19;fontStyle=1" parent="ihaPw5gM9msXBHZyHiLd-1" vertex="1">
          <mxGeometry x="960" y="250" width="40" height="20" as="geometry" />
        </mxCell>
        <mxCell id="pn-_5Asz3mUdF0E0O94A-21" value="Features" style="text;html=1;strokeColor=none;fillColor=none;align=center;verticalAlign=middle;whiteSpace=wrap;rounded=0;fontSize=19;fontStyle=1" parent="ihaPw5gM9msXBHZyHiLd-1" vertex="1">
          <mxGeometry x="960" y="360" width="40" height="20" as="geometry" />
        </mxCell>
        <mxCell id="pn-_5Asz3mUdF0E0O94A-22" value="POC" style="text;html=1;strokeColor=none;fillColor=none;align=center;verticalAlign=middle;whiteSpace=wrap;rounded=0;fontSize=19;fontStyle=1" parent="ihaPw5gM9msXBHZyHiLd-1" vertex="1">
          <mxGeometry x="960" y="520" width="40" height="20" as="geometry" />
        </mxCell>
        <mxCell id="pn-_5Asz3mUdF0E0O94A-23" value="V2" style="text;html=1;strokeColor=none;fillColor=none;align=center;verticalAlign=middle;whiteSpace=wrap;rounded=0;fontSize=19;fontStyle=1" parent="ihaPw5gM9msXBHZyHiLd-1" vertex="1">
          <mxGeometry x="960" y="800" width="40" height="20" as="geometry" />
        </mxCell>
        <mxCell id="pn-_5Asz3mUdF0E0O94A-24" value="Gerer son compte" style="rounded=0;whiteSpace=wrap;html=1;fillColor=#dae8fc;strokeColor=#6c8ebf;fontStyle=1;fontSize=16;" parent="ihaPw5gM9msXBHZyHiLd-1" vertex="1">
          <mxGeometry y="230" width="120" height="60" as="geometry" />
        </mxCell>
        <mxCell id="pn-_5Asz3mUdF0E0O94A-25" value="Acceder Ã  son dashboard" style="rounded=0;whiteSpace=wrap;html=1;fillColor=#f8cecc;strokeColor=#b85450;fontStyle=1;fontSize=16;" parent="ihaPw5gM9msXBHZyHiLd-1" vertex="1">
          <mxGeometry y="340" width="120" height="60" as="geometry" />
        </mxCell>
        <mxCell id="pn-_5Asz3mUdF0E0O94A-27" value="Gerer son profil" style="rounded=0;whiteSpace=wrap;html=1;fillColor=#fff2cc;strokeColor=#d6b656;fontStyle=1;fontSize=12;" parent="ihaPw5gM9msXBHZyHiLd-1" vertex="1">
          <mxGeometry y="460" width="120" height="60" as="geometry" />
        </mxCell>
        <mxCell id="pn-_5Asz3mUdF0E0O94A-31" value="Supprimer des droits" style="rounded=0;whiteSpace=wrap;html=1;fillColor=#fff2cc;strokeColor=#d6b656;fontStyle=1;fontSize=12;" parent="ihaPw5gM9msXBHZyHiLd-1" vertex="1">
          <mxGeometry x="160" y="550" width="120" height="60" as="geometry" />
        </mxCell>
        <mxCell id="pn-_5Asz3mUdF0E0O94A-32" value="Moderer les praticiens" style="rounded=0;whiteSpace=wrap;html=1;fillColor=#f8cecc;strokeColor=#b85450;fontStyle=1;fontSize=16;" parent="ihaPw5gM9msXBHZyHiLd-1" vertex="1">
          <mxGeometry x="320" y="340" width="120" height="60" as="geometry" />
        </mxCell>
        <mxCell id="pn-_5Asz3mUdF0E0O94A-33" value="Ajouter des droits" style="rounded=0;whiteSpace=wrap;html=1;fillColor=#fff2cc;strokeColor=#d6b656;fontStyle=1;fontSize=12;" parent="ihaPw5gM9msXBHZyHiLd-1" vertex="1">
          <mxGeometry x="320" y="550" width="120" height="60" as="geometry" />
        </mxCell>
        <mxCell id="pn-_5Asz3mUdF0E0O94A-34" value="Supprimer des droits" style="rounded=0;whiteSpace=wrap;html=1;fillColor=#fff2cc;strokeColor=#d6b656;fontStyle=1;fontSize=12;" parent="ihaPw5gM9msXBHZyHiLd-1" vertex="1">
          <mxGeometry x="320" y="640" width="120" height="60" as="geometry" />
        </mxCell>
        <mxCell id="pn-_5Asz3mUdF0E0O94A-35" value="Moderer les ressources" style="rounded=0;whiteSpace=wrap;html=1;fillColor=#dae8fc;strokeColor=#6c8ebf;fontStyle=1;fontSize=16;" parent="ihaPw5gM9msXBHZyHiLd-1" vertex="1">
          <mxGeometry x="480" y="230" width="120" height="60" as="geometry" />
        </mxCell>
        <mxCell id="pn-_5Asz3mUdF0E0O94A-36" value="Moderer les articles" style="rounded=0;whiteSpace=wrap;html=1;fillColor=#f8cecc;strokeColor=#b85450;fontStyle=1;fontSize=16;" parent="ihaPw5gM9msXBHZyHiLd-1" vertex="1">
          <mxGeometry x="480" y="340" width="120" height="60" as="geometry" />
        </mxCell>
        <mxCell id="pn-_5Asz3mUdF0E0O94A-37" value="Ajouter un article" style="rounded=0;whiteSpace=wrap;html=1;fillColor=#fff2cc;strokeColor=#d6b656;fontStyle=1;fontSize=12;" parent="ihaPw5gM9msXBHZyHiLd-1" vertex="1">
          <mxGeometry x="480" y="460" width="120" height="60" as="geometry" />
        </mxCell>
        <mxCell id="pn-_5Asz3mUdF0E0O94A-38" value="Desactiver un article" style="rounded=0;whiteSpace=wrap;html=1;fillColor=#fff2cc;strokeColor=#d6b656;fontStyle=1;fontSize=12;" parent="ihaPw5gM9msXBHZyHiLd-1" vertex="1">
          <mxGeometry x="480" y="550" width="120" height="60" as="geometry" />
        </mxCell>
        <mxCell id="pn-_5Asz3mUdF0E0O94A-39" value="Moderer les documents" style="rounded=0;whiteSpace=wrap;html=1;fillColor=#f8cecc;strokeColor=#b85450;fontStyle=1;fontSize=16;" parent="ihaPw5gM9msXBHZyHiLd-1" vertex="1">
          <mxGeometry x="640" y="340" width="120" height="60" as="geometry" />
        </mxCell>
        <mxCell id="pn-_5Asz3mUdF0E0O94A-40" value="Ajouter un document" style="rounded=0;whiteSpace=wrap;html=1;fillColor=#fff2cc;strokeColor=#d6b656;fontStyle=1;fontSize=12;" parent="ihaPw5gM9msXBHZyHiLd-1" vertex="1">
          <mxGeometry x="640" y="460" width="120" height="60" as="geometry" />
        </mxCell>
        <mxCell id="pn-_5Asz3mUdF0E0O94A-44" value="Supprimer un article" style="rounded=0;whiteSpace=wrap;html=1;fillColor=#fff2cc;strokeColor=#d6b656;fontStyle=1;fontSize=12;" parent="ihaPw5gM9msXBHZyHiLd-1" vertex="1">
          <mxGeometry x="480" y="640" width="120" height="60" as="geometry" />
        </mxCell>
        <mxCell id="pn-_5Asz3mUdF0E0O94A-46" value="Desactiver un document" style="rounded=0;whiteSpace=wrap;html=1;fillColor=#fff2cc;strokeColor=#d6b656;fontStyle=1;fontSize=12;" parent="ihaPw5gM9msXBHZyHiLd-1" vertex="1">
          <mxGeometry x="640" y="550" width="120" height="60" as="geometry" />
        </mxCell>
        <mxCell id="pn-_5Asz3mUdF0E0O94A-47" value="Supprimer un document" style="rounded=0;whiteSpace=wrap;html=1;fillColor=#fff2cc;strokeColor=#d6b656;fontStyle=1;fontSize=12;" parent="ihaPw5gM9msXBHZyHiLd-1" vertex="1">
          <mxGeometry x="640" y="640" width="120" height="60" as="geometry" />
        </mxCell>
        <mxCell id="pn-_5Asz3mUdF0E0O94A-52" value="Moderer les webinars" style="rounded=0;whiteSpace=wrap;html=1;fillColor=#f8cecc;strokeColor=#b85450;fontStyle=1;fontSize=16;" parent="ihaPw5gM9msXBHZyHiLd-1" vertex="1">
          <mxGeometry x="800" y="340" width="120" height="60" as="geometry" />
        </mxCell>
        <mxCell id="pn-_5Asz3mUdF0E0O94A-53" value="Ajouter un webinar" style="rounded=0;whiteSpace=wrap;html=1;fillColor=#fff2cc;strokeColor=#d6b656;fontStyle=1;fontSize=12;" parent="ihaPw5gM9msXBHZyHiLd-1" vertex="1">
          <mxGeometry x="800" y="460" width="120" height="60" as="geometry" />
        </mxCell>
        <mxCell id="pn-_5Asz3mUdF0E0O94A-54" value="Desactiver un webinar" style="rounded=0;whiteSpace=wrap;html=1;fillColor=#fff2cc;strokeColor=#d6b656;fontStyle=1;fontSize=12;" parent="ihaPw5gM9msXBHZyHiLd-1" vertex="1">
          <mxGeometry x="800" y="550" width="120" height="60" as="geometry" />
        </mxCell>
        <mxCell id="pn-_5Asz3mUdF0E0O94A-55" value="Supprimer un webinar" style="rounded=0;whiteSpace=wrap;html=1;fillColor=#fff2cc;strokeColor=#d6b656;fontStyle=1;fontSize=12;" parent="ihaPw5gM9msXBHZyHiLd-1" vertex="1">
          <mxGeometry x="800" y="640" width="120" height="60" as="geometry" />
        </mxCell>
        <mxCell id="pn-_5Asz3mUdF0E0O94A-56" value="Gerer les disponibilitÃ©s" style="rounded=0;whiteSpace=wrap;html=1;fillColor=#fff2cc;strokeColor=#d6b656;fontStyle=1;fontSize=12;" parent="ihaPw5gM9msXBHZyHiLd-1" vertex="1">
          <mxGeometry x="320" y="460" width="120" height="60" as="geometry" />
        </mxCell>
      </root>
    </mxGraphModel>
  </diagram>
  <diagram id="YgBENvAN_s6-9zqqdL_g" name="Site Map Front">
    <mxGraphModel dx="1673" dy="967" grid="1" gridSize="10" guides="1" tooltips="1" connect="1" arrows="1" fold="1" page="0" pageScale="1" pageWidth="827" pageHeight="1169" math="0" shadow="0">
      <root>
        <mxCell id="PuMcUvFbsF_KYM22WuZc-0" />
        <mxCell id="PuMcUvFbsF_KYM22WuZc-1" parent="PuMcUvFbsF_KYM22WuZc-0" />
        <mxCell id="PuMcUvFbsF_KYM22WuZc-32" style="edgeStyle=orthogonalEdgeStyle;rounded=0;orthogonalLoop=1;jettySize=auto;html=1;exitX=0.5;exitY=1;exitDx=0;exitDy=0;fontSize=19;endArrow=block;endFill=1;strokeWidth=2;" parent="PuMcUvFbsF_KYM22WuZc-1" source="PuMcUvFbsF_KYM22WuZc-2" target="PuMcUvFbsF_KYM22WuZc-3" edge="1">
          <mxGeometry relative="1" as="geometry" />
        </mxCell>
        <mxCell id="PuMcUvFbsF_KYM22WuZc-33" style="edgeStyle=orthogonalEdgeStyle;rounded=0;orthogonalLoop=1;jettySize=auto;html=1;exitX=0.5;exitY=1;exitDx=0;exitDy=0;entryX=0.5;entryY=0;entryDx=0;entryDy=0;fontSize=19;endArrow=block;endFill=1;strokeWidth=2;" parent="PuMcUvFbsF_KYM22WuZc-1" source="PuMcUvFbsF_KYM22WuZc-2" target="PuMcUvFbsF_KYM22WuZc-9" edge="1">
          <mxGeometry relative="1" as="geometry" />
        </mxCell>
        <mxCell id="PuMcUvFbsF_KYM22WuZc-35" style="edgeStyle=orthogonalEdgeStyle;rounded=0;orthogonalLoop=1;jettySize=auto;html=1;exitX=0.5;exitY=1;exitDx=0;exitDy=0;entryX=0.5;entryY=0;entryDx=0;entryDy=0;fontSize=19;endArrow=block;endFill=1;strokeWidth=2;" parent="PuMcUvFbsF_KYM22WuZc-1" source="PuMcUvFbsF_KYM22WuZc-2" target="PuMcUvFbsF_KYM22WuZc-5" edge="1">
          <mxGeometry relative="1" as="geometry" />
        </mxCell>
        <mxCell id="PuMcUvFbsF_KYM22WuZc-37" style="edgeStyle=orthogonalEdgeStyle;rounded=0;orthogonalLoop=1;jettySize=auto;html=1;exitX=0.5;exitY=1;exitDx=0;exitDy=0;entryX=0.5;entryY=0;entryDx=0;entryDy=0;fontSize=19;endArrow=block;endFill=1;strokeWidth=2;" parent="PuMcUvFbsF_KYM22WuZc-1" source="PuMcUvFbsF_KYM22WuZc-2" target="PuMcUvFbsF_KYM22WuZc-7" edge="1">
          <mxGeometry relative="1" as="geometry" />
        </mxCell>
        <mxCell id="PuMcUvFbsF_KYM22WuZc-38" style="edgeStyle=orthogonalEdgeStyle;rounded=0;orthogonalLoop=1;jettySize=auto;html=1;exitX=0.5;exitY=1;exitDx=0;exitDy=0;entryX=0.5;entryY=0;entryDx=0;entryDy=0;fontSize=19;endArrow=block;endFill=1;strokeWidth=2;" parent="PuMcUvFbsF_KYM22WuZc-1" source="PuMcUvFbsF_KYM22WuZc-2" target="PuMcUvFbsF_KYM22WuZc-31" edge="1">
          <mxGeometry relative="1" as="geometry" />
        </mxCell>
        <mxCell id="PuMcUvFbsF_KYM22WuZc-2" value="Accueil" style="rounded=1;whiteSpace=wrap;html=1;fontSize=19;fillColor=#dae8fc;strokeColor=#6c8ebf;fontStyle=1" parent="PuMcUvFbsF_KYM22WuZc-1" vertex="1">
          <mxGeometry x="510" y="90" width="120" height="60" as="geometry" />
        </mxCell>
        <mxCell id="PuMcUvFbsF_KYM22WuZc-40" style="edgeStyle=orthogonalEdgeStyle;rounded=0;orthogonalLoop=1;jettySize=auto;html=1;exitX=0.5;exitY=1;exitDx=0;exitDy=0;entryX=0;entryY=0.5;entryDx=0;entryDy=0;fontSize=19;endArrow=block;endFill=1;strokeWidth=2;" parent="PuMcUvFbsF_KYM22WuZc-1" target="PuMcUvFbsF_KYM22WuZc-10" edge="1">
          <mxGeometry relative="1" as="geometry">
            <mxPoint x="60" y="340.02999999999986" as="sourcePoint" />
            <Array as="points">
              <mxPoint x="60" y="410" />
            </Array>
          </mxGeometry>
        </mxCell>
        <mxCell id="PuMcUvFbsF_KYM22WuZc-41" style="edgeStyle=orthogonalEdgeStyle;rounded=0;orthogonalLoop=1;jettySize=auto;html=1;exitX=0.5;exitY=1;exitDx=0;exitDy=0;entryX=0;entryY=0.5;entryDx=0;entryDy=0;fontSize=19;endArrow=block;endFill=1;strokeWidth=2;" parent="PuMcUvFbsF_KYM22WuZc-1" target="PuMcUvFbsF_KYM22WuZc-12" edge="1">
          <mxGeometry relative="1" as="geometry">
            <mxPoint x="60" y="340.02999999999986" as="sourcePoint" />
            <Array as="points">
              <mxPoint x="60" y="500" />
            </Array>
          </mxGeometry>
        </mxCell>
        <mxCell id="PuMcUvFbsF_KYM22WuZc-42" style="edgeStyle=orthogonalEdgeStyle;rounded=0;orthogonalLoop=1;jettySize=auto;html=1;exitX=0.5;exitY=1;exitDx=0;exitDy=0;entryX=0;entryY=0.5;entryDx=0;entryDy=0;fontSize=19;endArrow=block;endFill=1;strokeWidth=2;" parent="PuMcUvFbsF_KYM22WuZc-1" target="PuMcUvFbsF_KYM22WuZc-11" edge="1">
          <mxGeometry relative="1" as="geometry">
            <mxPoint x="60" y="340.02999999999986" as="sourcePoint" />
            <Array as="points">
              <mxPoint x="60" y="590" />
            </Array>
          </mxGeometry>
        </mxCell>
        <mxCell id="PuMcUvFbsF_KYM22WuZc-43" style="edgeStyle=orthogonalEdgeStyle;rounded=0;orthogonalLoop=1;jettySize=auto;html=1;exitX=0.5;exitY=1;exitDx=0;exitDy=0;entryX=0;entryY=0.5;entryDx=0;entryDy=0;fontSize=19;endArrow=block;endFill=1;strokeWidth=2;" parent="PuMcUvFbsF_KYM22WuZc-1" target="PuMcUvFbsF_KYM22WuZc-13" edge="1">
          <mxGeometry relative="1" as="geometry">
            <mxPoint x="60" y="340.02999999999986" as="sourcePoint" />
            <Array as="points">
              <mxPoint x="60" y="680" />
            </Array>
          </mxGeometry>
        </mxCell>
        <mxCell id="PuMcUvFbsF_KYM22WuZc-3" value="Mon Compte" style="rounded=1;whiteSpace=wrap;html=1;fontSize=19;fillColor=#f8cecc;strokeColor=#b85450;fontStyle=1" parent="PuMcUvFbsF_KYM22WuZc-1" vertex="1">
          <mxGeometry x="40" y="280" width="120" height="60" as="geometry" />
        </mxCell>
        <mxCell id="PuMcUvFbsF_KYM22WuZc-5" value="Documents" style="rounded=1;whiteSpace=wrap;html=1;fontSize=19;fillColor=#f8cecc;strokeColor=#b85450;fontStyle=1" parent="PuMcUvFbsF_KYM22WuZc-1" vertex="1">
          <mxGeometry x="440" y="280" width="120" height="60" as="geometry" />
        </mxCell>
        <mxCell id="PuMcUvFbsF_KYM22WuZc-7" value="Prendre RDV" style="rounded=1;whiteSpace=wrap;html=1;fontSize=19;fillColor=#f8cecc;strokeColor=#b85450;fontStyle=1" parent="PuMcUvFbsF_KYM22WuZc-1" vertex="1">
          <mxGeometry x="700" y="280" width="120" height="60" as="geometry" />
        </mxCell>
        <mxCell id="PuMcUvFbsF_KYM22WuZc-9" value="Messagerie" style="rounded=1;whiteSpace=wrap;html=1;fontSize=19;fillColor=#f8cecc;strokeColor=#b85450;fontStyle=1" parent="PuMcUvFbsF_KYM22WuZc-1" vertex="1">
          <mxGeometry x="240" y="280" width="120" height="60" as="geometry" />
        </mxCell>
        <mxCell id="PuMcUvFbsF_KYM22WuZc-10" value="Mon profil" style="rounded=1;whiteSpace=wrap;html=1;fontSize=15;fillColor=#fff2cc;strokeColor=#d6b656;" parent="PuMcUvFbsF_KYM22WuZc-1" vertex="1">
          <mxGeometry x="80" y="380.03" width="120" height="60" as="geometry" />
        </mxCell>
        <mxCell id="PuMcUvFbsF_KYM22WuZc-11" value="Mes contacts" style="rounded=1;whiteSpace=wrap;html=1;fontSize=15;fillColor=#fff2cc;strokeColor=#d6b656;" parent="PuMcUvFbsF_KYM22WuZc-1" vertex="1">
          <mxGeometry x="80" y="560.03" width="120" height="60" as="geometry" />
        </mxCell>
        <mxCell id="PuMcUvFbsF_KYM22WuZc-12" value="Mon agenda" style="rounded=1;whiteSpace=wrap;html=1;fontSize=15;fillColor=#fff2cc;strokeColor=#d6b656;" parent="PuMcUvFbsF_KYM22WuZc-1" vertex="1">
          <mxGeometry x="80" y="470.03" width="120" height="60" as="geometry" />
        </mxCell>
        <mxCell id="PuMcUvFbsF_KYM22WuZc-13" value="Mes Comptes rendus" style="rounded=1;whiteSpace=wrap;html=1;fontSize=15;fillColor=#fff2cc;strokeColor=#d6b656;" parent="PuMcUvFbsF_KYM22WuZc-1" vertex="1">
          <mxGeometry x="80" y="650.03" width="120" height="60" as="geometry" />
        </mxCell>
        <mxCell id="PuMcUvFbsF_KYM22WuZc-24" value="Liste des articles" style="rounded=1;whiteSpace=wrap;html=1;fontSize=15;fillColor=#fff2cc;strokeColor=#d6b656;" parent="PuMcUvFbsF_KYM22WuZc-1" vertex="1">
          <mxGeometry x="480" y="380" width="120" height="60" as="geometry" />
        </mxCell>
        <mxCell id="PuMcUvFbsF_KYM22WuZc-25" value="Un article" style="rounded=1;whiteSpace=wrap;html=1;fontSize=15;fillColor=#e1d5e7;strokeColor=#9673a6;" parent="PuMcUvFbsF_KYM22WuZc-1" vertex="1">
          <mxGeometry x="520" y="470" width="120" height="60" as="geometry" />
        </mxCell>
        <mxCell id="PuMcUvFbsF_KYM22WuZc-29" value="Liste des pratques" style="rounded=1;whiteSpace=wrap;html=1;fontSize=15;fillColor=#fff2cc;strokeColor=#d6b656;" parent="PuMcUvFbsF_KYM22WuZc-1" vertex="1">
          <mxGeometry x="740" y="380" width="120" height="60" as="geometry" />
        </mxCell>
        <mxCell id="PuMcUvFbsF_KYM22WuZc-30" value="Porposition d&#39;un praticien avec un creneau" style="rounded=1;whiteSpace=wrap;html=1;fontSize=15;fillColor=#e1d5e7;strokeColor=#9673a6;" parent="PuMcUvFbsF_KYM22WuZc-1" vertex="1">
          <mxGeometry x="780" y="470" width="120" height="60" as="geometry" />
        </mxCell>
        <mxCell id="PuMcUvFbsF_KYM22WuZc-31" value="Contacter le support" style="rounded=1;whiteSpace=wrap;html=1;fontSize=19;fillColor=#f8cecc;strokeColor=#b85450;fontStyle=1" parent="PuMcUvFbsF_KYM22WuZc-1" vertex="1">
          <mxGeometry x="950" y="280" width="120" height="60" as="geometry" />
        </mxCell>
        <mxCell id="PuMcUvFbsF_KYM22WuZc-48" style="edgeStyle=orthogonalEdgeStyle;rounded=0;orthogonalLoop=1;jettySize=auto;html=1;exitX=0.5;exitY=1;exitDx=0;exitDy=0;entryX=0;entryY=0.5;entryDx=0;entryDy=0;fontSize=19;endArrow=block;endFill=1;strokeWidth=2;" parent="PuMcUvFbsF_KYM22WuZc-1" edge="1">
          <mxGeometry relative="1" as="geometry">
            <mxPoint x="460" y="340.03" as="sourcePoint" />
            <mxPoint x="480" y="410.03" as="targetPoint" />
            <Array as="points">
              <mxPoint x="460" y="410.03" />
            </Array>
          </mxGeometry>
        </mxCell>
        <mxCell id="PuMcUvFbsF_KYM22WuZc-49" style="edgeStyle=orthogonalEdgeStyle;rounded=0;orthogonalLoop=1;jettySize=auto;html=1;exitX=0.5;exitY=1;exitDx=0;exitDy=0;entryX=0;entryY=0.5;entryDx=0;entryDy=0;fontSize=19;endArrow=block;endFill=1;strokeWidth=2;" parent="PuMcUvFbsF_KYM22WuZc-1" edge="1">
          <mxGeometry relative="1" as="geometry">
            <mxPoint x="500" y="440.03" as="sourcePoint" />
            <mxPoint x="520" y="500.03" as="targetPoint" />
            <Array as="points">
              <mxPoint x="500" y="500.03" />
            </Array>
          </mxGeometry>
        </mxCell>
        <mxCell id="PuMcUvFbsF_KYM22WuZc-52" style="edgeStyle=orthogonalEdgeStyle;rounded=0;orthogonalLoop=1;jettySize=auto;html=1;exitX=0.5;exitY=1;exitDx=0;exitDy=0;entryX=0;entryY=0.5;entryDx=0;entryDy=0;fontSize=19;endArrow=block;endFill=1;strokeWidth=2;" parent="PuMcUvFbsF_KYM22WuZc-1" edge="1">
          <mxGeometry relative="1" as="geometry">
            <mxPoint x="720" y="340.03" as="sourcePoint" />
            <mxPoint x="740" y="410.03" as="targetPoint" />
            <Array as="points">
              <mxPoint x="720" y="410.03" />
            </Array>
          </mxGeometry>
        </mxCell>
        <mxCell id="PuMcUvFbsF_KYM22WuZc-53" style="edgeStyle=orthogonalEdgeStyle;rounded=0;orthogonalLoop=1;jettySize=auto;html=1;exitX=0.5;exitY=1;exitDx=0;exitDy=0;entryX=0;entryY=0.5;entryDx=0;entryDy=0;fontSize=19;endArrow=block;endFill=1;strokeWidth=2;" parent="PuMcUvFbsF_KYM22WuZc-1" edge="1">
          <mxGeometry relative="1" as="geometry">
            <mxPoint x="760" y="440.03" as="sourcePoint" />
            <mxPoint x="780" y="500.03" as="targetPoint" />
            <Array as="points">
              <mxPoint x="760" y="500.03" />
            </Array>
          </mxGeometry>
        </mxCell>
        <mxCell id="tJm4OsALY7sKGT7Y-Okl-0" value="Liste des Webinars" style="rounded=1;whiteSpace=wrap;html=1;fontSize=15;fillColor=#fff2cc;strokeColor=#d6b656;" vertex="1" parent="PuMcUvFbsF_KYM22WuZc-1">
          <mxGeometry x="480" y="740" width="120" height="60" as="geometry" />
        </mxCell>
        <mxCell id="tJm4OsALY7sKGT7Y-Okl-1" value="Un Webinar" style="rounded=1;whiteSpace=wrap;html=1;fontSize=15;fillColor=#e1d5e7;strokeColor=#9673a6;" vertex="1" parent="PuMcUvFbsF_KYM22WuZc-1">
          <mxGeometry x="520" y="830" width="120" height="60" as="geometry" />
        </mxCell>
        <mxCell id="tJm4OsALY7sKGT7Y-Okl-2" style="edgeStyle=orthogonalEdgeStyle;rounded=0;orthogonalLoop=1;jettySize=auto;html=1;exitX=0.5;exitY=1;exitDx=0;exitDy=0;entryX=0;entryY=0.5;entryDx=0;entryDy=0;fontSize=19;endArrow=block;endFill=1;strokeWidth=2;" edge="1" parent="PuMcUvFbsF_KYM22WuZc-1">
          <mxGeometry relative="1" as="geometry">
            <mxPoint x="500" y="800.03" as="sourcePoint" />
            <mxPoint x="520" y="860.03" as="targetPoint" />
            <Array as="points">
              <mxPoint x="500" y="860.03" />
            </Array>
          </mxGeometry>
        </mxCell>
        <mxCell id="tJm4OsALY7sKGT7Y-Okl-3" value="Liste des documents" style="rounded=1;whiteSpace=wrap;html=1;fontSize=15;fillColor=#fff2cc;strokeColor=#d6b656;" vertex="1" parent="PuMcUvFbsF_KYM22WuZc-1">
          <mxGeometry x="480" y="560.03" width="120" height="60" as="geometry" />
        </mxCell>
        <mxCell id="tJm4OsALY7sKGT7Y-Okl-4" value="Un document" style="rounded=1;whiteSpace=wrap;html=1;fontSize=15;fillColor=#e1d5e7;strokeColor=#9673a6;" vertex="1" parent="PuMcUvFbsF_KYM22WuZc-1">
          <mxGeometry x="520" y="650.03" width="120" height="60" as="geometry" />
        </mxCell>
        <mxCell id="tJm4OsALY7sKGT7Y-Okl-5" style="edgeStyle=orthogonalEdgeStyle;rounded=0;orthogonalLoop=1;jettySize=auto;html=1;exitX=0.5;exitY=1;exitDx=0;exitDy=0;entryX=0;entryY=0.5;entryDx=0;entryDy=0;fontSize=19;endArrow=block;endFill=1;strokeWidth=2;" edge="1" parent="PuMcUvFbsF_KYM22WuZc-1">
          <mxGeometry relative="1" as="geometry">
            <mxPoint x="500" y="620.06" as="sourcePoint" />
            <mxPoint x="520" y="680.06" as="targetPoint" />
            <Array as="points">
              <mxPoint x="500" y="680.06" />
            </Array>
          </mxGeometry>
        </mxCell>
        <mxCell id="Ye_JYWfgZsuRf7NR265e-0" style="edgeStyle=orthogonalEdgeStyle;rounded=0;orthogonalLoop=1;jettySize=auto;html=1;exitX=0.168;exitY=1.014;exitDx=0;exitDy=0;entryX=0;entryY=0.5;entryDx=0;entryDy=0;fontSize=19;endArrow=block;endFill=1;strokeWidth=2;exitPerimeter=0;" edge="1" parent="PuMcUvFbsF_KYM22WuZc-1" source="PuMcUvFbsF_KYM22WuZc-5">
          <mxGeometry relative="1" as="geometry">
            <mxPoint x="460" y="520" as="sourcePoint" />
            <mxPoint x="480" y="590" as="targetPoint" />
            <Array as="points">
              <mxPoint x="460" y="590" />
            </Array>
          </mxGeometry>
        </mxCell>
        <mxCell id="Ye_JYWfgZsuRf7NR265e-1" style="edgeStyle=orthogonalEdgeStyle;rounded=0;orthogonalLoop=1;jettySize=auto;html=1;exitX=0.168;exitY=1.014;exitDx=0;exitDy=0;entryX=0;entryY=0.5;entryDx=0;entryDy=0;fontSize=19;endArrow=block;endFill=1;strokeWidth=2;exitPerimeter=0;" edge="1" parent="PuMcUvFbsF_KYM22WuZc-1">
          <mxGeometry relative="1" as="geometry">
            <mxPoint x="460.1600000000001" y="520" as="sourcePoint" />
            <mxPoint x="480" y="769.16" as="targetPoint" />
            <Array as="points">
              <mxPoint x="460" y="769.16" />
            </Array>
          </mxGeometry>
        </mxCell>
      </root>
    </mxGraphModel>
  </diagram>
  <diagram id="lj3FARvQv5NUnWt7QOuc" name="Site Map Back">
    <mxGraphModel dx="1673" dy="967" grid="1" gridSize="10" guides="1" tooltips="1" connect="1" arrows="1" fold="1" page="1" pageScale="1" pageWidth="827" pageHeight="1169" math="0" shadow="0">
      <root>
        <mxCell id="PyPf7zFrLs1YUarEp7F7-0" />
        <mxCell id="PyPf7zFrLs1YUarEp7F7-1" parent="PyPf7zFrLs1YUarEp7F7-0" />
        <mxCell id="Z1F9n45qlafzjhstwx48-0" style="edgeStyle=orthogonalEdgeStyle;rounded=0;orthogonalLoop=1;jettySize=auto;html=1;exitX=0.5;exitY=1;exitDx=0;exitDy=0;fontSize=19;endArrow=block;endFill=1;strokeWidth=2;" parent="PyPf7zFrLs1YUarEp7F7-1" source="Z1F9n45qlafzjhstwx48-7" target="Z1F9n45qlafzjhstwx48-13" edge="1">
          <mxGeometry relative="1" as="geometry" />
        </mxCell>
        <mxCell id="Z1F9n45qlafzjhstwx48-1" style="edgeStyle=orthogonalEdgeStyle;rounded=0;orthogonalLoop=1;jettySize=auto;html=1;exitX=0.5;exitY=1;exitDx=0;exitDy=0;entryX=0.5;entryY=0;entryDx=0;entryDy=0;fontSize=19;endArrow=block;endFill=1;strokeWidth=2;" parent="PyPf7zFrLs1YUarEp7F7-1" source="Z1F9n45qlafzjhstwx48-7" target="Z1F9n45qlafzjhstwx48-19" edge="1">
          <mxGeometry relative="1" as="geometry" />
        </mxCell>
        <mxCell id="Z1F9n45qlafzjhstwx48-2" style="edgeStyle=orthogonalEdgeStyle;rounded=0;orthogonalLoop=1;jettySize=auto;html=1;exitX=0.5;exitY=1;exitDx=0;exitDy=0;fontSize=19;endArrow=block;endFill=1;strokeWidth=2;" parent="PyPf7zFrLs1YUarEp7F7-1" source="Z1F9n45qlafzjhstwx48-7" target="Z1F9n45qlafzjhstwx48-15" edge="1">
          <mxGeometry relative="1" as="geometry" />
        </mxCell>
        <mxCell id="Z1F9n45qlafzjhstwx48-3" style="edgeStyle=orthogonalEdgeStyle;rounded=0;orthogonalLoop=1;jettySize=auto;html=1;exitX=0.5;exitY=1;exitDx=0;exitDy=0;entryX=0.5;entryY=0;entryDx=0;entryDy=0;fontSize=19;endArrow=block;endFill=1;strokeWidth=2;" parent="PyPf7zFrLs1YUarEp7F7-1" source="Z1F9n45qlafzjhstwx48-7" target="Z1F9n45qlafzjhstwx48-16" edge="1">
          <mxGeometry relative="1" as="geometry" />
        </mxCell>
        <mxCell id="Z1F9n45qlafzjhstwx48-5" style="edgeStyle=orthogonalEdgeStyle;rounded=0;orthogonalLoop=1;jettySize=auto;html=1;exitX=0.5;exitY=1;exitDx=0;exitDy=0;entryX=0.5;entryY=0;entryDx=0;entryDy=0;fontSize=19;endArrow=block;endFill=1;strokeWidth=2;" parent="PyPf7zFrLs1YUarEp7F7-1" source="Z1F9n45qlafzjhstwx48-7" target="Z1F9n45qlafzjhstwx48-18" edge="1">
          <mxGeometry relative="1" as="geometry" />
        </mxCell>
        <mxCell id="Z1F9n45qlafzjhstwx48-46" style="edgeStyle=orthogonalEdgeStyle;rounded=0;orthogonalLoop=1;jettySize=auto;html=1;exitX=0.5;exitY=1;exitDx=0;exitDy=0;entryX=0.5;entryY=0;entryDx=0;entryDy=0;fontSize=19;endArrow=block;endFill=1;strokeWidth=2;" parent="PyPf7zFrLs1YUarEp7F7-1" source="Z1F9n45qlafzjhstwx48-7" target="Z1F9n45qlafzjhstwx48-41" edge="1">
          <mxGeometry relative="1" as="geometry" />
        </mxCell>
        <mxCell id="Z1F9n45qlafzjhstwx48-7" value="Accueil" style="rounded=1;whiteSpace=wrap;html=1;fontSize=19;fillColor=#dae8fc;strokeColor=#6c8ebf;fontStyle=1" parent="PyPf7zFrLs1YUarEp7F7-1" vertex="1">
          <mxGeometry x="530" y="90" width="120" height="60" as="geometry" />
        </mxCell>
        <mxCell id="Z1F9n45qlafzjhstwx48-8" style="edgeStyle=orthogonalEdgeStyle;rounded=0;orthogonalLoop=1;jettySize=auto;html=1;exitX=0.5;exitY=1;exitDx=0;exitDy=0;entryX=0;entryY=0.5;entryDx=0;entryDy=0;fontSize=19;endArrow=block;endFill=1;strokeWidth=2;" parent="PyPf7zFrLs1YUarEp7F7-1" target="Z1F9n45qlafzjhstwx48-20" edge="1">
          <mxGeometry relative="1" as="geometry">
            <mxPoint x="60" y="340.02999999999975" as="sourcePoint" />
            <Array as="points">
              <mxPoint x="60" y="410" />
            </Array>
          </mxGeometry>
        </mxCell>
        <mxCell id="Z1F9n45qlafzjhstwx48-13" value="Mon Compte" style="rounded=1;whiteSpace=wrap;html=1;fontSize=19;fillColor=#f8cecc;strokeColor=#b85450;fontStyle=1" parent="PyPf7zFrLs1YUarEp7F7-1" vertex="1">
          <mxGeometry x="40" y="280" width="120" height="60" as="geometry" />
        </mxCell>
        <mxCell id="Z1F9n45qlafzjhstwx48-14" style="edgeStyle=orthogonalEdgeStyle;rounded=0;orthogonalLoop=1;jettySize=auto;html=1;exitX=0.5;exitY=1;exitDx=0;exitDy=0;entryX=0;entryY=0.5;entryDx=0;entryDy=0;fontSize=19;endArrow=block;endFill=1;strokeWidth=2;" parent="PyPf7zFrLs1YUarEp7F7-1" target="Z1F9n45qlafzjhstwx48-25" edge="1">
          <mxGeometry relative="1" as="geometry">
            <mxPoint x="420" y="340" as="sourcePoint" />
            <Array as="points">
              <mxPoint x="420" y="410" />
            </Array>
          </mxGeometry>
        </mxCell>
        <mxCell id="Z1F9n45qlafzjhstwx48-15" value="Articles" style="rounded=1;whiteSpace=wrap;html=1;fontSize=19;fillColor=#f8cecc;strokeColor=#b85450;fontStyle=1" parent="PyPf7zFrLs1YUarEp7F7-1" vertex="1">
          <mxGeometry x="400" y="280" width="120" height="60" as="geometry" />
        </mxCell>
        <mxCell id="Z1F9n45qlafzjhstwx48-16" value="Documents" style="rounded=1;whiteSpace=wrap;html=1;fontSize=19;fillColor=#f8cecc;strokeColor=#b85450;fontStyle=1" parent="PyPf7zFrLs1YUarEp7F7-1" vertex="1">
          <mxGeometry x="640" y="280" width="120" height="60" as="geometry" />
        </mxCell>
        <mxCell id="Z1F9n45qlafzjhstwx48-18" value="Praticiens" style="rounded=1;whiteSpace=wrap;html=1;fontSize=19;fillColor=#f8cecc;strokeColor=#b85450;fontStyle=1" parent="PyPf7zFrLs1YUarEp7F7-1" vertex="1">
          <mxGeometry x="860" y="280" width="120" height="60" as="geometry" />
        </mxCell>
        <mxCell id="Z1F9n45qlafzjhstwx48-19" value="Messagerie" style="rounded=1;whiteSpace=wrap;html=1;fontSize=19;fillColor=#f8cecc;strokeColor=#b85450;fontStyle=1" parent="PyPf7zFrLs1YUarEp7F7-1" vertex="1">
          <mxGeometry x="240" y="280" width="120" height="60" as="geometry" />
        </mxCell>
        <mxCell id="Z1F9n45qlafzjhstwx48-20" value="Mon profil" style="rounded=1;whiteSpace=wrap;html=1;fontSize=15;fillColor=#fff2cc;strokeColor=#d6b656;" parent="PyPf7zFrLs1YUarEp7F7-1" vertex="1">
          <mxGeometry x="80" y="380.03" width="120" height="60" as="geometry" />
        </mxCell>
        <mxCell id="Z1F9n45qlafzjhstwx48-24" style="edgeStyle=orthogonalEdgeStyle;rounded=0;orthogonalLoop=1;jettySize=auto;html=1;exitX=0.5;exitY=1;exitDx=0;exitDy=0;entryX=0;entryY=0.5;entryDx=0;entryDy=0;fontSize=19;endArrow=block;endFill=1;strokeWidth=2;" parent="PyPf7zFrLs1YUarEp7F7-1" target="Z1F9n45qlafzjhstwx48-26" edge="1">
          <mxGeometry relative="1" as="geometry">
            <mxPoint x="460" y="440" as="sourcePoint" />
            <Array as="points">
              <mxPoint x="460" y="500" />
            </Array>
          </mxGeometry>
        </mxCell>
        <mxCell id="Z1F9n45qlafzjhstwx48-25" value="Tout les articles" style="rounded=1;whiteSpace=wrap;html=1;fontSize=15;fillColor=#fff2cc;strokeColor=#d6b656;" parent="PyPf7zFrLs1YUarEp7F7-1" vertex="1">
          <mxGeometry x="440" y="380" width="120" height="60" as="geometry" />
        </mxCell>
        <mxCell id="Z1F9n45qlafzjhstwx48-26" value="Un article" style="rounded=1;whiteSpace=wrap;html=1;fontSize=15;fillColor=#e1d5e7;strokeColor=#9673a6;" parent="PyPf7zFrLs1YUarEp7F7-1" vertex="1">
          <mxGeometry x="480" y="470" width="120" height="60" as="geometry" />
        </mxCell>
        <mxCell id="Z1F9n45qlafzjhstwx48-27" value="Tout les documents" style="rounded=1;whiteSpace=wrap;html=1;fontSize=15;fillColor=#fff2cc;strokeColor=#d6b656;" parent="PyPf7zFrLs1YUarEp7F7-1" vertex="1">
          <mxGeometry x="680" y="380" width="120" height="60" as="geometry" />
        </mxCell>
        <mxCell id="Z1F9n45qlafzjhstwx48-28" value="Un document" style="rounded=1;whiteSpace=wrap;html=1;fontSize=15;fillColor=#e1d5e7;strokeColor=#9673a6;" parent="PyPf7zFrLs1YUarEp7F7-1" vertex="1">
          <mxGeometry x="720" y="470" width="120" height="60" as="geometry" />
        </mxCell>
        <mxCell id="Z1F9n45qlafzjhstwx48-32" value="Tout les praticiens" style="rounded=1;whiteSpace=wrap;html=1;fontSize=15;fillColor=#fff2cc;strokeColor=#d6b656;" parent="PyPf7zFrLs1YUarEp7F7-1" vertex="1">
          <mxGeometry x="900" y="380" width="120" height="60" as="geometry" />
        </mxCell>
        <mxCell id="Z1F9n45qlafzjhstwx48-33" value="Un praticien" style="rounded=1;whiteSpace=wrap;html=1;fontSize=15;fillColor=#e1d5e7;strokeColor=#9673a6;" parent="PyPf7zFrLs1YUarEp7F7-1" vertex="1">
          <mxGeometry x="940" y="470" width="120" height="60" as="geometry" />
        </mxCell>
        <mxCell id="Z1F9n45qlafzjhstwx48-35" style="edgeStyle=orthogonalEdgeStyle;rounded=0;orthogonalLoop=1;jettySize=auto;html=1;exitX=0.5;exitY=1;exitDx=0;exitDy=0;entryX=0;entryY=0.5;entryDx=0;entryDy=0;fontSize=19;endArrow=block;endFill=1;strokeWidth=2;" parent="PyPf7zFrLs1YUarEp7F7-1" edge="1">
          <mxGeometry relative="1" as="geometry">
            <mxPoint x="660" y="340.03" as="sourcePoint" />
            <mxPoint x="680" y="410.03" as="targetPoint" />
            <Array as="points">
              <mxPoint x="660" y="410.03" />
            </Array>
          </mxGeometry>
        </mxCell>
        <mxCell id="Z1F9n45qlafzjhstwx48-36" style="edgeStyle=orthogonalEdgeStyle;rounded=0;orthogonalLoop=1;jettySize=auto;html=1;exitX=0.5;exitY=1;exitDx=0;exitDy=0;entryX=0;entryY=0.5;entryDx=0;entryDy=0;fontSize=19;endArrow=block;endFill=1;strokeWidth=2;" parent="PyPf7zFrLs1YUarEp7F7-1" edge="1">
          <mxGeometry relative="1" as="geometry">
            <mxPoint x="700" y="440.03" as="sourcePoint" />
            <mxPoint x="720" y="500.03" as="targetPoint" />
            <Array as="points">
              <mxPoint x="700" y="500.03" />
            </Array>
          </mxGeometry>
        </mxCell>
        <mxCell id="Z1F9n45qlafzjhstwx48-39" style="edgeStyle=orthogonalEdgeStyle;rounded=0;orthogonalLoop=1;jettySize=auto;html=1;exitX=0.5;exitY=1;exitDx=0;exitDy=0;entryX=0;entryY=0.5;entryDx=0;entryDy=0;fontSize=19;endArrow=block;endFill=1;strokeWidth=2;" parent="PyPf7zFrLs1YUarEp7F7-1" edge="1">
          <mxGeometry relative="1" as="geometry">
            <mxPoint x="880" y="340.03" as="sourcePoint" />
            <mxPoint x="900" y="410.03" as="targetPoint" />
            <Array as="points">
              <mxPoint x="880" y="410.03" />
            </Array>
          </mxGeometry>
        </mxCell>
        <mxCell id="Z1F9n45qlafzjhstwx48-40" style="edgeStyle=orthogonalEdgeStyle;rounded=0;orthogonalLoop=1;jettySize=auto;html=1;exitX=0.5;exitY=1;exitDx=0;exitDy=0;entryX=0;entryY=0.5;entryDx=0;entryDy=0;fontSize=19;endArrow=block;endFill=1;strokeWidth=2;" parent="PyPf7zFrLs1YUarEp7F7-1" edge="1">
          <mxGeometry relative="1" as="geometry">
            <mxPoint x="920" y="440.03" as="sourcePoint" />
            <mxPoint x="940" y="500.03" as="targetPoint" />
            <Array as="points">
              <mxPoint x="920" y="500.03" />
            </Array>
          </mxGeometry>
        </mxCell>
        <mxCell id="Z1F9n45qlafzjhstwx48-41" value="Patients" style="rounded=1;whiteSpace=wrap;html=1;fontSize=19;fillColor=#f8cecc;strokeColor=#b85450;fontStyle=1" parent="PyPf7zFrLs1YUarEp7F7-1" vertex="1">
          <mxGeometry x="1100" y="280" width="120" height="60" as="geometry" />
        </mxCell>
        <mxCell id="Z1F9n45qlafzjhstwx48-42" value="Tout les patients" style="rounded=1;whiteSpace=wrap;html=1;fontSize=15;fillColor=#fff2cc;strokeColor=#d6b656;" parent="PyPf7zFrLs1YUarEp7F7-1" vertex="1">
          <mxGeometry x="1140" y="380" width="120" height="60" as="geometry" />
        </mxCell>
        <mxCell id="Z1F9n45qlafzjhstwx48-43" value="Un patient" style="rounded=1;whiteSpace=wrap;html=1;fontSize=15;fillColor=#e1d5e7;strokeColor=#9673a6;" parent="PyPf7zFrLs1YUarEp7F7-1" vertex="1">
          <mxGeometry x="1180" y="470" width="120" height="60" as="geometry" />
        </mxCell>
        <mxCell id="Z1F9n45qlafzjhstwx48-44" style="edgeStyle=orthogonalEdgeStyle;rounded=0;orthogonalLoop=1;jettySize=auto;html=1;exitX=0.5;exitY=1;exitDx=0;exitDy=0;entryX=0;entryY=0.5;entryDx=0;entryDy=0;fontSize=19;endArrow=block;endFill=1;strokeWidth=2;" parent="PyPf7zFrLs1YUarEp7F7-1" edge="1">
          <mxGeometry relative="1" as="geometry">
            <mxPoint x="1120" y="340.03" as="sourcePoint" />
            <mxPoint x="1140" y="410.03" as="targetPoint" />
            <Array as="points">
              <mxPoint x="1120" y="410.03" />
            </Array>
          </mxGeometry>
        </mxCell>
        <mxCell id="Z1F9n45qlafzjhstwx48-45" style="edgeStyle=orthogonalEdgeStyle;rounded=0;orthogonalLoop=1;jettySize=auto;html=1;exitX=0.5;exitY=1;exitDx=0;exitDy=0;entryX=0;entryY=0.5;entryDx=0;entryDy=0;fontSize=19;endArrow=block;endFill=1;strokeWidth=2;" parent="PyPf7zFrLs1YUarEp7F7-1" edge="1">
          <mxGeometry relative="1" as="geometry">
            <mxPoint x="1160" y="440.03" as="sourcePoint" />
            <mxPoint x="1180" y="500.03" as="targetPoint" />
            <Array as="points">
              <mxPoint x="1160" y="500.03" />
            </Array>
          </mxGeometry>
        </mxCell>
      </root>
    </mxGraphModel>
  </diagram>
  <diagram name="UML Class Diagram For Entities" id="e56a1550-8fbb-45ad-956c-1786394a9013">
    <mxGraphModel dx="1970" dy="1770" grid="1" gridSize="10" guides="1" tooltips="1" connect="1" arrows="1" fold="1" page="0" pageScale="1" pageWidth="1100" pageHeight="850" background="none" math="0" shadow="0">
      <root>
        <mxCell id="0" />
        <mxCell id="1" parent="0" />
        <mxCell id="Z3TGR_GgPMp7fBFcXkFp-4" value="User" style="swimlane;fontStyle=0;childLayout=stackLayout;horizontal=1;startSize=26;fillColor=none;horizontalStack=0;resizeParent=1;resizeParentMax=0;resizeLast=0;collapsible=1;marginBottom=0;" parent="1" vertex="1">
          <mxGeometry x="1240" y="-56" width="160" height="160" as="geometry" />
        </mxCell>
        <mxCell id="Z3TGR_GgPMp7fBFcXkFp-5" value="+ id: int&#xa;+ email: varchar 255&#xa;+ password: varchar 255&#xa;+ firstname: varchar 255&#xa;+ lastname: varchar 255&#xa;+ phone: vachar 255&#xa;+ roles: json&#xa;+ isVerified: bool&#xa;" style="text;strokeColor=none;fillColor=none;align=left;verticalAlign=top;spacingLeft=4;spacingRight=4;overflow=hidden;rotatable=0;points=[[0,0.5],[1,0.5]];portConstraint=eastwest;" parent="Z3TGR_GgPMp7fBFcXkFp-4" vertex="1">
          <mxGeometry y="26" width="160" height="134" as="geometry" />
        </mxCell>
        <mxCell id="Z3TGR_GgPMp7fBFcXkFp-10" style="edgeStyle=orthogonalEdgeStyle;rounded=0;orthogonalLoop=1;jettySize=auto;html=1;exitX=0.5;exitY=0;exitDx=0;exitDy=0;entryX=0.254;entryY=0.999;entryDx=0;entryDy=0;entryPerimeter=0;fontSize=12;endArrow=block;endFill=0;strokeWidth=1;" parent="1" source="Z3TGR_GgPMp7fBFcXkFp-6" target="Z3TGR_GgPMp7fBFcXkFp-5" edge="1">
          <mxGeometry relative="1" as="geometry" />
        </mxCell>
        <mxCell id="Z3TGR_GgPMp7fBFcXkFp-65" value="sends" style="edgeStyle=orthogonalEdgeStyle;rounded=0;orthogonalLoop=1;jettySize=auto;html=1;entryX=0.5;entryY=0;entryDx=0;entryDy=0;fontSize=19;endArrow=none;endFill=0;strokeWidth=1;" parent="1" source="Z3TGR_GgPMp7fBFcXkFp-6" target="Z3TGR_GgPMp7fBFcXkFp-58" edge="1">
          <mxGeometry relative="1" as="geometry" />
        </mxCell>
        <mxCell id="Z3TGR_GgPMp7fBFcXkFp-6" value="UserPatient" style="swimlane;fontStyle=0;childLayout=stackLayout;horizontal=1;startSize=26;fillColor=none;horizontalStack=0;resizeParent=1;resizeParentMax=0;resizeLast=0;collapsible=1;marginBottom=0;" parent="1" vertex="1">
          <mxGeometry x="1058" y="212" width="160" height="120" as="geometry" />
        </mxCell>
        <mxCell id="Z3TGR_GgPMp7fBFcXkFp-7" value="+Â pathology&#xa;" style="text;strokeColor=none;fillColor=none;align=left;verticalAlign=top;spacingLeft=4;spacingRight=4;overflow=hidden;rotatable=0;points=[[0,0.5],[1,0.5]];portConstraint=eastwest;" parent="Z3TGR_GgPMp7fBFcXkFp-6" vertex="1">
          <mxGeometry y="26" width="160" height="94" as="geometry" />
        </mxCell>
        <mxCell id="Z3TGR_GgPMp7fBFcXkFp-80" style="edgeStyle=orthogonalEdgeStyle;rounded=0;orthogonalLoop=1;jettySize=auto;html=1;exitX=0.75;exitY=0;exitDx=0;exitDy=0;entryX=0.5;entryY=1;entryDx=0;entryDy=0;fontSize=12;endArrow=none;endFill=0;strokeWidth=1;" parent="1" source="Z3TGR_GgPMp7fBFcXkFp-8" target="Z3TGR_GgPMp7fBFcXkFp-78" edge="1">
          <mxGeometry relative="1" as="geometry" />
        </mxCell>
        <mxCell id="Z3TGR_GgPMp7fBFcXkFp-8" value="UserPractitioner" style="swimlane;fontStyle=0;childLayout=stackLayout;horizontal=1;startSize=26;fillColor=none;horizontalStack=0;resizeParent=1;resizeParentMax=0;resizeLast=0;collapsible=1;marginBottom=0;" parent="1" vertex="1">
          <mxGeometry x="1412" y="212" width="160" height="120" as="geometry" />
        </mxCell>
        <mxCell id="Z3TGR_GgPMp7fBFcXkFp-9" value="+ speciality&#xa;" style="text;strokeColor=none;fillColor=none;align=left;verticalAlign=top;spacingLeft=4;spacingRight=4;overflow=hidden;rotatable=0;points=[[0,0.5],[1,0.5]];portConstraint=eastwest;" parent="Z3TGR_GgPMp7fBFcXkFp-8" vertex="1">
          <mxGeometry y="26" width="160" height="94" as="geometry" />
        </mxCell>
        <mxCell id="Z3TGR_GgPMp7fBFcXkFp-11" style="edgeStyle=orthogonalEdgeStyle;rounded=0;orthogonalLoop=1;jettySize=auto;html=1;exitX=0.5;exitY=0;exitDx=0;exitDy=0;entryX=0.748;entryY=1.003;entryDx=0;entryDy=0;entryPerimeter=0;fontSize=12;endArrow=block;endFill=0;strokeWidth=1;" parent="1" source="Z3TGR_GgPMp7fBFcXkFp-8" target="Z3TGR_GgPMp7fBFcXkFp-5" edge="1">
          <mxGeometry relative="1" as="geometry">
            <mxPoint x="1250" y="212.26999999999998" as="sourcePoint" />
            <mxPoint x="1333.3600000000001" y="104.00199999999995" as="targetPoint" />
          </mxGeometry>
        </mxCell>
        <mxCell id="Z3TGR_GgPMp7fBFcXkFp-12" value="Ressource" style="swimlane;fontStyle=0;childLayout=stackLayout;horizontal=1;startSize=26;fillColor=none;horizontalStack=0;resizeParent=1;resizeParentMax=0;resizeLast=0;collapsible=1;marginBottom=0;" parent="1" vertex="1">
          <mxGeometry x="1240" y="690" width="160" height="140" as="geometry" />
        </mxCell>
        <mxCell id="Z3TGR_GgPMp7fBFcXkFp-13" value="+ id: int&#xa;+ title: varchar 255&#xa;+ slug: varchar 255&#xa;+ content: longtext&#xa;+ image: varchar 255&#xa;+ createdAt: timeStamp&#xa;+ active: bool" style="text;strokeColor=none;fillColor=none;align=left;verticalAlign=top;spacingLeft=4;spacingRight=4;overflow=hidden;rotatable=0;points=[[0,0.5],[1,0.5]];portConstraint=eastwest;" parent="Z3TGR_GgPMp7fBFcXkFp-12" vertex="1">
          <mxGeometry y="26" width="160" height="114" as="geometry" />
        </mxCell>
        <mxCell id="Z3TGR_GgPMp7fBFcXkFp-20" style="edgeStyle=orthogonalEdgeStyle;rounded=0;orthogonalLoop=1;jettySize=auto;html=1;exitX=0.5;exitY=0;exitDx=0;exitDy=0;entryX=0.113;entryY=0.991;entryDx=0;entryDy=0;entryPerimeter=0;fontSize=12;endArrow=block;endFill=0;strokeWidth=1;" parent="1" source="Z3TGR_GgPMp7fBFcXkFp-14" target="Z3TGR_GgPMp7fBFcXkFp-13" edge="1">
          <mxGeometry relative="1" as="geometry">
            <Array as="points">
              <mxPoint x="880" y="850" />
              <mxPoint x="1258" y="850" />
            </Array>
          </mxGeometry>
        </mxCell>
        <mxCell id="Z3TGR_GgPMp7fBFcXkFp-14" value="Article" style="swimlane;fontStyle=0;childLayout=stackLayout;horizontal=1;startSize=26;fillColor=none;horizontalStack=0;resizeParent=1;resizeParentMax=0;resizeLast=0;collapsible=1;marginBottom=0;" parent="1" vertex="1">
          <mxGeometry x="799.97" y="900" width="160" height="80" as="geometry" />
        </mxCell>
        <mxCell id="Z3TGR_GgPMp7fBFcXkFp-22" style="edgeStyle=orthogonalEdgeStyle;rounded=0;orthogonalLoop=1;jettySize=auto;html=1;exitX=0.5;exitY=0;exitDx=0;exitDy=0;entryX=0.375;entryY=1;entryDx=0;entryDy=0;entryPerimeter=0;fontSize=12;endArrow=block;endFill=0;strokeWidth=1;" parent="1" source="Z3TGR_GgPMp7fBFcXkFp-16" target="Z3TGR_GgPMp7fBFcXkFp-13" edge="1">
          <mxGeometry relative="1" as="geometry" />
        </mxCell>
        <mxCell id="Z3TGR_GgPMp7fBFcXkFp-16" value="Document" style="swimlane;fontStyle=0;childLayout=stackLayout;horizontal=1;startSize=26;fillColor=none;horizontalStack=0;resizeParent=1;resizeParentMax=0;resizeLast=0;collapsible=1;marginBottom=0;" parent="1" vertex="1">
          <mxGeometry x="1039.97" y="900" width="160" height="80" as="geometry" />
        </mxCell>
        <mxCell id="Z3TGR_GgPMp7fBFcXkFp-23" style="edgeStyle=orthogonalEdgeStyle;rounded=0;orthogonalLoop=1;jettySize=auto;html=1;exitX=0.5;exitY=0;exitDx=0;exitDy=0;entryX=0.575;entryY=1.004;entryDx=0;entryDy=0;entryPerimeter=0;fontSize=12;endArrow=block;endFill=0;strokeWidth=1;" parent="1" source="Z3TGR_GgPMp7fBFcXkFp-17" target="Z3TGR_GgPMp7fBFcXkFp-13" edge="1">
          <mxGeometry relative="1" as="geometry" />
        </mxCell>
        <mxCell id="Z3TGR_GgPMp7fBFcXkFp-17" value="Service" style="swimlane;fontStyle=0;childLayout=stackLayout;horizontal=1;startSize=26;fillColor=none;horizontalStack=0;resizeParent=1;resizeParentMax=0;resizeLast=0;collapsible=1;marginBottom=0;" parent="1" vertex="1">
          <mxGeometry x="1320" y="900" width="160" height="80" as="geometry" />
        </mxCell>
        <mxCell id="9_cnEAWNq0LsMUVx3qx5-8" value="+ toolLink: varchar 255&#xa;" style="text;strokeColor=none;fillColor=none;align=left;verticalAlign=top;spacingLeft=4;spacingRight=4;overflow=hidden;rotatable=0;points=[[0,0.5],[1,0.5]];portConstraint=eastwest;" parent="Z3TGR_GgPMp7fBFcXkFp-17" vertex="1">
          <mxGeometry y="26" width="160" height="54" as="geometry" />
        </mxCell>
        <mxCell id="Z3TGR_GgPMp7fBFcXkFp-24" style="edgeStyle=orthogonalEdgeStyle;rounded=0;orthogonalLoop=1;jettySize=auto;html=1;exitX=0.5;exitY=0;exitDx=0;exitDy=0;entryX=0.852;entryY=1;entryDx=0;entryDy=0;entryPerimeter=0;fontSize=12;endArrow=block;endFill=0;strokeWidth=1;" parent="1" source="Z3TGR_GgPMp7fBFcXkFp-18" target="Z3TGR_GgPMp7fBFcXkFp-13" edge="1">
          <mxGeometry relative="1" as="geometry">
            <Array as="points">
              <mxPoint x="1680" y="850" />
              <mxPoint x="1376" y="850" />
            </Array>
          </mxGeometry>
        </mxCell>
        <mxCell id="9_cnEAWNq0LsMUVx3qx5-5" value="books" style="edgeStyle=orthogonalEdgeStyle;rounded=0;orthogonalLoop=1;jettySize=auto;html=1;exitX=1;exitY=0.5;exitDx=0;exitDy=0;entryX=0;entryY=0.5;entryDx=0;entryDy=0;fontSize=19;endArrow=none;endFill=0;strokeWidth=1;" parent="1" source="Z3TGR_GgPMp7fBFcXkFp-18" target="Z3TGR_GgPMp7fBFcXkFp-84" edge="1">
          <mxGeometry x="-0.0176" relative="1" as="geometry">
            <Array as="points">
              <mxPoint x="1840" y="940" />
              <mxPoint x="1840" y="1250" />
              <mxPoint x="660" y="1250" />
              <mxPoint x="660" y="129" />
            </Array>
            <mxPoint as="offset" />
          </mxGeometry>
        </mxCell>
        <mxCell id="Z3TGR_GgPMp7fBFcXkFp-18" value="Webinar" style="swimlane;fontStyle=0;childLayout=stackLayout;horizontal=1;startSize=26;fillColor=none;horizontalStack=0;resizeParent=1;resizeParentMax=0;resizeLast=0;collapsible=1;marginBottom=0;" parent="1" vertex="1">
          <mxGeometry x="1600" y="900" width="160" height="80" as="geometry" />
        </mxCell>
        <mxCell id="Z3TGR_GgPMp7fBFcXkFp-32" style="edgeStyle=orthogonalEdgeStyle;rounded=0;orthogonalLoop=1;jettySize=auto;html=1;exitX=0.5;exitY=0;exitDx=0;exitDy=0;entryX=0.5;entryY=1;entryDx=0;entryDy=0;fontSize=12;endArrow=none;endFill=0;strokeWidth=1;" parent="1" source="Z3TGR_GgPMp7fBFcXkFp-25" target="Z3TGR_GgPMp7fBFcXkFp-14" edge="1">
          <mxGeometry relative="1" as="geometry" />
        </mxCell>
        <mxCell id="Z3TGR_GgPMp7fBFcXkFp-25" value="ArticleCategory" style="swimlane;fontStyle=0;childLayout=stackLayout;horizontal=1;startSize=26;fillColor=none;horizontalStack=0;resizeParent=1;resizeParentMax=0;resizeLast=0;collapsible=1;marginBottom=0;" parent="1" vertex="1">
          <mxGeometry x="799.97" y="1060" width="160" height="70" as="geometry" />
        </mxCell>
        <mxCell id="Z3TGR_GgPMp7fBFcXkFp-26" value="+ id: int&#xa;+ name: varchar 255" style="text;strokeColor=none;fillColor=none;align=left;verticalAlign=top;spacingLeft=4;spacingRight=4;overflow=hidden;rotatable=0;points=[[0,0.5],[1,0.5]];portConstraint=eastwest;" parent="Z3TGR_GgPMp7fBFcXkFp-25" vertex="1">
          <mxGeometry y="26" width="160" height="44" as="geometry" />
        </mxCell>
        <mxCell id="Z3TGR_GgPMp7fBFcXkFp-27" style="edgeStyle=orthogonalEdgeStyle;rounded=0;orthogonalLoop=1;jettySize=auto;html=1;exitX=1;exitY=0.5;exitDx=0;exitDy=0;endArrow=none;endFill=0;" parent="Z3TGR_GgPMp7fBFcXkFp-25" source="Z3TGR_GgPMp7fBFcXkFp-26" target="Z3TGR_GgPMp7fBFcXkFp-26" edge="1">
          <mxGeometry relative="1" as="geometry">
            <Array as="points">
              <mxPoint x="200" y="48" />
              <mxPoint x="200" y="100" />
              <mxPoint x="80" y="100" />
            </Array>
          </mxGeometry>
        </mxCell>
        <mxCell id="Z3TGR_GgPMp7fBFcXkFp-28" value="1..1" style="text;html=1;strokeColor=none;fillColor=none;align=center;verticalAlign=middle;whiteSpace=wrap;rounded=0;" parent="1" vertex="1">
          <mxGeometry x="879.97" y="1040" width="22" height="20" as="geometry" />
        </mxCell>
        <mxCell id="Z3TGR_GgPMp7fBFcXkFp-29" value="1..1" style="text;html=1;strokeColor=none;fillColor=none;align=center;verticalAlign=middle;whiteSpace=wrap;rounded=0;" parent="1" vertex="1">
          <mxGeometry x="959.97" y="1090" width="22" height="20" as="geometry" />
        </mxCell>
        <mxCell id="Z3TGR_GgPMp7fBFcXkFp-30" value="0..*" style="text;html=1;strokeColor=none;fillColor=none;align=center;verticalAlign=middle;whiteSpace=wrap;rounded=0;" parent="1" vertex="1">
          <mxGeometry x="857.97" y="1130" width="22" height="20" as="geometry" />
        </mxCell>
        <mxCell id="Z3TGR_GgPMp7fBFcXkFp-33" value="0..*" style="text;html=1;strokeColor=none;fillColor=none;align=center;verticalAlign=middle;whiteSpace=wrap;rounded=0;" parent="1" vertex="1">
          <mxGeometry x="879.97" y="980" width="22" height="20" as="geometry" />
        </mxCell>
        <mxCell id="Z3TGR_GgPMp7fBFcXkFp-34" style="edgeStyle=orthogonalEdgeStyle;rounded=0;orthogonalLoop=1;jettySize=auto;html=1;exitX=0.5;exitY=0;exitDx=0;exitDy=0;entryX=0.5;entryY=1;entryDx=0;entryDy=0;fontSize=12;endArrow=none;endFill=0;strokeWidth=1;" parent="1" source="Z3TGR_GgPMp7fBFcXkFp-35" edge="1">
          <mxGeometry relative="1" as="geometry">
            <mxPoint x="1119.97" y="980.0000000000002" as="targetPoint" />
          </mxGeometry>
        </mxCell>
        <mxCell id="Z3TGR_GgPMp7fBFcXkFp-35" value="DocumentCategory" style="swimlane;fontStyle=0;childLayout=stackLayout;horizontal=1;startSize=26;fillColor=none;horizontalStack=0;resizeParent=1;resizeParentMax=0;resizeLast=0;collapsible=1;marginBottom=0;" parent="1" vertex="1">
          <mxGeometry x="1039.97" y="1060" width="160" height="70" as="geometry" />
        </mxCell>
        <mxCell id="Z3TGR_GgPMp7fBFcXkFp-36" value="+ id: int&#xa;+ name: varchar 255" style="text;strokeColor=none;fillColor=none;align=left;verticalAlign=top;spacingLeft=4;spacingRight=4;overflow=hidden;rotatable=0;points=[[0,0.5],[1,0.5]];portConstraint=eastwest;" parent="Z3TGR_GgPMp7fBFcXkFp-35" vertex="1">
          <mxGeometry y="26" width="160" height="44" as="geometry" />
        </mxCell>
        <mxCell id="Z3TGR_GgPMp7fBFcXkFp-37" style="edgeStyle=orthogonalEdgeStyle;rounded=0;orthogonalLoop=1;jettySize=auto;html=1;exitX=1;exitY=0.5;exitDx=0;exitDy=0;endArrow=none;endFill=0;" parent="Z3TGR_GgPMp7fBFcXkFp-35" source="Z3TGR_GgPMp7fBFcXkFp-36" target="Z3TGR_GgPMp7fBFcXkFp-36" edge="1">
          <mxGeometry relative="1" as="geometry">
            <Array as="points">
              <mxPoint x="200" y="48" />
              <mxPoint x="200" y="100" />
              <mxPoint x="80" y="100" />
            </Array>
          </mxGeometry>
        </mxCell>
        <mxCell id="Z3TGR_GgPMp7fBFcXkFp-38" value="1..1" style="text;html=1;strokeColor=none;fillColor=none;align=center;verticalAlign=middle;whiteSpace=wrap;rounded=0;" parent="1" vertex="1">
          <mxGeometry x="1119.97" y="1040" width="22" height="20" as="geometry" />
        </mxCell>
        <mxCell id="Z3TGR_GgPMp7fBFcXkFp-39" value="1..1" style="text;html=1;strokeColor=none;fillColor=none;align=center;verticalAlign=middle;whiteSpace=wrap;rounded=0;" parent="1" vertex="1">
          <mxGeometry x="1199.97" y="1090" width="22" height="20" as="geometry" />
        </mxCell>
        <mxCell id="Z3TGR_GgPMp7fBFcXkFp-40" value="0..*" style="text;html=1;strokeColor=none;fillColor=none;align=center;verticalAlign=middle;whiteSpace=wrap;rounded=0;" parent="1" vertex="1">
          <mxGeometry x="1097.97" y="1130" width="22" height="20" as="geometry" />
        </mxCell>
        <mxCell id="Z3TGR_GgPMp7fBFcXkFp-41" value="0..*" style="text;html=1;strokeColor=none;fillColor=none;align=center;verticalAlign=middle;whiteSpace=wrap;rounded=0;" parent="1" vertex="1">
          <mxGeometry x="1119.97" y="980" width="22" height="20" as="geometry" />
        </mxCell>
        <mxCell id="Z3TGR_GgPMp7fBFcXkFp-42" style="edgeStyle=orthogonalEdgeStyle;rounded=0;orthogonalLoop=1;jettySize=auto;html=1;exitX=0.5;exitY=0;exitDx=0;exitDy=0;entryX=0.5;entryY=1;entryDx=0;entryDy=0;fontSize=12;endArrow=none;endFill=0;strokeWidth=1;" parent="1" source="Z3TGR_GgPMp7fBFcXkFp-43" edge="1">
          <mxGeometry relative="1" as="geometry">
            <mxPoint x="1400.0000000000002" y="980.0000000000002" as="targetPoint" />
          </mxGeometry>
        </mxCell>
        <mxCell id="Z3TGR_GgPMp7fBFcXkFp-43" value="ServiceCategory" style="swimlane;fontStyle=0;childLayout=stackLayout;horizontal=1;startSize=26;fillColor=none;horizontalStack=0;resizeParent=1;resizeParentMax=0;resizeLast=0;collapsible=1;marginBottom=0;" parent="1" vertex="1">
          <mxGeometry x="1320" y="1060" width="160" height="70" as="geometry" />
        </mxCell>
        <mxCell id="Z3TGR_GgPMp7fBFcXkFp-44" value="+ id: int&#xa;+ name: varchar 255" style="text;strokeColor=none;fillColor=none;align=left;verticalAlign=top;spacingLeft=4;spacingRight=4;overflow=hidden;rotatable=0;points=[[0,0.5],[1,0.5]];portConstraint=eastwest;" parent="Z3TGR_GgPMp7fBFcXkFp-43" vertex="1">
          <mxGeometry y="26" width="160" height="44" as="geometry" />
        </mxCell>
        <mxCell id="Z3TGR_GgPMp7fBFcXkFp-45" style="edgeStyle=orthogonalEdgeStyle;rounded=0;orthogonalLoop=1;jettySize=auto;html=1;exitX=1;exitY=0.5;exitDx=0;exitDy=0;endArrow=none;endFill=0;" parent="Z3TGR_GgPMp7fBFcXkFp-43" source="Z3TGR_GgPMp7fBFcXkFp-44" target="Z3TGR_GgPMp7fBFcXkFp-44" edge="1">
          <mxGeometry relative="1" as="geometry">
            <Array as="points">
              <mxPoint x="200" y="48" />
              <mxPoint x="200" y="100" />
              <mxPoint x="80" y="100" />
            </Array>
          </mxGeometry>
        </mxCell>
        <mxCell id="Z3TGR_GgPMp7fBFcXkFp-46" value="1..1" style="text;html=1;strokeColor=none;fillColor=none;align=center;verticalAlign=middle;whiteSpace=wrap;rounded=0;" parent="1" vertex="1">
          <mxGeometry x="1400" y="1040" width="22" height="20" as="geometry" />
        </mxCell>
        <mxCell id="Z3TGR_GgPMp7fBFcXkFp-47" value="1..1" style="text;html=1;strokeColor=none;fillColor=none;align=center;verticalAlign=middle;whiteSpace=wrap;rounded=0;" parent="1" vertex="1">
          <mxGeometry x="1480" y="1090" width="22" height="20" as="geometry" />
        </mxCell>
        <mxCell id="Z3TGR_GgPMp7fBFcXkFp-48" value="0..*" style="text;html=1;strokeColor=none;fillColor=none;align=center;verticalAlign=middle;whiteSpace=wrap;rounded=0;" parent="1" vertex="1">
          <mxGeometry x="1378" y="1130" width="22" height="20" as="geometry" />
        </mxCell>
        <mxCell id="Z3TGR_GgPMp7fBFcXkFp-49" value="0..*" style="text;html=1;strokeColor=none;fillColor=none;align=center;verticalAlign=middle;whiteSpace=wrap;rounded=0;" parent="1" vertex="1">
          <mxGeometry x="1400" y="980" width="22" height="20" as="geometry" />
        </mxCell>
        <mxCell id="Z3TGR_GgPMp7fBFcXkFp-50" style="edgeStyle=orthogonalEdgeStyle;rounded=0;orthogonalLoop=1;jettySize=auto;html=1;exitX=0.5;exitY=0;exitDx=0;exitDy=0;entryX=0.5;entryY=1;entryDx=0;entryDy=0;fontSize=12;endArrow=none;endFill=0;strokeWidth=1;" parent="1" source="Z3TGR_GgPMp7fBFcXkFp-51" edge="1">
          <mxGeometry relative="1" as="geometry">
            <mxPoint x="1680" y="980.0000000000002" as="targetPoint" />
          </mxGeometry>
        </mxCell>
        <mxCell id="Z3TGR_GgPMp7fBFcXkFp-51" value="WebinarCategory" style="swimlane;fontStyle=0;childLayout=stackLayout;horizontal=1;startSize=26;fillColor=none;horizontalStack=0;resizeParent=1;resizeParentMax=0;resizeLast=0;collapsible=1;marginBottom=0;" parent="1" vertex="1">
          <mxGeometry x="1600" y="1060" width="160" height="70" as="geometry" />
        </mxCell>
        <mxCell id="Z3TGR_GgPMp7fBFcXkFp-52" value="+ id: int&#xa;+ name: varchar 255" style="text;strokeColor=none;fillColor=none;align=left;verticalAlign=top;spacingLeft=4;spacingRight=4;overflow=hidden;rotatable=0;points=[[0,0.5],[1,0.5]];portConstraint=eastwest;" parent="Z3TGR_GgPMp7fBFcXkFp-51" vertex="1">
          <mxGeometry y="26" width="160" height="44" as="geometry" />
        </mxCell>
        <mxCell id="Z3TGR_GgPMp7fBFcXkFp-53" style="edgeStyle=orthogonalEdgeStyle;rounded=0;orthogonalLoop=1;jettySize=auto;html=1;exitX=1;exitY=0.5;exitDx=0;exitDy=0;endArrow=none;endFill=0;" parent="Z3TGR_GgPMp7fBFcXkFp-51" source="Z3TGR_GgPMp7fBFcXkFp-52" target="Z3TGR_GgPMp7fBFcXkFp-52" edge="1">
          <mxGeometry relative="1" as="geometry">
            <Array as="points">
              <mxPoint x="200" y="48" />
              <mxPoint x="200" y="100" />
              <mxPoint x="80" y="100" />
            </Array>
          </mxGeometry>
        </mxCell>
        <mxCell id="Z3TGR_GgPMp7fBFcXkFp-54" value="1..1" style="text;html=1;strokeColor=none;fillColor=none;align=center;verticalAlign=middle;whiteSpace=wrap;rounded=0;" parent="1" vertex="1">
          <mxGeometry x="1680" y="1040" width="22" height="20" as="geometry" />
        </mxCell>
        <mxCell id="Z3TGR_GgPMp7fBFcXkFp-55" value="1..1" style="text;html=1;strokeColor=none;fillColor=none;align=center;verticalAlign=middle;whiteSpace=wrap;rounded=0;" parent="1" vertex="1">
          <mxGeometry x="1760" y="1090" width="22" height="20" as="geometry" />
        </mxCell>
        <mxCell id="Z3TGR_GgPMp7fBFcXkFp-56" value="0..*" style="text;html=1;strokeColor=none;fillColor=none;align=center;verticalAlign=middle;whiteSpace=wrap;rounded=0;" parent="1" vertex="1">
          <mxGeometry x="1658" y="1130" width="22" height="20" as="geometry" />
        </mxCell>
        <mxCell id="Z3TGR_GgPMp7fBFcXkFp-57" value="0..*" style="text;html=1;strokeColor=none;fillColor=none;align=center;verticalAlign=middle;whiteSpace=wrap;rounded=0;" parent="1" vertex="1">
          <mxGeometry x="1680" y="980" width="22" height="20" as="geometry" />
        </mxCell>
        <mxCell id="Z3TGR_GgPMp7fBFcXkFp-66" value="sends" style="edgeStyle=orthogonalEdgeStyle;rounded=0;orthogonalLoop=1;jettySize=auto;html=1;exitX=0.75;exitY=0;exitDx=0;exitDy=0;entryX=0.237;entryY=1.009;entryDx=0;entryDy=0;entryPerimeter=0;fontSize=19;endArrow=none;endFill=0;strokeWidth=1;" parent="1" source="Z3TGR_GgPMp7fBFcXkFp-58" target="Z3TGR_GgPMp7fBFcXkFp-9" edge="1">
          <mxGeometry x="0.4668" relative="1" as="geometry">
            <Array as="points">
              <mxPoint x="1178" y="380" />
              <mxPoint x="1450" y="380" />
            </Array>
            <mxPoint as="offset" />
          </mxGeometry>
        </mxCell>
        <mxCell id="Z3TGR_GgPMp7fBFcXkFp-58" value="Message" style="swimlane;fontStyle=0;childLayout=stackLayout;horizontal=1;startSize=26;fillColor=none;horizontalStack=0;resizeParent=1;resizeParentMax=0;resizeLast=0;collapsible=1;marginBottom=0;" parent="1" vertex="1">
          <mxGeometry x="1058" y="425" width="160" height="90" as="geometry" />
        </mxCell>
        <mxCell id="Z3TGR_GgPMp7fBFcXkFp-59" value="+ id: int&#xa;+ createdAt: datetime&#xa;+ message: longtext" style="text;strokeColor=none;fillColor=none;align=left;verticalAlign=top;spacingLeft=4;spacingRight=4;overflow=hidden;rotatable=0;points=[[0,0.5],[1,0.5]];portConstraint=eastwest;" parent="Z3TGR_GgPMp7fBFcXkFp-58" vertex="1">
          <mxGeometry y="26" width="160" height="64" as="geometry" />
        </mxCell>
        <mxCell id="Z3TGR_GgPMp7fBFcXkFp-60" value="Conversation" style="swimlane;fontStyle=0;childLayout=stackLayout;horizontal=1;startSize=26;fillColor=none;horizontalStack=0;resizeParent=1;resizeParentMax=0;resizeLast=0;collapsible=1;marginBottom=0;" parent="1" vertex="1">
          <mxGeometry x="1412" y="435" width="160" height="70" as="geometry" />
        </mxCell>
        <mxCell id="Z3TGR_GgPMp7fBFcXkFp-61" value="+ id: int&#xa;+ lastMessageId: int" style="text;strokeColor=none;fillColor=none;align=left;verticalAlign=top;spacingLeft=4;spacingRight=4;overflow=hidden;rotatable=0;points=[[0,0.5],[1,0.5]];portConstraint=eastwest;" parent="Z3TGR_GgPMp7fBFcXkFp-60" vertex="1">
          <mxGeometry y="26" width="160" height="44" as="geometry" />
        </mxCell>
        <mxCell id="Z3TGR_GgPMp7fBFcXkFp-62" value="contains" style="edgeStyle=orthogonalEdgeStyle;rounded=0;orthogonalLoop=1;jettySize=auto;html=1;entryX=0;entryY=0.5;entryDx=0;entryDy=0;fontSize=19;endArrow=none;endFill=0;strokeWidth=1;" parent="1" source="Z3TGR_GgPMp7fBFcXkFp-59" target="Z3TGR_GgPMp7fBFcXkFp-61" edge="1">
          <mxGeometry x="-0.1546" relative="1" as="geometry">
            <mxPoint as="offset" />
          </mxGeometry>
        </mxCell>
        <mxCell id="Z3TGR_GgPMp7fBFcXkFp-63" value="1..*" style="text;html=1;strokeColor=none;fillColor=none;align=center;verticalAlign=middle;whiteSpace=wrap;rounded=0;" parent="1" vertex="1">
          <mxGeometry x="1218" y="460" width="22" height="20" as="geometry" />
        </mxCell>
        <mxCell id="Z3TGR_GgPMp7fBFcXkFp-64" value="1..1" style="text;html=1;strokeColor=none;fillColor=none;align=center;verticalAlign=middle;whiteSpace=wrap;rounded=0;" parent="1" vertex="1">
          <mxGeometry x="1390" y="460" width="22" height="20" as="geometry" />
        </mxCell>
        <mxCell id="Z3TGR_GgPMp7fBFcXkFp-67" value="1..1" style="text;html=1;strokeColor=none;fillColor=none;align=center;verticalAlign=middle;whiteSpace=wrap;rounded=0;" parent="1" vertex="1">
          <mxGeometry x="1110" y="332" width="22" height="20" as="geometry" />
        </mxCell>
        <mxCell id="Z3TGR_GgPMp7fBFcXkFp-68" value="0..*" style="text;html=1;strokeColor=none;fillColor=none;align=center;verticalAlign=middle;whiteSpace=wrap;rounded=0;" parent="1" vertex="1">
          <mxGeometry x="1110" y="405" width="22" height="20" as="geometry" />
        </mxCell>
        <mxCell id="Z3TGR_GgPMp7fBFcXkFp-69" value="0..*" style="text;html=1;strokeColor=none;fillColor=none;align=center;verticalAlign=middle;whiteSpace=wrap;rounded=0;" parent="1" vertex="1">
          <mxGeometry x="1177.97" y="405" width="22" height="20" as="geometry" />
        </mxCell>
        <mxCell id="Z3TGR_GgPMp7fBFcXkFp-70" value="1..1" style="text;html=1;strokeColor=none;fillColor=none;align=center;verticalAlign=middle;whiteSpace=wrap;rounded=0;" parent="1" vertex="1">
          <mxGeometry x="1422" y="332" width="22" height="20" as="geometry" />
        </mxCell>
        <mxCell id="Z3TGR_GgPMp7fBFcXkFp-72" value="participates" style="edgeStyle=orthogonalEdgeStyle;rounded=0;orthogonalLoop=1;jettySize=auto;html=1;exitX=0;exitY=1;exitDx=0;exitDy=0;entryX=0;entryY=0.25;entryDx=0;entryDy=0;fontSize=19;endArrow=none;endFill=0;strokeWidth=1;" parent="1" source="Z3TGR_GgPMp7fBFcXkFp-74" target="Z3TGR_GgPMp7fBFcXkFp-60" edge="1">
          <mxGeometry x="-0.4132" relative="1" as="geometry">
            <Array as="points">
              <mxPoint x="1218" y="260" />
              <mxPoint x="1290" y="260" />
              <mxPoint x="1290" y="453" />
            </Array>
            <mxPoint as="offset" />
          </mxGeometry>
        </mxCell>
        <mxCell id="Z3TGR_GgPMp7fBFcXkFp-73" value="participates" style="edgeStyle=orthogonalEdgeStyle;rounded=0;orthogonalLoop=1;jettySize=auto;html=1;exitX=0.535;exitY=1.011;exitDx=0;exitDy=0;fontSize=19;endArrow=none;endFill=0;strokeWidth=1;exitPerimeter=0;" parent="1" source="Z3TGR_GgPMp7fBFcXkFp-9" edge="1">
          <mxGeometry x="0.3127" relative="1" as="geometry">
            <mxPoint x="1498" y="435" as="targetPoint" />
            <Array as="points">
              <mxPoint x="1498" y="400" />
              <mxPoint x="1498" y="400" />
              <mxPoint x="1498" y="435" />
            </Array>
            <mxPoint as="offset" />
          </mxGeometry>
        </mxCell>
        <mxCell id="Z3TGR_GgPMp7fBFcXkFp-74" value="1..1" style="text;html=1;strokeColor=none;fillColor=none;align=center;verticalAlign=middle;whiteSpace=wrap;rounded=0;" parent="1" vertex="1">
          <mxGeometry x="1218" y="242" width="22" height="20" as="geometry" />
        </mxCell>
        <mxCell id="Z3TGR_GgPMp7fBFcXkFp-76" value="0..*" style="text;html=1;strokeColor=none;fillColor=none;align=center;verticalAlign=middle;whiteSpace=wrap;rounded=0;" parent="1" vertex="1">
          <mxGeometry x="1390" y="435" width="22" height="20" as="geometry" />
        </mxCell>
        <mxCell id="Z3TGR_GgPMp7fBFcXkFp-77" value="0..*" style="text;html=1;strokeColor=none;fillColor=none;align=center;verticalAlign=middle;whiteSpace=wrap;rounded=0;" parent="1" vertex="1">
          <mxGeometry x="1502" y="415" width="22" height="20" as="geometry" />
        </mxCell>
        <mxCell id="Z3TGR_GgPMp7fBFcXkFp-78" value="disponibility" style="swimlane;fontStyle=0;childLayout=stackLayout;horizontal=1;startSize=26;fillColor=none;horizontalStack=0;resizeParent=1;resizeParentMax=0;resizeLast=0;collapsible=1;marginBottom=0;" parent="1" vertex="1">
          <mxGeometry x="1560" y="16" width="180" height="110" as="geometry" />
        </mxCell>
        <mxCell id="Z3TGR_GgPMp7fBFcXkFp-79" value="+ id: int&#xa;+ DateHour: datetime&#xa;+ serviceName: varchar 255&#xa;+ serviceContent: longtext" style="text;strokeColor=none;fillColor=none;align=left;verticalAlign=top;spacingLeft=4;spacingRight=4;overflow=hidden;rotatable=0;points=[[0,0.5],[1,0.5]];portConstraint=eastwest;" parent="Z3TGR_GgPMp7fBFcXkFp-78" vertex="1">
          <mxGeometry y="26" width="180" height="84" as="geometry" />
        </mxCell>
        <mxCell id="Z3TGR_GgPMp7fBFcXkFp-81" value="0..*" style="text;html=1;strokeColor=none;fillColor=none;align=center;verticalAlign=middle;whiteSpace=wrap;rounded=0;" parent="1" vertex="1">
          <mxGeometry x="1650" y="126" width="22" height="20" as="geometry" />
        </mxCell>
        <mxCell id="Z3TGR_GgPMp7fBFcXkFp-82" value="1..1" style="text;html=1;strokeColor=none;fillColor=none;align=center;verticalAlign=middle;whiteSpace=wrap;rounded=0;" parent="1" vertex="1">
          <mxGeometry x="1533" y="192" width="22" height="20" as="geometry" />
        </mxCell>
        <mxCell id="Z3TGR_GgPMp7fBFcXkFp-88" value="books" style="edgeStyle=orthogonalEdgeStyle;rounded=0;orthogonalLoop=1;jettySize=auto;html=1;exitX=0.5;exitY=0;exitDx=0;exitDy=0;entryX=0.5;entryY=0;entryDx=0;entryDy=0;fontSize=19;endArrow=none;endFill=0;strokeWidth=1;" parent="1" source="Z3TGR_GgPMp7fBFcXkFp-83" target="Z3TGR_GgPMp7fBFcXkFp-78" edge="1">
          <mxGeometry x="0.0138" relative="1" as="geometry">
            <Array as="points">
              <mxPoint x="830" y="-90" />
              <mxPoint x="1650" y="-90" />
            </Array>
            <mxPoint as="offset" />
          </mxGeometry>
        </mxCell>
        <mxCell id="Z3TGR_GgPMp7fBFcXkFp-83" value="Agenda" style="swimlane;fontStyle=0;childLayout=stackLayout;horizontal=1;startSize=26;fillColor=none;horizontalStack=0;resizeParent=1;resizeParentMax=0;resizeLast=0;collapsible=1;marginBottom=0;" parent="1" vertex="1">
          <mxGeometry x="740" y="71" width="180" height="90" as="geometry" />
        </mxCell>
        <mxCell id="Z3TGR_GgPMp7fBFcXkFp-84" value="+ id: int&#xa;+ DateHour: datetime&#xa;+ content: longtext" style="text;strokeColor=none;fillColor=none;align=left;verticalAlign=top;spacingLeft=4;spacingRight=4;overflow=hidden;rotatable=0;points=[[0,0.5],[1,0.5]];portConstraint=eastwest;" parent="Z3TGR_GgPMp7fBFcXkFp-83" vertex="1">
          <mxGeometry y="26" width="180" height="64" as="geometry" />
        </mxCell>
        <mxCell id="Z3TGR_GgPMp7fBFcXkFp-85" style="edgeStyle=orthogonalEdgeStyle;rounded=0;orthogonalLoop=1;jettySize=auto;html=1;fontSize=12;endArrow=none;endFill=0;strokeWidth=1;" parent="1" target="Z3TGR_GgPMp7fBFcXkFp-84" edge="1">
          <mxGeometry relative="1" as="geometry">
            <mxPoint x="1058" y="250" as="sourcePoint" />
            <Array as="points">
              <mxPoint x="1058" y="250" />
              <mxPoint x="1000" y="250" />
              <mxPoint x="1000" y="115" />
            </Array>
          </mxGeometry>
        </mxCell>
        <mxCell id="Z3TGR_GgPMp7fBFcXkFp-86" value="0..*" style="text;html=1;strokeColor=none;fillColor=none;align=center;verticalAlign=middle;whiteSpace=wrap;rounded=0;" parent="1" vertex="1">
          <mxGeometry x="920" y="90" width="22" height="20" as="geometry" />
        </mxCell>
        <mxCell id="Z3TGR_GgPMp7fBFcXkFp-87" value="1..1" style="text;html=1;strokeColor=none;fillColor=none;align=center;verticalAlign=middle;whiteSpace=wrap;rounded=0;" parent="1" vertex="1">
          <mxGeometry x="1036" y="225" width="22" height="20" as="geometry" />
        </mxCell>
        <mxCell id="Z3TGR_GgPMp7fBFcXkFp-89" value="0..*" style="text;html=1;strokeColor=none;fillColor=none;align=center;verticalAlign=middle;whiteSpace=wrap;rounded=0;" parent="1" vertex="1">
          <mxGeometry x="1650" y="-4" width="22" height="20" as="geometry" />
        </mxCell>
        <mxCell id="Z3TGR_GgPMp7fBFcXkFp-90" value="0..1" style="text;html=1;strokeColor=none;fillColor=none;align=center;verticalAlign=middle;whiteSpace=wrap;rounded=0;" parent="1" vertex="1">
          <mxGeometry x="830" y="50" width="22" height="20" as="geometry" />
        </mxCell>
        <mxCell id="Z3TGR_GgPMp7fBFcXkFp-92" value="0..*" style="text;html=1;strokeColor=none;fillColor=none;align=center;verticalAlign=middle;whiteSpace=wrap;rounded=0;" parent="1" vertex="1">
          <mxGeometry x="1036" y="320" width="22" height="20" as="geometry" />
        </mxCell>
        <mxCell id="Z3TGR_GgPMp7fBFcXkFp-96" value="0..*" style="text;html=1;strokeColor=none;fillColor=none;align=center;verticalAlign=middle;whiteSpace=wrap;rounded=0;" parent="1" vertex="1">
          <mxGeometry x="1572" y="262" width="22" height="20" as="geometry" />
        </mxCell>
        <mxCell id="Z3TGR_GgPMp7fBFcXkFp-115" value="1..1" style="text;html=1;strokeColor=none;fillColor=none;align=center;verticalAlign=middle;whiteSpace=wrap;rounded=0;" parent="1" vertex="1">
          <mxGeometry x="1502" y="332" width="22" height="20" as="geometry" />
        </mxCell>
        <mxCell id="Z3TGR_GgPMp7fBFcXkFp-117" value="uses" style="edgeStyle=orthogonalEdgeStyle;rounded=0;orthogonalLoop=1;jettySize=auto;html=1;entryX=0;entryY=0.5;entryDx=0;entryDy=0;fontSize=19;endArrow=none;endFill=0;strokeWidth=1;" parent="1" target="Z3TGR_GgPMp7fBFcXkFp-13" edge="1">
          <mxGeometry relative="1" as="geometry">
            <Array as="points">
              <mxPoint x="1058" y="320" />
              <mxPoint x="1000" y="320" />
              <mxPoint x="1000" y="773" />
            </Array>
            <mxPoint x="1058" y="320" as="sourcePoint" />
          </mxGeometry>
        </mxCell>
        <mxCell id="Z3TGR_GgPMp7fBFcXkFp-118" value="pushes" style="edgeStyle=orthogonalEdgeStyle;rounded=0;orthogonalLoop=1;jettySize=auto;html=1;exitX=1;exitY=0.5;exitDx=0;exitDy=0;entryX=1;entryY=0.5;entryDx=0;entryDy=0;fontSize=19;endArrow=none;endFill=0;strokeWidth=1;" parent="1" source="Z3TGR_GgPMp7fBFcXkFp-9" target="Z3TGR_GgPMp7fBFcXkFp-13" edge="1">
          <mxGeometry relative="1" as="geometry">
            <Array as="points">
              <mxPoint x="1620" y="285" />
              <mxPoint x="1620" y="773" />
            </Array>
          </mxGeometry>
        </mxCell>
        <mxCell id="Z3TGR_GgPMp7fBFcXkFp-119" value="0..*" style="text;html=1;strokeColor=none;fillColor=none;align=center;verticalAlign=middle;whiteSpace=wrap;rounded=0;" parent="1" vertex="1">
          <mxGeometry x="1400" y="750" width="22" height="20" as="geometry" />
        </mxCell>
        <mxCell id="Z3TGR_GgPMp7fBFcXkFp-120" value="0..*" style="text;html=1;strokeColor=none;fillColor=none;align=center;verticalAlign=middle;whiteSpace=wrap;rounded=0;" parent="1" vertex="1">
          <mxGeometry x="1218" y="750" width="22" height="20" as="geometry" />
        </mxCell>
        <mxCell id="9_cnEAWNq0LsMUVx3qx5-1" style="edgeStyle=orthogonalEdgeStyle;rounded=0;orthogonalLoop=1;jettySize=auto;html=1;exitX=0.477;exitY=1.001;exitDx=0;exitDy=0;entryX=0.165;entryY=0.011;entryDx=0;entryDy=0;entryPerimeter=0;fontSize=19;endArrow=none;endFill=0;strokeWidth=1;exitPerimeter=0;" parent="1" source="ZryObzpR03HcbLVZwz5r-2" target="Z3TGR_GgPMp7fBFcXkFp-14" edge="1">
          <mxGeometry relative="1" as="geometry">
            <Array as="points" />
          </mxGeometry>
        </mxCell>
        <mxCell id="ZryObzpR03HcbLVZwz5r-1" value="ArticleComment" style="swimlane;fontStyle=0;childLayout=stackLayout;horizontal=1;startSize=26;fillColor=none;horizontalStack=0;resizeParent=1;resizeParentMax=0;resizeLast=0;collapsible=1;marginBottom=0;" parent="1" vertex="1">
          <mxGeometry x="750" y="680" width="160" height="70" as="geometry" />
        </mxCell>
        <mxCell id="ZryObzpR03HcbLVZwz5r-2" value="+ id: int&#xa;+ name: varchar 255" style="text;strokeColor=none;fillColor=none;align=left;verticalAlign=top;spacingLeft=4;spacingRight=4;overflow=hidden;rotatable=0;points=[[0,0.5],[1,0.5]];portConstraint=eastwest;" parent="ZryObzpR03HcbLVZwz5r-1" vertex="1">
          <mxGeometry y="26" width="160" height="44" as="geometry" />
        </mxCell>
        <mxCell id="ZryObzpR03HcbLVZwz5r-7" style="edgeStyle=orthogonalEdgeStyle;rounded=0;orthogonalLoop=1;jettySize=auto;html=1;entryX=0.25;entryY=0;entryDx=0;entryDy=0;fontSize=12;endArrow=none;endFill=0;strokeWidth=1;exitX=0;exitY=0.5;exitDx=0;exitDy=0;" parent="1" source="Z3TGR_GgPMp7fBFcXkFp-7" target="ZryObzpR03HcbLVZwz5r-1" edge="1">
          <mxGeometry relative="1" as="geometry">
            <mxPoint x="970" y="290" as="sourcePoint" />
            <Array as="points">
              <mxPoint x="790" y="285" />
            </Array>
          </mxGeometry>
        </mxCell>
        <mxCell id="ZryObzpR03HcbLVZwz5r-9" style="edgeStyle=orthogonalEdgeStyle;rounded=0;orthogonalLoop=1;jettySize=auto;html=1;exitX=0;exitY=0.5;exitDx=0;exitDy=0;entryX=0.75;entryY=0;entryDx=0;entryDy=0;fontSize=12;endArrow=none;endFill=0;strokeWidth=1;" parent="1" source="Z3TGR_GgPMp7fBFcXkFp-9" target="ZryObzpR03HcbLVZwz5r-1" edge="1">
          <mxGeometry relative="1" as="geometry">
            <Array as="points">
              <mxPoint x="1360" y="285" />
              <mxPoint x="1360" y="590" />
              <mxPoint x="870" y="590" />
            </Array>
          </mxGeometry>
        </mxCell>
        <mxCell id="ZryObzpR03HcbLVZwz5r-11" value="0..*" style="text;html=1;strokeColor=none;fillColor=none;align=center;verticalAlign=middle;whiteSpace=wrap;rounded=0;" parent="1" vertex="1">
          <mxGeometry x="766" y="661" width="22" height="20" as="geometry" />
        </mxCell>
        <mxCell id="ZryObzpR03HcbLVZwz5r-12" value="1..1" style="text;html=1;strokeColor=none;fillColor=none;align=center;verticalAlign=middle;whiteSpace=wrap;rounded=0;" parent="1" vertex="1">
          <mxGeometry x="1036" y="262" width="22" height="20" as="geometry" />
        </mxCell>
        <mxCell id="ZryObzpR03HcbLVZwz5r-13" value="1..1" style="text;html=1;strokeColor=none;fillColor=none;align=center;verticalAlign=middle;whiteSpace=wrap;rounded=0;" parent="1" vertex="1">
          <mxGeometry x="1390" y="262" width="22" height="20" as="geometry" />
        </mxCell>
        <mxCell id="ZryObzpR03HcbLVZwz5r-15" value="0..*" style="text;html=1;strokeColor=none;fillColor=none;align=center;verticalAlign=middle;whiteSpace=wrap;rounded=0;" parent="1" vertex="1">
          <mxGeometry x="870.97" y="661" width="22" height="20" as="geometry" />
        </mxCell>
        <mxCell id="9_cnEAWNq0LsMUVx3qx5-2" value="0..*" style="text;html=1;strokeColor=none;fillColor=none;align=center;verticalAlign=middle;whiteSpace=wrap;rounded=0;" parent="1" vertex="1">
          <mxGeometry x="799.97" y="750" width="22" height="20" as="geometry" />
        </mxCell>
        <mxCell id="9_cnEAWNq0LsMUVx3qx5-3" value="1..1" style="text;html=1;strokeColor=none;fillColor=none;align=center;verticalAlign=middle;whiteSpace=wrap;rounded=0;" parent="1" vertex="1">
          <mxGeometry x="799.97" y="880" width="22" height="20" as="geometry" />
        </mxCell>
        <mxCell id="9_cnEAWNq0LsMUVx3qx5-7" value="+ meetLink: varchar 255&#xa;" style="text;strokeColor=none;fillColor=none;align=left;verticalAlign=top;spacingLeft=4;spacingRight=4;overflow=hidden;rotatable=0;points=[[0,0.5],[1,0.5]];portConstraint=eastwest;" parent="1" vertex="1">
          <mxGeometry x="1600" y="926" width="160" height="54" as="geometry" />
        </mxCell>
      </root>
    </mxGraphModel>
  </diagram>
  <diagram id="BLtaHtiVU-tBeLxN6APa" name="UML Class Diagram For Entities 2">
    <mxGraphModel dx="785" dy="1085" grid="1" gridSize="10" guides="1" tooltips="1" connect="1" arrows="1" fold="1" page="0" pageScale="1" pageWidth="827" pageHeight="1169" math="0" shadow="0">
      <root>
        <mxCell id="V4yBMs7fp20xGWD95cax-0" />
        <mxCell id="V4yBMs7fp20xGWD95cax-1" parent="V4yBMs7fp20xGWD95cax-0" />
        <mxCell id="WpTMb0PjgPMh6Vc9hxhS-0" value="User" style="swimlane;fontStyle=0;childLayout=stackLayout;horizontal=1;startSize=26;fillColor=none;horizontalStack=0;resizeParent=1;resizeParentMax=0;resizeLast=0;collapsible=1;marginBottom=0;" vertex="1" parent="V4yBMs7fp20xGWD95cax-1">
          <mxGeometry x="1180" y="65" width="160" height="160" as="geometry" />
        </mxCell>
        <mxCell id="WpTMb0PjgPMh6Vc9hxhS-1" value="+ id: int&#xa;+ email: varchar 255&#xa;+ password: varchar 255&#xa;+ firstname: varchar 255&#xa;+ lastname: varchar 255&#xa;+ phone: vachar 255&#xa;+ roles: json&#xa;+ isVerified: bool&#xa;+ details&#xa;" style="text;strokeColor=none;fillColor=none;align=left;verticalAlign=top;spacingLeft=4;spacingRight=4;overflow=hidden;rotatable=0;points=[[0,0.5],[1,0.5]];portConstraint=eastwest;" vertex="1" parent="WpTMb0PjgPMh6Vc9hxhS-0">
          <mxGeometry y="26" width="160" height="134" as="geometry" />
        </mxCell>
        <mxCell id="WpTMb0PjgPMh6Vc9hxhS-3" value="sends" style="edgeStyle=orthogonalEdgeStyle;rounded=0;orthogonalLoop=1;jettySize=auto;html=1;entryX=0.5;entryY=0;entryDx=0;entryDy=0;fontSize=19;endArrow=none;endFill=0;strokeWidth=1;" edge="1" parent="V4yBMs7fp20xGWD95cax-1" target="WpTMb0PjgPMh6Vc9hxhS-55">
          <mxGeometry relative="1" as="geometry">
            <mxPoint x="1137.9999999999998" y="332" as="sourcePoint" />
          </mxGeometry>
        </mxCell>
        <mxCell id="WpTMb0PjgPMh6Vc9hxhS-6" style="edgeStyle=orthogonalEdgeStyle;rounded=0;orthogonalLoop=1;jettySize=auto;html=1;exitX=0.75;exitY=0;exitDx=0;exitDy=0;entryX=0.5;entryY=1;entryDx=0;entryDy=0;fontSize=12;endArrow=none;endFill=0;strokeWidth=1;" edge="1" parent="V4yBMs7fp20xGWD95cax-1" target="WpTMb0PjgPMh6Vc9hxhS-71">
          <mxGeometry relative="1" as="geometry">
            <mxPoint x="1532" y="212" as="sourcePoint" />
          </mxGeometry>
        </mxCell>
        <mxCell id="WpTMb0PjgPMh6Vc9hxhS-10" value="Ressource" style="swimlane;fontStyle=0;childLayout=stackLayout;horizontal=1;startSize=26;fillColor=none;horizontalStack=0;resizeParent=1;resizeParentMax=0;resizeLast=0;collapsible=1;marginBottom=0;" vertex="1" parent="V4yBMs7fp20xGWD95cax-1">
          <mxGeometry x="1240" y="690" width="160" height="140" as="geometry" />
        </mxCell>
        <mxCell id="WpTMb0PjgPMh6Vc9hxhS-11" value="+ id: int&#xa;+ title: varchar 255&#xa;+ slug: varchar 255&#xa;+ content: longtext&#xa;+ image: varchar 255&#xa;+ createdAt: timeStamp&#xa;+ active: bool" style="text;strokeColor=none;fillColor=none;align=left;verticalAlign=top;spacingLeft=4;spacingRight=4;overflow=hidden;rotatable=0;points=[[0,0.5],[1,0.5]];portConstraint=eastwest;" vertex="1" parent="WpTMb0PjgPMh6Vc9hxhS-10">
          <mxGeometry y="26" width="160" height="114" as="geometry" />
        </mxCell>
        <mxCell id="WpTMb0PjgPMh6Vc9hxhS-12" style="edgeStyle=orthogonalEdgeStyle;rounded=0;orthogonalLoop=1;jettySize=auto;html=1;exitX=0.5;exitY=0;exitDx=0;exitDy=0;entryX=0.113;entryY=0.991;entryDx=0;entryDy=0;entryPerimeter=0;fontSize=12;endArrow=block;endFill=0;strokeWidth=1;" edge="1" parent="V4yBMs7fp20xGWD95cax-1" source="WpTMb0PjgPMh6Vc9hxhS-13" target="WpTMb0PjgPMh6Vc9hxhS-11">
          <mxGeometry relative="1" as="geometry">
            <Array as="points">
              <mxPoint x="880" y="850" />
              <mxPoint x="1258" y="850" />
            </Array>
          </mxGeometry>
        </mxCell>
        <mxCell id="WpTMb0PjgPMh6Vc9hxhS-13" value="Article" style="swimlane;fontStyle=0;childLayout=stackLayout;horizontal=1;startSize=26;fillColor=none;horizontalStack=0;resizeParent=1;resizeParentMax=0;resizeLast=0;collapsible=1;marginBottom=0;" vertex="1" parent="V4yBMs7fp20xGWD95cax-1">
          <mxGeometry x="799.97" y="900" width="160" height="80" as="geometry" />
        </mxCell>
        <mxCell id="WpTMb0PjgPMh6Vc9hxhS-14" style="edgeStyle=orthogonalEdgeStyle;rounded=0;orthogonalLoop=1;jettySize=auto;html=1;exitX=0.5;exitY=0;exitDx=0;exitDy=0;entryX=0.375;entryY=1;entryDx=0;entryDy=0;entryPerimeter=0;fontSize=12;endArrow=block;endFill=0;strokeWidth=1;" edge="1" parent="V4yBMs7fp20xGWD95cax-1" source="WpTMb0PjgPMh6Vc9hxhS-15" target="WpTMb0PjgPMh6Vc9hxhS-11">
          <mxGeometry relative="1" as="geometry" />
        </mxCell>
        <mxCell id="WpTMb0PjgPMh6Vc9hxhS-15" value="Document" style="swimlane;fontStyle=0;childLayout=stackLayout;horizontal=1;startSize=26;fillColor=none;horizontalStack=0;resizeParent=1;resizeParentMax=0;resizeLast=0;collapsible=1;marginBottom=0;" vertex="1" parent="V4yBMs7fp20xGWD95cax-1">
          <mxGeometry x="1039.97" y="900" width="160" height="80" as="geometry" />
        </mxCell>
        <mxCell id="WpTMb0PjgPMh6Vc9hxhS-16" style="edgeStyle=orthogonalEdgeStyle;rounded=0;orthogonalLoop=1;jettySize=auto;html=1;exitX=0.5;exitY=0;exitDx=0;exitDy=0;entryX=0.575;entryY=1.004;entryDx=0;entryDy=0;entryPerimeter=0;fontSize=12;endArrow=block;endFill=0;strokeWidth=1;" edge="1" parent="V4yBMs7fp20xGWD95cax-1" source="WpTMb0PjgPMh6Vc9hxhS-17" target="WpTMb0PjgPMh6Vc9hxhS-11">
          <mxGeometry relative="1" as="geometry" />
        </mxCell>
        <mxCell id="WpTMb0PjgPMh6Vc9hxhS-17" value="Service" style="swimlane;fontStyle=0;childLayout=stackLayout;horizontal=1;startSize=26;fillColor=none;horizontalStack=0;resizeParent=1;resizeParentMax=0;resizeLast=0;collapsible=1;marginBottom=0;" vertex="1" parent="V4yBMs7fp20xGWD95cax-1">
          <mxGeometry x="1320" y="900" width="160" height="80" as="geometry" />
        </mxCell>
        <mxCell id="WpTMb0PjgPMh6Vc9hxhS-18" value="+ toolLink: varchar 255&#xa;" style="text;strokeColor=none;fillColor=none;align=left;verticalAlign=top;spacingLeft=4;spacingRight=4;overflow=hidden;rotatable=0;points=[[0,0.5],[1,0.5]];portConstraint=eastwest;" vertex="1" parent="WpTMb0PjgPMh6Vc9hxhS-17">
          <mxGeometry y="26" width="160" height="54" as="geometry" />
        </mxCell>
        <mxCell id="WpTMb0PjgPMh6Vc9hxhS-19" style="edgeStyle=orthogonalEdgeStyle;rounded=0;orthogonalLoop=1;jettySize=auto;html=1;exitX=0.5;exitY=0;exitDx=0;exitDy=0;entryX=0.852;entryY=1;entryDx=0;entryDy=0;entryPerimeter=0;fontSize=12;endArrow=block;endFill=0;strokeWidth=1;" edge="1" parent="V4yBMs7fp20xGWD95cax-1" source="WpTMb0PjgPMh6Vc9hxhS-21" target="WpTMb0PjgPMh6Vc9hxhS-11">
          <mxGeometry relative="1" as="geometry">
            <Array as="points">
              <mxPoint x="1680" y="850" />
              <mxPoint x="1376" y="850" />
            </Array>
          </mxGeometry>
        </mxCell>
        <mxCell id="WpTMb0PjgPMh6Vc9hxhS-20" value="books" style="edgeStyle=orthogonalEdgeStyle;rounded=0;orthogonalLoop=1;jettySize=auto;html=1;exitX=1;exitY=0.5;exitDx=0;exitDy=0;entryX=0;entryY=0.5;entryDx=0;entryDy=0;fontSize=19;endArrow=none;endFill=0;strokeWidth=1;" edge="1" parent="V4yBMs7fp20xGWD95cax-1" source="WpTMb0PjgPMh6Vc9hxhS-21" target="WpTMb0PjgPMh6Vc9hxhS-77">
          <mxGeometry x="-0.0176" relative="1" as="geometry">
            <Array as="points">
              <mxPoint x="1840" y="940" />
              <mxPoint x="1840" y="1250" />
              <mxPoint x="660" y="1250" />
              <mxPoint x="660" y="129" />
            </Array>
            <mxPoint as="offset" />
          </mxGeometry>
        </mxCell>
        <mxCell id="WpTMb0PjgPMh6Vc9hxhS-21" value="Webinar" style="swimlane;fontStyle=0;childLayout=stackLayout;horizontal=1;startSize=26;fillColor=none;horizontalStack=0;resizeParent=1;resizeParentMax=0;resizeLast=0;collapsible=1;marginBottom=0;" vertex="1" parent="V4yBMs7fp20xGWD95cax-1">
          <mxGeometry x="1600" y="900" width="160" height="80" as="geometry" />
        </mxCell>
        <mxCell id="WpTMb0PjgPMh6Vc9hxhS-22" style="edgeStyle=orthogonalEdgeStyle;rounded=0;orthogonalLoop=1;jettySize=auto;html=1;exitX=0.5;exitY=0;exitDx=0;exitDy=0;entryX=0.5;entryY=1;entryDx=0;entryDy=0;fontSize=12;endArrow=none;endFill=0;strokeWidth=1;" edge="1" parent="V4yBMs7fp20xGWD95cax-1" source="WpTMb0PjgPMh6Vc9hxhS-23" target="WpTMb0PjgPMh6Vc9hxhS-13">
          <mxGeometry relative="1" as="geometry" />
        </mxCell>
        <mxCell id="WpTMb0PjgPMh6Vc9hxhS-23" value="ArticleCategory" style="swimlane;fontStyle=0;childLayout=stackLayout;horizontal=1;startSize=26;fillColor=none;horizontalStack=0;resizeParent=1;resizeParentMax=0;resizeLast=0;collapsible=1;marginBottom=0;" vertex="1" parent="V4yBMs7fp20xGWD95cax-1">
          <mxGeometry x="799.97" y="1060" width="160" height="70" as="geometry" />
        </mxCell>
        <mxCell id="WpTMb0PjgPMh6Vc9hxhS-24" value="+ id: int&#xa;+ name: varchar 255" style="text;strokeColor=none;fillColor=none;align=left;verticalAlign=top;spacingLeft=4;spacingRight=4;overflow=hidden;rotatable=0;points=[[0,0.5],[1,0.5]];portConstraint=eastwest;" vertex="1" parent="WpTMb0PjgPMh6Vc9hxhS-23">
          <mxGeometry y="26" width="160" height="44" as="geometry" />
        </mxCell>
        <mxCell id="WpTMb0PjgPMh6Vc9hxhS-25" style="edgeStyle=orthogonalEdgeStyle;rounded=0;orthogonalLoop=1;jettySize=auto;html=1;exitX=1;exitY=0.5;exitDx=0;exitDy=0;endArrow=none;endFill=0;" edge="1" parent="WpTMb0PjgPMh6Vc9hxhS-23" source="WpTMb0PjgPMh6Vc9hxhS-24" target="WpTMb0PjgPMh6Vc9hxhS-24">
          <mxGeometry relative="1" as="geometry">
            <Array as="points">
              <mxPoint x="200" y="48" />
              <mxPoint x="200" y="100" />
              <mxPoint x="80" y="100" />
            </Array>
          </mxGeometry>
        </mxCell>
        <mxCell id="WpTMb0PjgPMh6Vc9hxhS-26" value="1..1" style="text;html=1;strokeColor=none;fillColor=none;align=center;verticalAlign=middle;whiteSpace=wrap;rounded=0;" vertex="1" parent="V4yBMs7fp20xGWD95cax-1">
          <mxGeometry x="879.97" y="1040" width="22" height="20" as="geometry" />
        </mxCell>
        <mxCell id="WpTMb0PjgPMh6Vc9hxhS-27" value="1..1" style="text;html=1;strokeColor=none;fillColor=none;align=center;verticalAlign=middle;whiteSpace=wrap;rounded=0;" vertex="1" parent="V4yBMs7fp20xGWD95cax-1">
          <mxGeometry x="959.97" y="1090" width="22" height="20" as="geometry" />
        </mxCell>
        <mxCell id="WpTMb0PjgPMh6Vc9hxhS-28" value="0..*" style="text;html=1;strokeColor=none;fillColor=none;align=center;verticalAlign=middle;whiteSpace=wrap;rounded=0;" vertex="1" parent="V4yBMs7fp20xGWD95cax-1">
          <mxGeometry x="857.97" y="1130" width="22" height="20" as="geometry" />
        </mxCell>
        <mxCell id="WpTMb0PjgPMh6Vc9hxhS-29" value="0..*" style="text;html=1;strokeColor=none;fillColor=none;align=center;verticalAlign=middle;whiteSpace=wrap;rounded=0;" vertex="1" parent="V4yBMs7fp20xGWD95cax-1">
          <mxGeometry x="879.97" y="980" width="22" height="20" as="geometry" />
        </mxCell>
        <mxCell id="WpTMb0PjgPMh6Vc9hxhS-30" style="edgeStyle=orthogonalEdgeStyle;rounded=0;orthogonalLoop=1;jettySize=auto;html=1;exitX=0.5;exitY=0;exitDx=0;exitDy=0;entryX=0.5;entryY=1;entryDx=0;entryDy=0;fontSize=12;endArrow=none;endFill=0;strokeWidth=1;" edge="1" parent="V4yBMs7fp20xGWD95cax-1" source="WpTMb0PjgPMh6Vc9hxhS-31">
          <mxGeometry relative="1" as="geometry">
            <mxPoint x="1119.9700000000003" y="980" as="targetPoint" />
          </mxGeometry>
        </mxCell>
        <mxCell id="WpTMb0PjgPMh6Vc9hxhS-31" value="DocumentCategory" style="swimlane;fontStyle=0;childLayout=stackLayout;horizontal=1;startSize=26;fillColor=none;horizontalStack=0;resizeParent=1;resizeParentMax=0;resizeLast=0;collapsible=1;marginBottom=0;" vertex="1" parent="V4yBMs7fp20xGWD95cax-1">
          <mxGeometry x="1039.97" y="1060" width="160" height="70" as="geometry" />
        </mxCell>
        <mxCell id="WpTMb0PjgPMh6Vc9hxhS-32" value="+ id: int&#xa;+ name: varchar 255" style="text;strokeColor=none;fillColor=none;align=left;verticalAlign=top;spacingLeft=4;spacingRight=4;overflow=hidden;rotatable=0;points=[[0,0.5],[1,0.5]];portConstraint=eastwest;" vertex="1" parent="WpTMb0PjgPMh6Vc9hxhS-31">
          <mxGeometry y="26" width="160" height="44" as="geometry" />
        </mxCell>
        <mxCell id="WpTMb0PjgPMh6Vc9hxhS-33" style="edgeStyle=orthogonalEdgeStyle;rounded=0;orthogonalLoop=1;jettySize=auto;html=1;exitX=1;exitY=0.5;exitDx=0;exitDy=0;endArrow=none;endFill=0;" edge="1" parent="WpTMb0PjgPMh6Vc9hxhS-31" source="WpTMb0PjgPMh6Vc9hxhS-32" target="WpTMb0PjgPMh6Vc9hxhS-32">
          <mxGeometry relative="1" as="geometry">
            <Array as="points">
              <mxPoint x="200" y="48" />
              <mxPoint x="200" y="100" />
              <mxPoint x="80" y="100" />
            </Array>
          </mxGeometry>
        </mxCell>
        <mxCell id="WpTMb0PjgPMh6Vc9hxhS-34" value="1..1" style="text;html=1;strokeColor=none;fillColor=none;align=center;verticalAlign=middle;whiteSpace=wrap;rounded=0;" vertex="1" parent="V4yBMs7fp20xGWD95cax-1">
          <mxGeometry x="1119.97" y="1040" width="22" height="20" as="geometry" />
        </mxCell>
        <mxCell id="WpTMb0PjgPMh6Vc9hxhS-35" value="1..1" style="text;html=1;strokeColor=none;fillColor=none;align=center;verticalAlign=middle;whiteSpace=wrap;rounded=0;" vertex="1" parent="V4yBMs7fp20xGWD95cax-1">
          <mxGeometry x="1199.97" y="1090" width="22" height="20" as="geometry" />
        </mxCell>
        <mxCell id="WpTMb0PjgPMh6Vc9hxhS-36" value="0..*" style="text;html=1;strokeColor=none;fillColor=none;align=center;verticalAlign=middle;whiteSpace=wrap;rounded=0;" vertex="1" parent="V4yBMs7fp20xGWD95cax-1">
          <mxGeometry x="1097.97" y="1130" width="22" height="20" as="geometry" />
        </mxCell>
        <mxCell id="WpTMb0PjgPMh6Vc9hxhS-37" value="0..*" style="text;html=1;strokeColor=none;fillColor=none;align=center;verticalAlign=middle;whiteSpace=wrap;rounded=0;" vertex="1" parent="V4yBMs7fp20xGWD95cax-1">
          <mxGeometry x="1119.97" y="980" width="22" height="20" as="geometry" />
        </mxCell>
        <mxCell id="WpTMb0PjgPMh6Vc9hxhS-38" style="edgeStyle=orthogonalEdgeStyle;rounded=0;orthogonalLoop=1;jettySize=auto;html=1;exitX=0.5;exitY=0;exitDx=0;exitDy=0;entryX=0.5;entryY=1;entryDx=0;entryDy=0;fontSize=12;endArrow=none;endFill=0;strokeWidth=1;" edge="1" parent="V4yBMs7fp20xGWD95cax-1" source="WpTMb0PjgPMh6Vc9hxhS-39">
          <mxGeometry relative="1" as="geometry">
            <mxPoint x="1400" y="980" as="targetPoint" />
          </mxGeometry>
        </mxCell>
        <mxCell id="WpTMb0PjgPMh6Vc9hxhS-39" value="ServiceCategory" style="swimlane;fontStyle=0;childLayout=stackLayout;horizontal=1;startSize=26;fillColor=none;horizontalStack=0;resizeParent=1;resizeParentMax=0;resizeLast=0;collapsible=1;marginBottom=0;" vertex="1" parent="V4yBMs7fp20xGWD95cax-1">
          <mxGeometry x="1320" y="1060" width="160" height="70" as="geometry" />
        </mxCell>
        <mxCell id="WpTMb0PjgPMh6Vc9hxhS-40" value="+ id: int&#xa;+ name: varchar 255" style="text;strokeColor=none;fillColor=none;align=left;verticalAlign=top;spacingLeft=4;spacingRight=4;overflow=hidden;rotatable=0;points=[[0,0.5],[1,0.5]];portConstraint=eastwest;" vertex="1" parent="WpTMb0PjgPMh6Vc9hxhS-39">
          <mxGeometry y="26" width="160" height="44" as="geometry" />
        </mxCell>
        <mxCell id="WpTMb0PjgPMh6Vc9hxhS-41" style="edgeStyle=orthogonalEdgeStyle;rounded=0;orthogonalLoop=1;jettySize=auto;html=1;exitX=1;exitY=0.5;exitDx=0;exitDy=0;endArrow=none;endFill=0;" edge="1" parent="WpTMb0PjgPMh6Vc9hxhS-39" source="WpTMb0PjgPMh6Vc9hxhS-40" target="WpTMb0PjgPMh6Vc9hxhS-40">
          <mxGeometry relative="1" as="geometry">
            <Array as="points">
              <mxPoint x="200" y="48" />
              <mxPoint x="200" y="100" />
              <mxPoint x="80" y="100" />
            </Array>
          </mxGeometry>
        </mxCell>
        <mxCell id="WpTMb0PjgPMh6Vc9hxhS-42" value="1..1" style="text;html=1;strokeColor=none;fillColor=none;align=center;verticalAlign=middle;whiteSpace=wrap;rounded=0;" vertex="1" parent="V4yBMs7fp20xGWD95cax-1">
          <mxGeometry x="1400" y="1040" width="22" height="20" as="geometry" />
        </mxCell>
        <mxCell id="WpTMb0PjgPMh6Vc9hxhS-43" value="1..1" style="text;html=1;strokeColor=none;fillColor=none;align=center;verticalAlign=middle;whiteSpace=wrap;rounded=0;" vertex="1" parent="V4yBMs7fp20xGWD95cax-1">
          <mxGeometry x="1480" y="1090" width="22" height="20" as="geometry" />
        </mxCell>
        <mxCell id="WpTMb0PjgPMh6Vc9hxhS-44" value="0..*" style="text;html=1;strokeColor=none;fillColor=none;align=center;verticalAlign=middle;whiteSpace=wrap;rounded=0;" vertex="1" parent="V4yBMs7fp20xGWD95cax-1">
          <mxGeometry x="1378" y="1130" width="22" height="20" as="geometry" />
        </mxCell>
        <mxCell id="WpTMb0PjgPMh6Vc9hxhS-45" value="0..*" style="text;html=1;strokeColor=none;fillColor=none;align=center;verticalAlign=middle;whiteSpace=wrap;rounded=0;" vertex="1" parent="V4yBMs7fp20xGWD95cax-1">
          <mxGeometry x="1400" y="980" width="22" height="20" as="geometry" />
        </mxCell>
        <mxCell id="WpTMb0PjgPMh6Vc9hxhS-46" style="edgeStyle=orthogonalEdgeStyle;rounded=0;orthogonalLoop=1;jettySize=auto;html=1;exitX=0.5;exitY=0;exitDx=0;exitDy=0;entryX=0.5;entryY=1;entryDx=0;entryDy=0;fontSize=12;endArrow=none;endFill=0;strokeWidth=1;" edge="1" parent="V4yBMs7fp20xGWD95cax-1" source="WpTMb0PjgPMh6Vc9hxhS-47">
          <mxGeometry relative="1" as="geometry">
            <mxPoint x="1680" y="980" as="targetPoint" />
          </mxGeometry>
        </mxCell>
        <mxCell id="WpTMb0PjgPMh6Vc9hxhS-47" value="WebinarCategory" style="swimlane;fontStyle=0;childLayout=stackLayout;horizontal=1;startSize=26;fillColor=none;horizontalStack=0;resizeParent=1;resizeParentMax=0;resizeLast=0;collapsible=1;marginBottom=0;" vertex="1" parent="V4yBMs7fp20xGWD95cax-1">
          <mxGeometry x="1600" y="1060" width="160" height="70" as="geometry" />
        </mxCell>
        <mxCell id="WpTMb0PjgPMh6Vc9hxhS-48" value="+ id: int&#xa;+ name: varchar 255" style="text;strokeColor=none;fillColor=none;align=left;verticalAlign=top;spacingLeft=4;spacingRight=4;overflow=hidden;rotatable=0;points=[[0,0.5],[1,0.5]];portConstraint=eastwest;" vertex="1" parent="WpTMb0PjgPMh6Vc9hxhS-47">
          <mxGeometry y="26" width="160" height="44" as="geometry" />
        </mxCell>
        <mxCell id="WpTMb0PjgPMh6Vc9hxhS-49" style="edgeStyle=orthogonalEdgeStyle;rounded=0;orthogonalLoop=1;jettySize=auto;html=1;exitX=1;exitY=0.5;exitDx=0;exitDy=0;endArrow=none;endFill=0;" edge="1" parent="WpTMb0PjgPMh6Vc9hxhS-47" source="WpTMb0PjgPMh6Vc9hxhS-48" target="WpTMb0PjgPMh6Vc9hxhS-48">
          <mxGeometry relative="1" as="geometry">
            <Array as="points">
              <mxPoint x="200" y="48" />
              <mxPoint x="200" y="100" />
              <mxPoint x="80" y="100" />
            </Array>
          </mxGeometry>
        </mxCell>
        <mxCell id="WpTMb0PjgPMh6Vc9hxhS-50" value="1..1" style="text;html=1;strokeColor=none;fillColor=none;align=center;verticalAlign=middle;whiteSpace=wrap;rounded=0;" vertex="1" parent="V4yBMs7fp20xGWD95cax-1">
          <mxGeometry x="1680" y="1040" width="22" height="20" as="geometry" />
        </mxCell>
        <mxCell id="WpTMb0PjgPMh6Vc9hxhS-51" value="1..1" style="text;html=1;strokeColor=none;fillColor=none;align=center;verticalAlign=middle;whiteSpace=wrap;rounded=0;" vertex="1" parent="V4yBMs7fp20xGWD95cax-1">
          <mxGeometry x="1760" y="1090" width="22" height="20" as="geometry" />
        </mxCell>
        <mxCell id="WpTMb0PjgPMh6Vc9hxhS-52" value="0..*" style="text;html=1;strokeColor=none;fillColor=none;align=center;verticalAlign=middle;whiteSpace=wrap;rounded=0;" vertex="1" parent="V4yBMs7fp20xGWD95cax-1">
          <mxGeometry x="1658" y="1130" width="22" height="20" as="geometry" />
        </mxCell>
        <mxCell id="WpTMb0PjgPMh6Vc9hxhS-53" value="0..*" style="text;html=1;strokeColor=none;fillColor=none;align=center;verticalAlign=middle;whiteSpace=wrap;rounded=0;" vertex="1" parent="V4yBMs7fp20xGWD95cax-1">
          <mxGeometry x="1680" y="980" width="22" height="20" as="geometry" />
        </mxCell>
        <mxCell id="WpTMb0PjgPMh6Vc9hxhS-54" value="sends" style="edgeStyle=orthogonalEdgeStyle;rounded=0;orthogonalLoop=1;jettySize=auto;html=1;exitX=0.75;exitY=0;exitDx=0;exitDy=0;entryX=0.237;entryY=1.009;entryDx=0;entryDy=0;entryPerimeter=0;fontSize=19;endArrow=none;endFill=0;strokeWidth=1;" edge="1" parent="V4yBMs7fp20xGWD95cax-1" source="WpTMb0PjgPMh6Vc9hxhS-55">
          <mxGeometry x="0.4668" relative="1" as="geometry">
            <Array as="points">
              <mxPoint x="1178" y="380" />
              <mxPoint x="1450" y="380" />
            </Array>
            <mxPoint as="offset" />
            <mxPoint x="1449.92" y="332.846" as="targetPoint" />
          </mxGeometry>
        </mxCell>
        <mxCell id="WpTMb0PjgPMh6Vc9hxhS-55" value="Message" style="swimlane;fontStyle=0;childLayout=stackLayout;horizontal=1;startSize=26;fillColor=none;horizontalStack=0;resizeParent=1;resizeParentMax=0;resizeLast=0;collapsible=1;marginBottom=0;" vertex="1" parent="V4yBMs7fp20xGWD95cax-1">
          <mxGeometry x="1058" y="425" width="160" height="90" as="geometry" />
        </mxCell>
        <mxCell id="WpTMb0PjgPMh6Vc9hxhS-56" value="+ id: int&#xa;+ createdAt: datetime&#xa;+ message: longtext" style="text;strokeColor=none;fillColor=none;align=left;verticalAlign=top;spacingLeft=4;spacingRight=4;overflow=hidden;rotatable=0;points=[[0,0.5],[1,0.5]];portConstraint=eastwest;" vertex="1" parent="WpTMb0PjgPMh6Vc9hxhS-55">
          <mxGeometry y="26" width="160" height="64" as="geometry" />
        </mxCell>
        <mxCell id="WpTMb0PjgPMh6Vc9hxhS-57" value="Conversation" style="swimlane;fontStyle=0;childLayout=stackLayout;horizontal=1;startSize=26;fillColor=none;horizontalStack=0;resizeParent=1;resizeParentMax=0;resizeLast=0;collapsible=1;marginBottom=0;" vertex="1" parent="V4yBMs7fp20xGWD95cax-1">
          <mxGeometry x="1412" y="435" width="160" height="70" as="geometry" />
        </mxCell>
        <mxCell id="WpTMb0PjgPMh6Vc9hxhS-58" value="+ id: int&#xa;+ lastMessageId: int" style="text;strokeColor=none;fillColor=none;align=left;verticalAlign=top;spacingLeft=4;spacingRight=4;overflow=hidden;rotatable=0;points=[[0,0.5],[1,0.5]];portConstraint=eastwest;" vertex="1" parent="WpTMb0PjgPMh6Vc9hxhS-57">
          <mxGeometry y="26" width="160" height="44" as="geometry" />
        </mxCell>
        <mxCell id="WpTMb0PjgPMh6Vc9hxhS-59" value="contains" style="edgeStyle=orthogonalEdgeStyle;rounded=0;orthogonalLoop=1;jettySize=auto;html=1;entryX=0;entryY=0.5;entryDx=0;entryDy=0;fontSize=19;endArrow=none;endFill=0;strokeWidth=1;" edge="1" parent="V4yBMs7fp20xGWD95cax-1" source="WpTMb0PjgPMh6Vc9hxhS-56" target="WpTMb0PjgPMh6Vc9hxhS-58">
          <mxGeometry x="-0.1546" relative="1" as="geometry">
            <mxPoint as="offset" />
          </mxGeometry>
        </mxCell>
        <mxCell id="WpTMb0PjgPMh6Vc9hxhS-60" value="1..*" style="text;html=1;strokeColor=none;fillColor=none;align=center;verticalAlign=middle;whiteSpace=wrap;rounded=0;" vertex="1" parent="V4yBMs7fp20xGWD95cax-1">
          <mxGeometry x="1218" y="460" width="22" height="20" as="geometry" />
        </mxCell>
        <mxCell id="WpTMb0PjgPMh6Vc9hxhS-61" value="1..1" style="text;html=1;strokeColor=none;fillColor=none;align=center;verticalAlign=middle;whiteSpace=wrap;rounded=0;" vertex="1" parent="V4yBMs7fp20xGWD95cax-1">
          <mxGeometry x="1390" y="460" width="22" height="20" as="geometry" />
        </mxCell>
        <mxCell id="WpTMb0PjgPMh6Vc9hxhS-62" value="1..1" style="text;html=1;strokeColor=none;fillColor=none;align=center;verticalAlign=middle;whiteSpace=wrap;rounded=0;" vertex="1" parent="V4yBMs7fp20xGWD95cax-1">
          <mxGeometry x="1110" y="332" width="22" height="20" as="geometry" />
        </mxCell>
        <mxCell id="WpTMb0PjgPMh6Vc9hxhS-63" value="0..*" style="text;html=1;strokeColor=none;fillColor=none;align=center;verticalAlign=middle;whiteSpace=wrap;rounded=0;" vertex="1" parent="V4yBMs7fp20xGWD95cax-1">
          <mxGeometry x="1110" y="405" width="22" height="20" as="geometry" />
        </mxCell>
        <mxCell id="WpTMb0PjgPMh6Vc9hxhS-64" value="0..*" style="text;html=1;strokeColor=none;fillColor=none;align=center;verticalAlign=middle;whiteSpace=wrap;rounded=0;" vertex="1" parent="V4yBMs7fp20xGWD95cax-1">
          <mxGeometry x="1177.97" y="405" width="22" height="20" as="geometry" />
        </mxCell>
        <mxCell id="WpTMb0PjgPMh6Vc9hxhS-65" value="1..1" style="text;html=1;strokeColor=none;fillColor=none;align=center;verticalAlign=middle;whiteSpace=wrap;rounded=0;" vertex="1" parent="V4yBMs7fp20xGWD95cax-1">
          <mxGeometry x="1422" y="332" width="22" height="20" as="geometry" />
        </mxCell>
        <mxCell id="WpTMb0PjgPMh6Vc9hxhS-66" value="participates" style="edgeStyle=orthogonalEdgeStyle;rounded=0;orthogonalLoop=1;jettySize=auto;html=1;exitX=0;exitY=1;exitDx=0;exitDy=0;entryX=0;entryY=0.25;entryDx=0;entryDy=0;fontSize=19;endArrow=none;endFill=0;strokeWidth=1;" edge="1" parent="V4yBMs7fp20xGWD95cax-1" source="WpTMb0PjgPMh6Vc9hxhS-68" target="WpTMb0PjgPMh6Vc9hxhS-57">
          <mxGeometry x="-0.4132" relative="1" as="geometry">
            <Array as="points">
              <mxPoint x="1218" y="260" />
              <mxPoint x="1290" y="260" />
              <mxPoint x="1290" y="453" />
            </Array>
            <mxPoint as="offset" />
          </mxGeometry>
        </mxCell>
        <mxCell id="WpTMb0PjgPMh6Vc9hxhS-67" value="participates" style="edgeStyle=orthogonalEdgeStyle;rounded=0;orthogonalLoop=1;jettySize=auto;html=1;exitX=0.535;exitY=1.011;exitDx=0;exitDy=0;fontSize=19;endArrow=none;endFill=0;strokeWidth=1;exitPerimeter=0;" edge="1" parent="V4yBMs7fp20xGWD95cax-1">
          <mxGeometry x="0.3127" relative="1" as="geometry">
            <mxPoint x="1497.9999999999995" y="435" as="targetPoint" />
            <Array as="points">
              <mxPoint x="1498" y="400" />
              <mxPoint x="1498" y="400" />
              <mxPoint x="1498" y="435" />
            </Array>
            <mxPoint as="offset" />
            <mxPoint x="1497.6" y="333.0339999999999" as="sourcePoint" />
          </mxGeometry>
        </mxCell>
        <mxCell id="WpTMb0PjgPMh6Vc9hxhS-68" value="1..1" style="text;html=1;strokeColor=none;fillColor=none;align=center;verticalAlign=middle;whiteSpace=wrap;rounded=0;" vertex="1" parent="V4yBMs7fp20xGWD95cax-1">
          <mxGeometry x="1218" y="242" width="22" height="20" as="geometry" />
        </mxCell>
        <mxCell id="WpTMb0PjgPMh6Vc9hxhS-69" value="0..*" style="text;html=1;strokeColor=none;fillColor=none;align=center;verticalAlign=middle;whiteSpace=wrap;rounded=0;" vertex="1" parent="V4yBMs7fp20xGWD95cax-1">
          <mxGeometry x="1390" y="435" width="22" height="20" as="geometry" />
        </mxCell>
        <mxCell id="WpTMb0PjgPMh6Vc9hxhS-70" value="0..*" style="text;html=1;strokeColor=none;fillColor=none;align=center;verticalAlign=middle;whiteSpace=wrap;rounded=0;" vertex="1" parent="V4yBMs7fp20xGWD95cax-1">
          <mxGeometry x="1502" y="415" width="22" height="20" as="geometry" />
        </mxCell>
        <mxCell id="WpTMb0PjgPMh6Vc9hxhS-71" value="disponibility" style="swimlane;fontStyle=0;childLayout=stackLayout;horizontal=1;startSize=26;fillColor=none;horizontalStack=0;resizeParent=1;resizeParentMax=0;resizeLast=0;collapsible=1;marginBottom=0;" vertex="1" parent="V4yBMs7fp20xGWD95cax-1">
          <mxGeometry x="1560" y="16" width="180" height="110" as="geometry" />
        </mxCell>
        <mxCell id="WpTMb0PjgPMh6Vc9hxhS-72" value="+ id: int&#xa;+ DateHour: datetime&#xa;+ serviceName: varchar 255&#xa;+ serviceContent: longtext" style="text;strokeColor=none;fillColor=none;align=left;verticalAlign=top;spacingLeft=4;spacingRight=4;overflow=hidden;rotatable=0;points=[[0,0.5],[1,0.5]];portConstraint=eastwest;" vertex="1" parent="WpTMb0PjgPMh6Vc9hxhS-71">
          <mxGeometry y="26" width="180" height="84" as="geometry" />
        </mxCell>
        <mxCell id="WpTMb0PjgPMh6Vc9hxhS-73" value="0..*" style="text;html=1;strokeColor=none;fillColor=none;align=center;verticalAlign=middle;whiteSpace=wrap;rounded=0;" vertex="1" parent="V4yBMs7fp20xGWD95cax-1">
          <mxGeometry x="1650" y="126" width="22" height="20" as="geometry" />
        </mxCell>
        <mxCell id="WpTMb0PjgPMh6Vc9hxhS-74" value="1..1" style="text;html=1;strokeColor=none;fillColor=none;align=center;verticalAlign=middle;whiteSpace=wrap;rounded=0;" vertex="1" parent="V4yBMs7fp20xGWD95cax-1">
          <mxGeometry x="1533" y="192" width="22" height="20" as="geometry" />
        </mxCell>
        <mxCell id="WpTMb0PjgPMh6Vc9hxhS-75" value="books" style="edgeStyle=orthogonalEdgeStyle;rounded=0;orthogonalLoop=1;jettySize=auto;html=1;exitX=0.5;exitY=0;exitDx=0;exitDy=0;entryX=0.5;entryY=0;entryDx=0;entryDy=0;fontSize=19;endArrow=none;endFill=0;strokeWidth=1;" edge="1" parent="V4yBMs7fp20xGWD95cax-1" source="WpTMb0PjgPMh6Vc9hxhS-76" target="WpTMb0PjgPMh6Vc9hxhS-71">
          <mxGeometry x="0.0138" relative="1" as="geometry">
            <Array as="points">
              <mxPoint x="830" y="-90" />
              <mxPoint x="1650" y="-90" />
            </Array>
            <mxPoint as="offset" />
          </mxGeometry>
        </mxCell>
        <mxCell id="WpTMb0PjgPMh6Vc9hxhS-76" value="Agenda" style="swimlane;fontStyle=0;childLayout=stackLayout;horizontal=1;startSize=26;fillColor=none;horizontalStack=0;resizeParent=1;resizeParentMax=0;resizeLast=0;collapsible=1;marginBottom=0;" vertex="1" parent="V4yBMs7fp20xGWD95cax-1">
          <mxGeometry x="837.97" y="20" width="180" height="90" as="geometry" />
        </mxCell>
        <mxCell id="WpTMb0PjgPMh6Vc9hxhS-77" value="+ id: int&#xa;+ DateHour: datetime&#xa;+ content: longtext" style="text;strokeColor=none;fillColor=none;align=left;verticalAlign=top;spacingLeft=4;spacingRight=4;overflow=hidden;rotatable=0;points=[[0,0.5],[1,0.5]];portConstraint=eastwest;" vertex="1" parent="WpTMb0PjgPMh6Vc9hxhS-76">
          <mxGeometry y="26" width="180" height="64" as="geometry" />
        </mxCell>
        <mxCell id="WpTMb0PjgPMh6Vc9hxhS-78" style="edgeStyle=orthogonalEdgeStyle;rounded=0;orthogonalLoop=1;jettySize=auto;html=1;fontSize=12;endArrow=none;endFill=0;strokeWidth=1;exitX=-0.001;exitY=0.179;exitDx=0;exitDy=0;exitPerimeter=0;" edge="1" parent="V4yBMs7fp20xGWD95cax-1" target="WpTMb0PjgPMh6Vc9hxhS-77" source="WpTMb0PjgPMh6Vc9hxhS-1">
          <mxGeometry relative="1" as="geometry">
            <mxPoint x="1057.9999999999995" y="250" as="sourcePoint" />
            <Array as="points" />
          </mxGeometry>
        </mxCell>
        <mxCell id="WpTMb0PjgPMh6Vc9hxhS-79" value="0..*" style="text;html=1;strokeColor=none;fillColor=none;align=center;verticalAlign=middle;whiteSpace=wrap;rounded=0;" vertex="1" parent="V4yBMs7fp20xGWD95cax-1">
          <mxGeometry x="1017.97" y="39" width="22" height="20" as="geometry" />
        </mxCell>
        <mxCell id="WpTMb0PjgPMh6Vc9hxhS-80" value="1..1" style="text;html=1;strokeColor=none;fillColor=none;align=center;verticalAlign=middle;whiteSpace=wrap;rounded=0;" vertex="1" parent="V4yBMs7fp20xGWD95cax-1">
          <mxGeometry x="1155.97" y="90" width="22" height="20" as="geometry" />
        </mxCell>
        <mxCell id="WpTMb0PjgPMh6Vc9hxhS-81" value="0..*" style="text;html=1;strokeColor=none;fillColor=none;align=center;verticalAlign=middle;whiteSpace=wrap;rounded=0;" vertex="1" parent="V4yBMs7fp20xGWD95cax-1">
          <mxGeometry x="1650" y="-4" width="22" height="20" as="geometry" />
        </mxCell>
        <mxCell id="WpTMb0PjgPMh6Vc9hxhS-82" value="0..1" style="text;html=1;strokeColor=none;fillColor=none;align=center;verticalAlign=middle;whiteSpace=wrap;rounded=0;" vertex="1" parent="V4yBMs7fp20xGWD95cax-1">
          <mxGeometry x="927.97" y="-1" width="22" height="20" as="geometry" />
        </mxCell>
        <mxCell id="WpTMb0PjgPMh6Vc9hxhS-83" value="0..*" style="text;html=1;strokeColor=none;fillColor=none;align=center;verticalAlign=middle;whiteSpace=wrap;rounded=0;" vertex="1" parent="V4yBMs7fp20xGWD95cax-1">
          <mxGeometry x="1036" y="320" width="22" height="20" as="geometry" />
        </mxCell>
        <mxCell id="WpTMb0PjgPMh6Vc9hxhS-84" value="0..*" style="text;html=1;strokeColor=none;fillColor=none;align=center;verticalAlign=middle;whiteSpace=wrap;rounded=0;" vertex="1" parent="V4yBMs7fp20xGWD95cax-1">
          <mxGeometry x="1572" y="262" width="22" height="20" as="geometry" />
        </mxCell>
        <mxCell id="WpTMb0PjgPMh6Vc9hxhS-85" value="1..1" style="text;html=1;strokeColor=none;fillColor=none;align=center;verticalAlign=middle;whiteSpace=wrap;rounded=0;" vertex="1" parent="V4yBMs7fp20xGWD95cax-1">
          <mxGeometry x="1502" y="332" width="22" height="20" as="geometry" />
        </mxCell>
        <mxCell id="WpTMb0PjgPMh6Vc9hxhS-86" value="uses" style="edgeStyle=orthogonalEdgeStyle;rounded=0;orthogonalLoop=1;jettySize=auto;html=1;entryX=0;entryY=0.5;entryDx=0;entryDy=0;fontSize=19;endArrow=none;endFill=0;strokeWidth=1;" edge="1" parent="V4yBMs7fp20xGWD95cax-1" target="WpTMb0PjgPMh6Vc9hxhS-11">
          <mxGeometry relative="1" as="geometry">
            <Array as="points">
              <mxPoint x="1058" y="320" />
              <mxPoint x="1000" y="320" />
              <mxPoint x="1000" y="773" />
            </Array>
            <mxPoint x="1057.9999999999995" y="320" as="sourcePoint" />
          </mxGeometry>
        </mxCell>
        <mxCell id="WpTMb0PjgPMh6Vc9hxhS-87" value="pushes" style="edgeStyle=orthogonalEdgeStyle;rounded=0;orthogonalLoop=1;jettySize=auto;html=1;exitX=1;exitY=0.5;exitDx=0;exitDy=0;entryX=1;entryY=0.5;entryDx=0;entryDy=0;fontSize=19;endArrow=none;endFill=0;strokeWidth=1;" edge="1" parent="V4yBMs7fp20xGWD95cax-1" target="WpTMb0PjgPMh6Vc9hxhS-11">
          <mxGeometry relative="1" as="geometry">
            <Array as="points">
              <mxPoint x="1620" y="285" />
              <mxPoint x="1620" y="773" />
            </Array>
            <mxPoint x="1572" y="285" as="sourcePoint" />
          </mxGeometry>
        </mxCell>
        <mxCell id="WpTMb0PjgPMh6Vc9hxhS-88" value="0..*" style="text;html=1;strokeColor=none;fillColor=none;align=center;verticalAlign=middle;whiteSpace=wrap;rounded=0;" vertex="1" parent="V4yBMs7fp20xGWD95cax-1">
          <mxGeometry x="1400" y="750" width="22" height="20" as="geometry" />
        </mxCell>
        <mxCell id="WpTMb0PjgPMh6Vc9hxhS-89" value="0..*" style="text;html=1;strokeColor=none;fillColor=none;align=center;verticalAlign=middle;whiteSpace=wrap;rounded=0;" vertex="1" parent="V4yBMs7fp20xGWD95cax-1">
          <mxGeometry x="1218" y="750" width="22" height="20" as="geometry" />
        </mxCell>
        <mxCell id="WpTMb0PjgPMh6Vc9hxhS-90" style="edgeStyle=orthogonalEdgeStyle;rounded=0;orthogonalLoop=1;jettySize=auto;html=1;exitX=0.477;exitY=1.001;exitDx=0;exitDy=0;entryX=0.165;entryY=0.011;entryDx=0;entryDy=0;entryPerimeter=0;fontSize=19;endArrow=none;endFill=0;strokeWidth=1;exitPerimeter=0;" edge="1" parent="V4yBMs7fp20xGWD95cax-1" source="WpTMb0PjgPMh6Vc9hxhS-92" target="WpTMb0PjgPMh6Vc9hxhS-13">
          <mxGeometry relative="1" as="geometry">
            <Array as="points" />
          </mxGeometry>
        </mxCell>
        <mxCell id="WpTMb0PjgPMh6Vc9hxhS-91" value="ArticleComment" style="swimlane;fontStyle=0;childLayout=stackLayout;horizontal=1;startSize=26;fillColor=none;horizontalStack=0;resizeParent=1;resizeParentMax=0;resizeLast=0;collapsible=1;marginBottom=0;" vertex="1" parent="V4yBMs7fp20xGWD95cax-1">
          <mxGeometry x="750" y="680" width="160" height="70" as="geometry" />
        </mxCell>
        <mxCell id="WpTMb0PjgPMh6Vc9hxhS-92" value="+ id: int&#xa;+ name: varchar 255" style="text;strokeColor=none;fillColor=none;align=left;verticalAlign=top;spacingLeft=4;spacingRight=4;overflow=hidden;rotatable=0;points=[[0,0.5],[1,0.5]];portConstraint=eastwest;" vertex="1" parent="WpTMb0PjgPMh6Vc9hxhS-91">
          <mxGeometry y="26" width="160" height="44" as="geometry" />
        </mxCell>
        <mxCell id="WpTMb0PjgPMh6Vc9hxhS-93" style="edgeStyle=orthogonalEdgeStyle;rounded=0;orthogonalLoop=1;jettySize=auto;html=1;entryX=0.25;entryY=0;entryDx=0;entryDy=0;fontSize=12;endArrow=none;endFill=0;strokeWidth=1;exitX=0;exitY=0.641;exitDx=0;exitDy=0;exitPerimeter=0;" edge="1" parent="V4yBMs7fp20xGWD95cax-1" source="WpTMb0PjgPMh6Vc9hxhS-1" target="WpTMb0PjgPMh6Vc9hxhS-91">
          <mxGeometry relative="1" as="geometry">
            <mxPoint x="1057.9999999999998" y="285" as="sourcePoint" />
            <Array as="points">
              <mxPoint x="1150" y="177" />
              <mxPoint x="1150" y="285" />
              <mxPoint x="790" y="285" />
            </Array>
          </mxGeometry>
        </mxCell>
        <mxCell id="WpTMb0PjgPMh6Vc9hxhS-94" style="edgeStyle=orthogonalEdgeStyle;rounded=0;orthogonalLoop=1;jettySize=auto;html=1;exitX=0;exitY=0.5;exitDx=0;exitDy=0;entryX=0.75;entryY=0;entryDx=0;entryDy=0;fontSize=12;endArrow=none;endFill=0;strokeWidth=1;" edge="1" parent="V4yBMs7fp20xGWD95cax-1" target="WpTMb0PjgPMh6Vc9hxhS-91">
          <mxGeometry relative="1" as="geometry">
            <Array as="points">
              <mxPoint x="1360" y="285" />
              <mxPoint x="1360" y="590" />
              <mxPoint x="870" y="590" />
            </Array>
            <mxPoint x="1412" y="285" as="sourcePoint" />
          </mxGeometry>
        </mxCell>
        <mxCell id="WpTMb0PjgPMh6Vc9hxhS-95" value="0..*" style="text;html=1;strokeColor=none;fillColor=none;align=center;verticalAlign=middle;whiteSpace=wrap;rounded=0;" vertex="1" parent="V4yBMs7fp20xGWD95cax-1">
          <mxGeometry x="766" y="661" width="22" height="20" as="geometry" />
        </mxCell>
        <mxCell id="WpTMb0PjgPMh6Vc9hxhS-96" value="1..1" style="text;html=1;strokeColor=none;fillColor=none;align=center;verticalAlign=middle;whiteSpace=wrap;rounded=0;" vertex="1" parent="V4yBMs7fp20xGWD95cax-1">
          <mxGeometry x="1155.97" y="161" width="22" height="20" as="geometry" />
        </mxCell>
        <mxCell id="WpTMb0PjgPMh6Vc9hxhS-97" value="1..1" style="text;html=1;strokeColor=none;fillColor=none;align=center;verticalAlign=middle;whiteSpace=wrap;rounded=0;" vertex="1" parent="V4yBMs7fp20xGWD95cax-1">
          <mxGeometry x="1390" y="262" width="22" height="20" as="geometry" />
        </mxCell>
        <mxCell id="WpTMb0PjgPMh6Vc9hxhS-98" value="0..*" style="text;html=1;strokeColor=none;fillColor=none;align=center;verticalAlign=middle;whiteSpace=wrap;rounded=0;" vertex="1" parent="V4yBMs7fp20xGWD95cax-1">
          <mxGeometry x="870.97" y="661" width="22" height="20" as="geometry" />
        </mxCell>
        <mxCell id="WpTMb0PjgPMh6Vc9hxhS-99" value="0..*" style="text;html=1;strokeColor=none;fillColor=none;align=center;verticalAlign=middle;whiteSpace=wrap;rounded=0;" vertex="1" parent="V4yBMs7fp20xGWD95cax-1">
          <mxGeometry x="799.97" y="750" width="22" height="20" as="geometry" />
        </mxCell>
        <mxCell id="WpTMb0PjgPMh6Vc9hxhS-100" value="1..1" style="text;html=1;strokeColor=none;fillColor=none;align=center;verticalAlign=middle;whiteSpace=wrap;rounded=0;" vertex="1" parent="V4yBMs7fp20xGWD95cax-1">
          <mxGeometry x="799.97" y="880" width="22" height="20" as="geometry" />
        </mxCell>
        <mxCell id="WpTMb0PjgPMh6Vc9hxhS-101" value="+ meetLink: varchar 255&#xa;" style="text;strokeColor=none;fillColor=none;align=left;verticalAlign=top;spacingLeft=4;spacingRight=4;overflow=hidden;rotatable=0;points=[[0,0.5],[1,0.5]];portConstraint=eastwest;" vertex="1" parent="V4yBMs7fp20xGWD95cax-1">
          <mxGeometry x="1600" y="926" width="160" height="54" as="geometry" />
        </mxCell>
      </root>
    </mxGraphModel>
  </diagram>
</mxfile>
